{"glyphs":{"0":{"ha":1035,"x_min":101,"x_max":935,"o":"m 567 806 q 756 754 672 806 q 888 615 840 703 q 935 419 935 526 q 862 206 935 306 q 679 46 789 106 q 468 -14 569 -14 q 279 37 363 -14 q 149 176 196 88 q 101 371 101 264 q 174 586 101 486 q 356 746 246 686 q 567 806 465 806 m 486 696 q 267 438 267 696 q 298 267 267 344 q 392 142 329 189 q 549 96 456 96 q 769 354 769 96 q 738 525 769 447 q 643 649 707 603 q 486 696 579 696 z "},"1":{"ha":683,"x_min":118,"x_max":565,"o":"m 540 0 l 131 0 l 131 36 l 265 142 l 265 690 l 118 743 l 143 792 l 553 792 l 553 756 l 418 650 l 418 101 l 565 49 l 540 0 z "},"2":{"ha":803,"x_min":61,"x_max":728,"o":"m 728 -25 l 658 0 l 61 0 l 61 36 q 331 274 239 185 q 460 419 424 363 q 496 524 496 475 q 444 649 496 600 q 308 697 392 697 q 106 589 224 697 l 64 636 l 265 796 q 347 806 297 806 q 511 780 440 806 q 621 708 582 754 q 660 603 660 663 q 296 154 660 465 l 650 154 l 693 265 l 728 253 l 728 -25 z "},"3":{"ha":778,"x_min":40,"x_max":674,"o":"m 475 367 q 631 233 589 288 q 674 117 674 178 q 531 -147 674 -32 q 75 -367 389 -261 l 57 -307 q 337 -187 242 -239 q 470 -81 432 -135 q 508 51 508 -26 q 493 119 508 89 q 438 182 478 149 q 322 265 399 215 l 322 293 q 425 435 400 390 q 450 524 450 481 q 406 648 450 600 q 293 696 363 696 q 82 588 206 696 l 40 635 l 242 794 q 296 806 268 806 q 456 778 382 806 q 572 703 529 750 q 615 603 615 657 q 580 501 611 554 q 475 367 549 447 z "},"4":{"ha":963,"x_min":42,"x_max":921,"o":"m 708 89 l 708 -215 l 556 -297 l 556 89 l 42 89 l 42 125 l 556 750 l 708 832 l 708 181 l 921 181 l 872 89 l 708 89 m 556 625 l 200 181 l 556 181 l 556 625 z "},"5":{"ha":869,"x_min":69,"x_max":683,"o":"m 176 514 q 490 353 381 419 q 641 233 599 286 q 683 121 683 181 q 597 -96 683 -4 q 386 -248 511 -187 q 89 -367 261 -308 l 69 -307 q 356 -181 261 -235 q 485 -74 451 -126 q 518 56 518 -21 q 486 158 518 113 q 365 258 454 203 q 99 394 276 313 l 186 792 l 590 792 l 632 901 l 667 890 l 667 613 l 597 638 l 203 638 l 176 515 l 176 514 z "},"6":{"ha":1007,"x_min":129,"x_max":906,"o":"m 803 1176 q 415 826 535 997 q 294 479 294 656 q 324 287 294 374 q 415 148 354 200 q 563 96 475 96 q 695 154 650 96 q 740 328 740 213 q 656 542 740 453 q 439 674 571 632 l 479 729 q 697 685 600 729 q 850 564 794 642 q 906 390 906 486 q 843 200 906 294 q 683 46 781 106 q 483 -14 585 -14 q 300 42 381 -14 q 174 196 219 99 q 129 411 129 293 q 183 699 129 569 q 377 959 236 829 q 774 1226 518 1089 l 803 1176 z "},"7":{"ha":914,"x_min":99,"x_max":822,"o":"m 822 746 l 271 -367 l 210 -339 l 697 636 l 174 636 l 133 542 l 99 554 l 99 817 l 168 792 l 822 792 l 822 746 z "},"8":{"ha":1007,"x_min":103,"x_max":908,"o":"m 632 672 q 776 576 719 619 q 871 477 833 533 q 908 353 908 421 q 847 191 908 278 q 699 45 786 104 q 539 -14 611 -14 q 315 30 414 -14 q 159 149 215 74 q 103 317 103 225 q 162 458 103 388 q 361 636 221 528 q 224 760 274 697 q 175 903 175 824 q 232 1046 175 969 q 371 1175 289 1122 q 522 1228 453 1228 q 679 1194 610 1228 q 788 1101 749 1160 q 826 976 826 1043 q 781 848 821 914 q 631 672 740 782 l 632 672 m 486 1136 q 382 1088 425 1136 q 339 965 339 1039 q 399 832 339 890 q 574 706 460 774 q 657 824 639 785 q 675 910 675 863 q 651 1025 675 974 q 583 1106 626 1076 q 486 1136 540 1136 m 547 78 q 652 108 607 78 q 722 186 697 138 q 747 290 747 235 q 712 389 747 343 q 625 471 676 435 q 483 561 574 507 l 419 600 q 323 513 356 550 q 279 447 290 476 q 268 383 268 418 q 307 233 268 304 q 410 119 346 163 q 546 76 474 76 l 547 78 z "},"9":{"ha":1007,"x_min":101,"x_max":878,"o":"m 524 806 q 707 755 626 806 q 833 617 788 704 q 878 426 878 531 q 824 145 878 272 q 628 -108 769 18 q 232 -367 488 -235 l 201 -317 q 592 24 471 -142 q 713 358 713 190 q 683 528 713 451 q 592 650 653 604 q 443 696 531 696 q 267 464 267 696 q 347 249 267 338 q 551 118 426 160 l 513 63 q 302 106 396 63 q 155 227 208 150 q 101 400 101 304 q 163 591 101 496 q 324 746 225 686 q 524 806 422 806 z "}," ":{"ha":394,"x_min":0,"x_max":0,"o":""},"A":{"ha":1196,"x_min":-4,"x_max":1194,"o":"m 1169 0 l 767 0 l 767 36 l 892 139 l 781 407 l 308 407 l 186 128 l 436 49 l 413 0 l -4 0 l -4 36 l 122 136 l 522 1047 l 647 1118 l 1056 136 l 1194 49 l 1169 0 m 551 961 l 332 461 l 758 461 l 551 961 z "},"Á":{"ha":1196,"x_min":-4,"x_max":1194,"o":"m 1169 0 l 767 0 l 767 36 l 892 139 l 781 407 l 308 407 l 186 128 l 436 49 l 413 0 l -4 0 l -4 36 l 122 136 l 522 1047 l 647 1118 l 1056 136 l 1194 49 l 1169 0 m 551 961 l 332 461 l 758 461 l 551 961 m 868 1543 l 574 1297 l 522 1324 l 671 1596 l 843 1569 l 868 1543 z "},"Ă":{"ha":1196,"x_min":-4,"x_max":1194,"o":"m 1169 0 l 767 0 l 767 36 l 892 139 l 781 407 l 308 407 l 186 128 l 436 49 l 413 0 l -4 0 l -4 36 l 122 136 l 522 1047 l 647 1118 l 1056 136 l 1194 49 l 1169 0 m 551 961 l 332 461 l 758 461 l 551 961 m 874 1567 q 833 1467 876 1521 q 722 1375 789 1413 q 590 1338 654 1338 q 440 1369 513 1338 q 332 1469 367 1400 l 453 1567 q 534 1442 492 1476 q 622 1407 576 1407 q 699 1431 669 1407 q 726 1489 728 1456 l 874 1567 z "},"Â":{"ha":1196,"x_min":-4,"x_max":1194,"o":"m 1169 0 l 767 0 l 767 36 l 892 139 l 781 407 l 308 407 l 186 128 l 436 49 l 413 0 l -4 0 l -4 36 l 122 136 l 522 1047 l 647 1118 l 1056 136 l 1194 49 l 1169 0 m 551 961 l 332 461 l 758 461 l 551 961 m 876 1301 l 719 1275 l 546 1464 l 333 1289 l 294 1336 l 596 1582 l 901 1328 l 876 1301 z "},"Ä":{"ha":1196,"x_min":-4,"x_max":1194,"o":"m 376 1321 q 319 1349 342 1321 q 297 1417 297 1376 q 313 1472 297 1446 q 353 1513 329 1497 q 400 1528 378 1528 q 457 1500 435 1528 q 479 1431 479 1472 q 463 1376 479 1401 q 423 1336 447 1351 q 376 1321 399 1321 m 796 1321 q 739 1349 761 1321 q 717 1417 717 1376 q 733 1472 717 1446 q 773 1513 749 1497 q 819 1528 797 1528 q 876 1500 854 1528 q 899 1431 899 1472 q 883 1376 899 1401 q 842 1336 867 1351 q 796 1321 818 1321 m 1169 0 l 767 0 l 767 36 l 892 139 l 781 407 l 308 407 l 186 128 l 436 49 l 413 0 l -4 0 l -4 36 l 122 136 l 522 1047 l 647 1118 l 1056 136 l 1194 49 l 1169 0 m 551 961 l 332 461 l 758 461 l 551 961 z "},"À":{"ha":1196,"x_min":-4,"x_max":1194,"o":"m 1169 0 l 767 0 l 767 36 l 892 139 l 781 407 l 308 407 l 186 128 l 436 49 l 413 0 l -4 0 l -4 36 l 122 136 l 522 1047 l 647 1118 l 1056 136 l 1194 49 l 1169 0 m 551 961 l 332 461 l 758 461 l 551 961 m 626 1297 l 331 1543 l 356 1569 l 528 1596 l 676 1324 l 626 1297 z "},"Ā":{"ha":1196,"x_min":-4,"x_max":1194,"o":"m 1169 0 l 767 0 l 767 36 l 892 139 l 781 407 l 308 407 l 186 128 l 436 49 l 413 0 l -4 0 l -4 36 l 122 136 l 522 1047 l 647 1118 l 1056 136 l 1194 49 l 1169 0 m 551 961 l 332 461 l 758 461 l 551 961 m 288 1457 l 910 1457 l 910 1408 l 288 1408 l 288 1457 z "},"Ą":{"ha":1196,"x_min":-4,"x_max":1194,"o":"m 1174 0 q 1076 -96 1106 -57 q 1047 -167 1047 -135 q 1063 -207 1047 -192 q 1111 -228 1078 -222 l 1111 -274 l 994 -367 q 913 -306 939 -343 q 886 -212 886 -268 q 897 -157 886 -182 l 1096 0 l 767 0 l 767 36 l 892 139 l 781 407 l 308 407 l 186 128 l 436 49 l 413 0 l -4 0 l -4 36 l 122 136 l 522 1047 l 647 1118 l 1056 136 l 1194 49 l 1171 3 l 1174 0 m 551 961 l 332 461 l 758 461 l 551 961 z "},"Å":{"ha":1196,"x_min":-4,"x_max":1194,"o":"m 1169 0 l 767 0 l 767 36 l 892 139 l 781 407 l 308 407 l 186 128 l 436 49 l 413 0 l -4 0 l -4 36 l 122 136 l 522 1047 l 647 1118 l 1056 136 l 1194 49 l 1169 0 m 551 961 l 332 461 l 758 461 l 551 961 m 647 1582 q 751 1542 710 1582 q 793 1447 793 1503 q 756 1358 793 1400 q 661 1290 718 1315 q 549 1264 604 1264 q 445 1303 488 1264 q 403 1399 403 1343 q 440 1488 403 1446 q 535 1556 478 1531 q 647 1582 592 1582 m 567 1526 q 490 1467 490 1526 q 526 1362 490 1403 q 629 1321 563 1321 q 687 1336 667 1321 q 707 1381 707 1351 q 670 1485 707 1444 q 567 1526 633 1526 z "},"Ã":{"ha":1196,"x_min":-4,"x_max":1194,"o":"m 1169 0 l 767 0 l 767 36 l 892 139 l 781 407 l 308 407 l 186 128 l 436 49 l 413 0 l -4 0 l -4 36 l 122 136 l 522 1047 l 647 1118 l 1056 136 l 1194 49 l 1169 0 m 551 961 l 332 461 l 758 461 l 551 961 m 519 1578 q 713 1476 619 1476 q 803 1507 763 1476 l 846 1542 l 885 1494 l 678 1324 q 486 1424 581 1424 q 390 1390 433 1424 l 350 1360 l 311 1407 l 519 1578 z "},"Æ":{"ha":1522,"x_min":-4,"x_max":1375,"o":"m 1306 0 l 521 0 l 521 36 l 651 139 l 651 531 l 399 531 l 168 132 l 397 49 l 372 0 l -4 0 l -4 36 l 90 111 l 588 981 l 407 1043 l 432 1092 l 1292 1092 l 1361 1117 l 1361 804 l 1326 794 l 1163 1038 l 808 1038 l 808 585 l 999 585 l 1099 767 l 1135 767 l 1135 342 l 1086 317 l 1001 531 l 808 531 l 808 54 l 1157 54 l 1340 326 l 1375 315 l 1375 -25 l 1306 0 m 651 968 l 431 585 l 651 585 l 651 968 z "},"B":{"ha":1094,"x_min":75,"x_max":1003,"o":"m 769 588 q 940 485 876 558 q 1003 318 1003 413 q 934 153 1003 231 q 762 31 865 76 q 565 -15 658 -15 q 429 -8 496 -15 q 257 -1 318 -1 l 88 -1 l 88 35 l 218 138 l 218 994 l 75 1043 l 99 1092 l 256 1092 q 504 1100 382 1092 q 643 1106 599 1106 q 803 1069 733 1106 q 910 972 872 1033 q 947 833 947 910 q 898 700 947 764 q 771 590 849 636 l 769 588 m 775 767 q 715 949 775 878 q 535 1021 654 1021 q 374 965 444 1021 l 374 597 l 582 597 q 723 642 672 597 q 774 767 774 686 l 775 767 m 603 79 q 767 131 706 79 q 829 269 829 183 q 764 449 829 381 q 569 521 699 517 q 543 519 560 519 l 374 519 l 374 117 q 604 79 468 79 l 603 79 z "},"C":{"ha":1135,"x_min":101,"x_max":1042,"o":"m 692 1119 q 858 1099 763 1119 q 996 1054 953 1078 l 996 790 l 958 790 q 611 1011 828 1011 q 438 956 515 1011 q 315 805 360 901 q 271 588 271 708 q 314 333 271 449 q 447 147 357 217 q 668 78 536 78 q 1003 264 783 78 l 1042 201 l 786 3 q 690 -22 736 -15 q 590 -28 643 -28 q 336 43 447 -28 q 163 238 225 114 q 101 521 101 363 q 194 822 101 683 q 426 1040 288 960 q 692 1119 565 1119 z "},"Ć":{"ha":1135,"x_min":101,"x_max":1042,"o":"m 692 1119 q 858 1099 763 1119 q 996 1054 953 1078 l 996 790 l 958 790 q 611 1011 828 1011 q 438 956 515 1011 q 315 805 360 901 q 271 588 271 708 q 314 333 271 449 q 447 147 357 217 q 668 78 536 78 q 1003 264 783 78 l 1042 201 l 786 3 q 690 -22 736 -15 q 590 -28 643 -28 q 336 43 447 -28 q 163 238 225 114 q 101 521 101 363 q 194 822 101 683 q 426 1040 288 960 q 692 1119 565 1119 m 871 1543 l 576 1297 l 525 1324 l 674 1596 l 846 1569 l 871 1543 z "},"Č":{"ha":1135,"x_min":101,"x_max":1042,"o":"m 692 1119 q 858 1099 763 1119 q 996 1054 953 1078 l 996 790 l 958 790 q 611 1011 828 1011 q 438 956 515 1011 q 315 805 360 901 q 271 588 271 708 q 314 333 271 449 q 447 147 357 217 q 668 78 536 78 q 1003 264 783 78 l 1042 201 l 786 3 q 690 -22 736 -15 q 590 -28 643 -28 q 336 43 447 -28 q 163 238 225 114 q 101 521 101 363 q 194 822 101 683 q 426 1040 288 960 q 692 1119 565 1119 m 604 1289 l 299 1543 l 324 1569 l 481 1596 l 654 1407 l 867 1582 l 906 1535 l 604 1289 z "},"Ç":{"ha":1135,"x_min":101,"x_max":1042,"o":"m 786 6 q 675 -22 733 -15 l 626 -62 q 716 -151 692 -117 q 740 -226 740 -186 q 677 -326 740 -292 q 481 -367 614 -360 l 481 -331 q 617 -201 617 -286 q 596 -145 617 -171 q 525 -90 575 -119 l 603 -28 l 590 -28 q 336 43 447 -28 q 163 238 225 114 q 101 521 101 363 q 194 822 101 683 q 426 1040 288 960 q 692 1119 565 1119 q 858 1099 763 1119 q 996 1054 953 1078 l 996 790 l 958 790 q 611 1011 828 1011 q 438 956 515 1011 q 315 805 360 901 q 271 588 271 708 q 314 333 271 449 q 447 147 357 217 q 668 78 536 78 q 1003 264 783 78 l 1042 201 l 786 3 l 786 6 z "},"Ċ":{"ha":1135,"x_min":101,"x_max":1042,"o":"m 692 1119 q 858 1099 763 1119 q 996 1054 953 1078 l 996 790 l 958 790 q 611 1011 828 1011 q 438 956 515 1011 q 315 805 360 901 q 271 588 271 708 q 314 333 271 449 q 447 147 357 217 q 668 78 536 78 q 1003 264 783 78 l 1042 201 l 786 3 q 690 -22 736 -15 q 590 -28 643 -28 q 336 43 447 -28 q 163 238 225 114 q 101 521 101 363 q 194 822 101 683 q 426 1040 288 960 q 692 1119 565 1119 m 614 1535 q 677 1506 653 1535 q 701 1433 701 1476 q 684 1376 701 1403 q 640 1333 667 1349 q 588 1317 613 1317 q 525 1347 550 1317 q 500 1419 500 1376 q 517 1476 500 1450 q 562 1519 535 1503 q 614 1535 589 1535 z "},"D":{"ha":1226,"x_min":75,"x_max":1125,"o":"m 650 1104 q 899 1035 790 1104 q 1066 844 1007 967 q 1125 568 1125 722 q 1034 276 1125 410 q 808 63 943 142 q 551 -15 674 -15 q 421 -8 486 -15 q 254 -1 313 -1 l 88 -1 l 88 35 l 218 138 l 218 996 l 75 1043 l 99 1092 l 253 1092 q 511 1100 383 1092 q 650 1106 606 1106 l 650 1104 m 592 83 q 778 138 694 83 q 909 289 861 193 q 957 504 957 385 q 912 765 957 647 q 774 953 867 883 q 543 1024 681 1024 q 375 969 451 1024 l 375 119 q 590 82 465 82 l 592 83 z "},"Ð":{"ha":1226,"x_min":75,"x_max":1125,"o":"m 650 1104 q 899 1035 790 1104 q 1066 844 1007 967 q 1125 568 1125 722 q 1034 276 1125 410 q 808 63 943 142 q 551 -15 674 -15 q 421 -8 486 -15 q 254 -1 313 -1 l 88 -1 l 88 35 l 218 138 l 218 996 l 75 1043 l 99 1092 l 253 1092 q 511 1100 383 1092 q 650 1106 606 1106 l 650 1104 m 592 83 q 778 138 694 83 q 909 289 861 193 q 957 504 957 385 q 912 765 957 647 q 774 953 867 883 q 543 1024 681 1024 q 375 969 451 1024 l 375 119 q 590 82 465 82 l 592 83 m 344 571 l 344 571 l 344 571 l 344 571 l 344 571 m 383 571 l 306 571 l 306 577 l 383 577 l 383 571 z "},"Ď":{"ha":1226,"x_min":75,"x_max":1125,"o":"m 650 1104 q 899 1035 790 1104 q 1066 844 1007 967 q 1125 568 1125 722 q 1034 276 1125 410 q 808 63 943 142 q 551 -15 674 -15 q 421 -8 486 -15 q 254 -1 313 -1 l 88 -1 l 88 35 l 218 138 l 218 996 l 75 1043 l 99 1092 l 253 1092 q 511 1100 383 1092 q 650 1106 606 1106 l 650 1104 m 592 83 q 778 138 694 83 q 909 289 861 193 q 957 504 957 385 q 912 765 957 647 q 774 953 867 883 q 543 1024 681 1024 q 375 969 451 1024 l 375 119 q 590 82 465 82 l 592 83 m 563 1289 l 257 1543 l 282 1569 l 439 1596 l 613 1407 l 825 1582 l 864 1535 l 563 1289 z "},"Đ":{"ha":1226,"x_min":75,"x_max":1125,"o":"m 650 1104 q 899 1035 790 1104 q 1066 844 1007 967 q 1125 568 1125 722 q 1034 276 1125 410 q 808 63 943 142 q 551 -15 674 -15 q 421 -8 486 -15 q 254 -1 313 -1 l 88 -1 l 88 35 l 218 138 l 218 996 l 75 1043 l 99 1092 l 253 1092 q 511 1100 383 1092 q 650 1106 606 1106 l 650 1104 m 592 82 q 778 137 694 82 q 909 288 861 192 q 957 503 957 383 q 912 764 957 646 q 774 952 867 882 q 543 1022 681 1022 q 375 968 451 1022 l 375 575 l 383 575 l 383 569 l 375 569 l 375 119 q 590 82 465 82 l 592 82 z "},"E":{"ha":1129,"x_min":75,"x_max":982,"o":"m 913 0 l 88 0 l 88 36 l 218 139 l 218 993 l 75 1043 l 99 1092 l 899 1092 l 968 1117 l 968 804 l 933 794 l 769 1038 l 375 1038 l 375 585 l 604 585 l 706 767 l 742 767 l 742 342 l 693 317 l 607 531 l 375 531 l 375 54 l 764 54 l 947 326 l 982 315 l 982 -25 l 913 0 z "},"É":{"ha":1129,"x_min":75,"x_max":982,"o":"m 913 0 l 88 0 l 88 36 l 218 139 l 218 993 l 75 1043 l 99 1092 l 899 1092 l 968 1117 l 968 804 l 933 794 l 769 1038 l 375 1038 l 375 585 l 604 585 l 706 767 l 742 767 l 742 342 l 693 317 l 607 531 l 375 531 l 375 54 l 764 54 l 947 326 l 982 315 l 982 -25 l 913 0 m 832 1543 l 538 1297 l 486 1324 l 635 1596 l 807 1569 l 832 1543 z "},"Ě":{"ha":1129,"x_min":75,"x_max":982,"o":"m 913 0 l 88 0 l 88 36 l 218 139 l 218 993 l 75 1043 l 99 1092 l 899 1092 l 968 1117 l 968 804 l 933 794 l 769 1038 l 375 1038 l 375 585 l 604 585 l 706 767 l 742 767 l 742 342 l 693 317 l 607 531 l 375 531 l 375 54 l 764 54 l 947 326 l 982 315 l 982 -25 l 913 0 m 565 1289 l 260 1543 l 285 1569 l 442 1596 l 615 1407 l 828 1582 l 867 1535 l 565 1289 z "},"Ê":{"ha":1129,"x_min":75,"x_max":982,"o":"m 913 0 l 88 0 l 88 36 l 218 139 l 218 993 l 75 1043 l 99 1092 l 899 1092 l 968 1117 l 968 804 l 933 794 l 769 1038 l 375 1038 l 375 585 l 604 585 l 706 767 l 742 767 l 742 342 l 693 317 l 607 531 l 375 531 l 375 54 l 764 54 l 947 326 l 982 315 l 982 -25 l 913 0 m 840 1301 l 683 1275 l 510 1464 l 297 1289 l 258 1336 l 560 1582 l 865 1328 l 840 1301 z "},"Ë":{"ha":1129,"x_min":75,"x_max":982,"o":"m 340 1321 q 283 1349 306 1321 q 261 1417 261 1376 q 277 1472 261 1446 q 317 1513 293 1497 q 364 1528 342 1528 q 421 1500 399 1528 q 443 1431 443 1472 q 427 1376 443 1401 q 387 1336 411 1351 q 340 1321 363 1321 m 760 1321 q 703 1349 725 1321 q 681 1417 681 1376 q 697 1472 681 1446 q 737 1513 713 1497 q 783 1528 761 1528 q 840 1500 818 1528 q 863 1431 863 1472 q 847 1376 863 1401 q 806 1336 831 1351 q 760 1321 782 1321 m 913 0 l 88 0 l 88 36 l 218 139 l 218 993 l 75 1043 l 99 1092 l 899 1092 l 968 1117 l 968 804 l 933 794 l 769 1038 l 375 1038 l 375 585 l 604 585 l 706 767 l 742 767 l 742 342 l 693 317 l 607 531 l 375 531 l 375 54 l 764 54 l 947 326 l 982 315 l 982 -25 l 913 0 z "},"Ė":{"ha":1129,"x_min":75,"x_max":982,"o":"m 913 0 l 88 0 l 88 36 l 218 139 l 218 993 l 75 1043 l 99 1092 l 899 1092 l 968 1117 l 968 804 l 933 794 l 769 1038 l 375 1038 l 375 585 l 604 585 l 706 767 l 742 767 l 742 342 l 693 317 l 607 531 l 375 531 l 375 54 l 764 54 l 947 326 l 982 315 l 982 -25 l 913 0 m 575 1535 q 638 1506 614 1535 q 663 1433 663 1476 q 645 1376 663 1403 q 601 1333 628 1349 q 549 1317 574 1317 q 486 1347 511 1317 q 461 1419 461 1376 q 478 1476 461 1450 q 523 1519 496 1503 q 575 1535 550 1535 z "},"È":{"ha":1129,"x_min":75,"x_max":982,"o":"m 913 0 l 88 0 l 88 36 l 218 139 l 218 993 l 75 1043 l 99 1092 l 899 1092 l 968 1117 l 968 804 l 933 794 l 769 1038 l 375 1038 l 375 585 l 604 585 l 706 767 l 742 767 l 742 342 l 693 317 l 607 531 l 375 531 l 375 54 l 764 54 l 947 326 l 982 315 l 982 -25 l 913 0 m 590 1297 l 294 1543 l 319 1569 l 492 1596 l 640 1324 l 590 1297 z "},"Ē":{"ha":1129,"x_min":75,"x_max":982,"o":"m 913 0 l 88 0 l 88 36 l 218 139 l 218 993 l 75 1043 l 99 1092 l 899 1092 l 968 1117 l 968 804 l 933 794 l 769 1038 l 375 1038 l 375 585 l 604 585 l 706 767 l 742 767 l 742 342 l 693 317 l 607 531 l 375 531 l 375 54 l 764 54 l 947 326 l 982 315 l 982 -25 l 913 0 m 251 1457 l 874 1457 l 874 1408 l 251 1408 l 251 1457 z "},"Ę":{"ha":1129,"x_min":75,"x_max":982,"o":"m 958 -17 q 876 -101 901 -67 q 851 -167 851 -136 q 867 -207 851 -192 q 915 -228 882 -222 l 915 -274 l 799 -367 q 717 -306 743 -343 q 690 -212 690 -268 q 701 -157 690 -182 l 900 0 l 88 0 l 88 36 l 218 139 l 218 993 l 75 1043 l 99 1092 l 899 1092 l 968 1117 l 968 804 l 933 794 l 769 1038 l 375 1038 l 375 585 l 604 585 l 706 767 l 742 767 l 742 342 l 693 317 l 607 531 l 375 531 l 375 54 l 764 54 l 947 326 l 982 315 l 982 -25 l 958 -17 z "},"F":{"ha":1074,"x_min":75,"x_max":968,"o":"m 968 804 l 933 794 l 769 1038 l 375 1038 l 375 585 l 604 585 l 706 767 l 742 767 l 742 392 l 693 367 l 610 531 l 375 531 l 375 110 l 586 49 l 561 0 l 88 0 l 88 36 l 218 139 l 218 993 l 75 1043 l 99 1092 l 899 1092 l 968 1117 l 968 804 z "},"G":{"ha":1256,"x_min":101,"x_max":1189,"o":"m 1057 215 l 1094 160 l 839 3 q 729 -22 782 -17 q 615 -28 676 -28 q 347 43 464 -28 q 166 238 231 114 q 101 521 101 363 q 199 822 101 683 q 441 1040 296 960 q 717 1119 586 1119 q 898 1099 794 1119 q 1049 1054 1001 1078 l 1049 797 l 1013 797 q 636 1011 869 1011 q 450 956 533 1011 q 319 805 367 901 q 271 588 271 708 q 317 335 271 450 q 458 151 364 219 q 693 82 553 82 q 736 81 700 82 q 815 90 772 81 q 900 121 857 100 l 900 454 l 688 515 l 711 564 l 1189 564 l 1189 528 l 1057 426 l 1057 215 z "},"Ğ":{"ha":1256,"x_min":101,"x_max":1189,"o":"m 1057 215 l 1094 160 l 839 3 q 729 -22 782 -17 q 615 -28 676 -28 q 347 43 464 -28 q 166 238 231 114 q 101 521 101 363 q 199 822 101 683 q 441 1040 296 960 q 717 1119 586 1119 q 898 1099 794 1119 q 1049 1054 1001 1078 l 1049 797 l 1013 797 q 636 1011 869 1011 q 450 956 533 1011 q 319 805 367 901 q 271 588 271 708 q 317 335 271 450 q 458 151 364 219 q 693 82 553 82 q 736 81 700 82 q 815 90 772 81 q 900 121 857 100 l 900 454 l 688 515 l 711 564 l 1189 564 l 1189 528 l 1057 426 l 1057 215 m 922 1567 q 881 1467 925 1521 q 770 1375 838 1413 q 639 1338 703 1338 q 488 1369 561 1338 q 381 1469 415 1400 l 501 1567 q 583 1442 540 1476 q 671 1407 625 1407 q 747 1431 718 1407 q 775 1489 776 1456 l 922 1567 z "},"Ģ":{"ha":1256,"x_min":101,"x_max":1189,"o":"m 1057 215 l 1094 160 l 839 3 q 729 -22 782 -17 q 615 -28 676 -28 q 347 43 464 -28 q 166 238 231 114 q 101 521 101 363 q 199 822 101 683 q 441 1040 296 960 q 717 1119 586 1119 q 898 1099 794 1119 q 1049 1054 1001 1078 l 1049 797 l 1013 797 q 636 1011 869 1011 q 450 956 533 1011 q 319 805 367 901 q 271 588 271 708 q 317 335 271 450 q 458 151 364 219 q 693 82 553 82 q 736 81 700 82 q 815 90 772 81 q 900 121 857 100 l 900 454 l 688 515 l 711 564 l 1189 564 l 1189 528 l 1057 426 l 1057 215 m 825 -151 l 649 -422 l 604 -422 l 639 -244 l 535 -164 l 558 -115 l 825 -115 l 825 -151 z "},"Ġ":{"ha":1256,"x_min":101,"x_max":1189,"o":"m 1057 215 l 1094 160 l 839 3 q 729 -22 782 -17 q 615 -28 676 -28 q 347 43 464 -28 q 166 238 231 114 q 101 521 101 363 q 199 822 101 683 q 441 1040 296 960 q 717 1119 586 1119 q 898 1099 794 1119 q 1049 1054 1001 1078 l 1049 797 l 1013 797 q 636 1011 869 1011 q 450 956 533 1011 q 319 805 367 901 q 271 588 271 708 q 317 335 271 450 q 458 151 364 219 q 693 82 553 82 q 736 81 700 82 q 815 90 772 81 q 900 121 857 100 l 900 454 l 688 515 l 711 564 l 1189 564 l 1189 528 l 1057 426 l 1057 215 m 661 1535 q 724 1506 700 1535 q 749 1433 749 1476 q 731 1376 749 1403 q 687 1333 714 1349 q 635 1317 660 1317 q 572 1347 597 1317 q 547 1419 547 1376 q 565 1476 547 1450 q 609 1519 582 1503 q 661 1535 636 1535 z "},"H":{"ha":1317,"x_min":75,"x_max":1242,"o":"m 1218 -3 l 810 -3 l 810 33 l 940 135 l 940 514 l 375 514 l 375 97 l 519 46 l 496 -3 l 88 -3 l 88 33 l 218 135 l 218 990 l 75 1042 l 99 1090 l 507 1090 l 507 1054 l 375 953 l 375 569 l 940 569 l 940 990 l 797 1042 l 821 1090 l 1229 1090 l 1229 1054 l 1097 953 l 1097 100 l 1242 46 l 1218 -3 z "},"Ħ":{"ha":1317,"x_min":0,"x_max":1317,"o":"m 1097 100 l 1242 49 l 1218 0 l 810 0 l 810 36 l 940 138 l 940 517 l 375 517 l 375 100 l 519 49 l 496 0 l 88 0 l 88 36 l 218 138 l 218 768 l 0 768 l 0 822 l 218 822 l 218 992 l 75 1043 l 99 1092 l 507 1092 l 507 1056 l 375 954 l 375 822 l 940 822 l 940 992 l 797 1043 l 821 1092 l 1229 1092 l 1229 1056 l 1097 954 l 1097 822 l 1317 822 l 1317 768 l 1097 768 l 1097 100 m 375 768 l 375 571 l 940 571 l 940 768 l 375 768 z "},"I":{"ha":594,"x_min":75,"x_max":519,"o":"m 496 -3 l 88 -3 l 88 33 l 218 135 l 218 990 l 75 1042 l 99 1090 l 507 1090 l 507 1054 l 375 953 l 375 100 l 519 46 l 496 -3 z "},"Ĳ":{"ha":1179,"x_min":75,"x_max":1106,"o":"m 496 -3 l 88 -3 l 88 33 l 218 135 l 218 990 l 75 1042 l 99 1090 l 507 1090 l 507 1054 l 375 953 l 375 100 l 519 46 l 496 -3 m 974 138 q 977 35 974 82 q 986 -28 981 -11 l 729 -367 l 683 -331 q 788 -161 761 -231 q 815 10 815 -92 l 815 988 l 644 1043 l 669 1092 l 1106 1092 l 1106 1056 l 974 953 l 974 138 z "},"Í":{"ha":594,"x_min":75,"x_max":567,"o":"m 496 -3 l 88 -3 l 88 33 l 218 135 l 218 990 l 75 1042 l 99 1090 l 507 1090 l 507 1054 l 375 953 l 375 100 l 519 46 l 496 -3 m 567 1543 l 272 1297 l 221 1324 l 369 1596 l 542 1569 l 567 1543 z "},"Î":{"ha":594,"x_min":-7,"x_max":600,"o":"m 496 -3 l 88 -3 l 88 33 l 218 135 l 218 990 l 75 1042 l 99 1090 l 507 1090 l 507 1054 l 375 953 l 375 100 l 519 46 l 496 -3 m 575 1301 l 418 1275 l 244 1464 l 32 1289 l -7 1336 l 294 1582 l 600 1328 l 575 1301 z "},"Ï":{"ha":594,"x_min":21,"x_max":574,"o":"m 496 -3 l 88 -3 l 88 33 l 218 135 l 218 990 l 75 1042 l 99 1090 l 507 1090 l 507 1054 l 375 953 l 375 100 l 519 46 l 496 -3 m 125 1529 q 182 1501 160 1529 q 204 1432 204 1473 q 189 1376 204 1402 q 148 1335 173 1351 q 101 1320 124 1320 q 45 1348 67 1320 q 22 1417 22 1376 q 38 1472 22 1446 q 78 1513 53 1498 q 125 1529 103 1529 m 493 1529 q 550 1501 528 1529 q 573 1432 573 1473 q 557 1376 573 1402 q 517 1335 541 1351 q 469 1320 492 1320 q 413 1348 435 1320 q 390 1417 390 1376 q 406 1472 390 1446 q 446 1513 421 1498 q 493 1529 471 1529 z "},"İ":{"ha":594,"x_min":75,"x_max":519,"o":"m 496 -3 l 88 -3 l 88 33 l 218 135 l 218 990 l 75 1042 l 99 1090 l 507 1090 l 507 1054 l 375 953 l 375 100 l 519 46 l 496 -3 m 310 1535 q 373 1506 349 1535 q 397 1433 397 1476 q 380 1376 397 1403 q 335 1333 363 1349 q 283 1317 308 1317 q 221 1347 246 1317 q 196 1419 196 1376 q 213 1476 196 1450 q 258 1519 231 1503 q 310 1535 285 1535 z "},"Ì":{"ha":594,"x_min":29,"x_max":519,"o":"m 496 -3 l 88 -3 l 88 33 l 218 135 l 218 990 l 75 1042 l 99 1090 l 507 1090 l 507 1054 l 375 953 l 375 100 l 519 46 l 496 -3 m 325 1297 l 29 1543 l 54 1569 l 226 1596 l 375 1324 l 325 1297 z "},"Ī":{"ha":594,"x_min":-14,"x_max":608,"o":"m 496 -3 l 88 -3 l 88 33 l 218 135 l 218 990 l 75 1042 l 99 1090 l 507 1090 l 507 1054 l 375 953 l 375 100 l 519 46 l 496 -3 m -14 1457 l 608 1457 l 608 1408 l -14 1408 l -14 1457 z "},"Į":{"ha":594,"x_min":75,"x_max":519,"o":"m 496 -3 q 399 -99 428 -60 q 369 -169 369 -137 q 385 -210 369 -194 q 433 -231 400 -225 l 433 -276 l 317 -369 q 235 -308 261 -346 q 208 -215 208 -271 q 219 -160 208 -185 l 418 -3 l 88 -3 l 88 33 l 218 135 l 218 990 l 75 1042 l 99 1090 l 507 1090 l 507 1054 l 375 953 l 375 100 l 519 46 l 496 -3 z "},"J":{"ha":586,"x_min":50,"x_max":511,"o":"m 379 138 q 383 35 379 82 q 392 -28 386 -11 l 135 -367 l 89 -331 q 194 -161 167 -231 q 221 10 221 -92 l 221 988 l 50 1043 l 75 1092 l 511 1092 l 511 1056 l 379 953 l 379 138 z "},"K":{"ha":1182,"x_min":75,"x_max":1164,"o":"m 519 47 l 496 -1 l 88 -1 l 88 35 l 218 136 l 218 992 l 75 1043 l 99 1092 l 507 1092 l 507 1056 l 375 954 l 375 99 l 519 47 m 1140 -1 l 897 -1 l 460 546 l 890 921 l 731 1042 l 754 1090 l 1119 1090 l 1119 1054 l 610 610 l 1000 128 l 1164 47 l 1140 -1 z "},"Ķ":{"ha":1182,"x_min":75,"x_max":1164,"o":"m 519 47 l 496 -1 l 88 -1 l 88 35 l 218 136 l 218 992 l 75 1043 l 99 1092 l 507 1092 l 507 1056 l 375 954 l 375 99 l 519 47 m 1140 -1 l 897 -1 l 460 546 l 890 921 l 731 1042 l 754 1090 l 1119 1090 l 1119 1054 l 610 610 l 1000 128 l 1164 47 l 1140 -1 m 788 -151 l 611 -422 l 567 -422 l 601 -244 l 497 -164 l 521 -115 l 788 -115 l 788 -151 z "},"L":{"ha":1086,"x_min":75,"x_max":979,"o":"m 910 0 l 88 0 l 88 36 l 218 139 l 218 992 l 75 1043 l 99 1092 l 507 1092 l 507 1056 l 375 953 l 375 54 l 743 54 l 944 354 l 979 343 l 979 -25 l 910 0 z "},"Ĺ":{"ha":1086,"x_min":75,"x_max":979,"o":"m 910 0 l 88 0 l 88 36 l 218 139 l 218 992 l 75 1043 l 99 1092 l 507 1092 l 507 1056 l 375 953 l 375 54 l 743 54 l 944 354 l 979 343 l 979 -25 l 910 0 m 592 1543 l 297 1297 l 246 1324 l 394 1596 l 567 1569 l 592 1543 z "},"Ľ":{"ha":1086,"x_min":75,"x_max":979,"o":"m 910 0 l 88 0 l 88 36 l 218 139 l 218 992 l 75 1043 l 99 1092 l 507 1092 l 507 1056 l 375 953 l 375 54 l 743 54 l 944 354 l 979 343 l 979 -25 l 910 0 m 803 890 l 635 672 l 589 708 q 642 817 624 761 q 661 919 661 872 q 658 953 661 933 l 608 999 l 608 1035 l 757 1092 l 803 1092 l 803 890 z "},"Ļ":{"ha":1086,"x_min":75,"x_max":979,"o":"m 910 0 l 88 0 l 88 36 l 218 139 l 218 992 l 75 1043 l 99 1092 l 507 1092 l 507 1056 l 375 953 l 375 54 l 743 54 l 944 354 l 979 343 l 979 -25 l 910 0 m 703 -151 l 526 -422 l 482 -422 l 517 -244 l 413 -164 l 436 -115 l 703 -115 l 703 -151 z "},"Ŀ":{"ha":1086,"x_min":75,"x_max":979,"o":"m 910 0 l 88 0 l 88 36 l 218 139 l 218 992 l 75 1043 l 99 1092 l 507 1092 l 507 1056 l 375 953 l 375 54 l 743 54 l 944 354 l 979 343 l 979 -25 l 910 0 m 869 821 q 933 792 908 821 q 957 719 957 763 q 940 662 957 689 q 895 619 922 635 q 843 603 868 603 q 781 632 806 603 q 756 704 756 661 q 773 762 756 735 q 817 805 790 789 q 869 821 844 821 z "},"Ł":{"ha":1089,"x_min":0,"x_max":979,"o":"m 910 -3 l 88 -3 l 88 33 l 218 136 l 218 389 l 0 217 l 0 296 l 218 468 l 218 990 l 75 1042 l 99 1090 l 507 1090 l 507 1054 l 375 951 l 375 532 l 772 846 l 772 767 l 375 453 l 375 54 l 743 54 l 944 354 l 979 343 l 979 -28 l 910 -3 z "},"M":{"ha":1478,"x_min":75,"x_max":1403,"o":"m 1378 -4 l 969 -4 l 969 32 l 1100 135 l 1100 924 l 725 -3 l 657 -3 l 285 935 l 285 122 l 429 46 l 406 -3 l 88 -3 l 88 33 l 218 136 l 218 960 l 75 1042 l 99 1090 l 382 1090 l 735 197 l 1089 1090 l 1390 1090 l 1390 1054 l 1258 951 l 1258 100 l 1403 44 l 1378 -4 z "},"N":{"ha":1207,"x_min":75,"x_max":1146,"o":"m 1014 954 l 1014 0 l 947 0 l 285 853 l 285 122 l 421 49 l 396 0 l 88 0 l 88 36 l 218 138 l 218 967 l 75 1043 l 99 1092 l 301 1092 l 947 260 l 947 969 l 813 1043 l 838 1092 l 1146 1092 l 1146 1056 l 1014 954 z "},"Ń":{"ha":1207,"x_min":75,"x_max":1146,"o":"m 1014 954 l 1014 0 l 947 0 l 285 853 l 285 122 l 421 49 l 396 0 l 88 0 l 88 36 l 218 138 l 218 967 l 75 1043 l 99 1092 l 301 1092 l 947 260 l 947 969 l 813 1043 l 838 1092 l 1146 1092 l 1146 1056 l 1014 954 m 872 1543 l 578 1297 l 526 1324 l 675 1596 l 847 1569 l 872 1543 z "},"Ň":{"ha":1207,"x_min":75,"x_max":1146,"o":"m 1014 954 l 1014 0 l 947 0 l 285 853 l 285 122 l 421 49 l 396 0 l 88 0 l 88 36 l 218 138 l 218 967 l 75 1043 l 99 1092 l 301 1092 l 947 260 l 947 969 l 813 1043 l 838 1092 l 1146 1092 l 1146 1056 l 1014 954 m 606 1289 l 300 1543 l 325 1569 l 482 1596 l 656 1407 l 868 1582 l 907 1535 l 606 1289 z "},"Ņ":{"ha":1207,"x_min":75,"x_max":1146,"o":"m 1014 954 l 1014 0 l 947 0 l 285 853 l 285 122 l 421 49 l 396 0 l 88 0 l 88 36 l 218 138 l 218 967 l 75 1043 l 99 1092 l 301 1092 l 947 260 l 947 969 l 813 1043 l 838 1092 l 1146 1092 l 1146 1056 l 1014 954 m 765 -151 l 589 -422 l 544 -422 l 579 -244 l 475 -164 l 499 -115 l 765 -115 l 765 -151 z "},"Ŋ":{"ha":1207,"x_min":75,"x_max":1146,"o":"m 1014 138 q 1017 35 1014 82 q 1026 -28 1021 -11 l 769 -367 l 724 -331 q 844 -160 806 -225 q 895 -49 883 -94 q 906 53 907 -3 l 285 853 l 285 122 l 421 49 l 396 0 l 88 0 l 88 36 l 218 138 l 218 967 l 75 1043 l 99 1092 l 301 1092 l 947 260 l 947 969 l 813 1043 l 838 1092 l 1146 1092 l 1146 1056 l 1014 954 l 1014 138 z "},"Ñ":{"ha":1207,"x_min":75,"x_max":1146,"o":"m 1014 954 l 1014 0 l 947 0 l 285 853 l 285 122 l 421 49 l 396 0 l 88 0 l 88 36 l 218 138 l 218 967 l 75 1043 l 99 1092 l 301 1092 l 947 260 l 947 969 l 813 1043 l 838 1092 l 1146 1092 l 1146 1056 l 1014 954 m 524 1578 q 717 1476 624 1476 q 807 1507 767 1476 l 850 1542 l 889 1494 l 682 1324 q 490 1424 585 1424 q 394 1390 438 1424 l 354 1360 l 315 1407 l 524 1578 z "},"O":{"ha":1282,"x_min":101,"x_max":1181,"o":"m 690 1119 q 947 1049 835 1119 q 1119 853 1058 978 q 1181 569 1181 728 q 1088 269 1181 407 q 856 52 994 132 q 592 -28 718 -28 q 336 43 447 -28 q 163 238 225 114 q 101 521 101 363 q 194 822 101 683 q 426 1040 288 960 q 690 1119 564 1119 m 610 1011 q 438 956 515 1011 q 315 805 360 901 q 271 588 271 708 q 315 333 271 449 q 449 149 358 218 q 672 81 539 81 q 844 135 767 81 q 967 287 922 190 q 1011 504 1011 383 q 967 759 1011 644 q 833 942 924 874 q 610 1011 743 1011 z "},"Ó":{"ha":1282,"x_min":101,"x_max":1181,"o":"m 690 1119 q 947 1049 835 1119 q 1119 853 1058 978 q 1181 569 1181 728 q 1088 269 1181 407 q 856 52 994 132 q 592 -28 718 -28 q 336 43 447 -28 q 163 238 225 114 q 101 521 101 363 q 194 822 101 683 q 426 1040 288 960 q 690 1119 564 1119 m 610 1011 q 438 956 515 1011 q 315 805 360 901 q 271 588 271 708 q 315 333 271 449 q 449 149 358 218 q 672 81 539 81 q 844 135 767 81 q 967 287 922 190 q 1011 504 1011 383 q 967 759 1011 644 q 833 942 924 874 q 610 1011 743 1011 m 911 1543 l 617 1297 l 565 1324 l 714 1596 l 886 1569 l 911 1543 z "},"Ô":{"ha":1282,"x_min":101,"x_max":1181,"o":"m 690 1119 q 947 1049 835 1119 q 1119 853 1058 978 q 1181 569 1181 728 q 1088 269 1181 407 q 856 52 994 132 q 592 -28 718 -28 q 336 43 447 -28 q 163 238 225 114 q 101 521 101 363 q 194 822 101 683 q 426 1040 288 960 q 690 1119 564 1119 m 610 1011 q 438 956 515 1011 q 315 805 360 901 q 271 588 271 708 q 315 333 271 449 q 449 149 358 218 q 672 81 539 81 q 844 135 767 81 q 967 287 922 190 q 1011 504 1011 383 q 967 759 1011 644 q 833 942 924 874 q 610 1011 743 1011 m 919 1301 l 763 1275 l 589 1464 l 376 1289 l 338 1336 l 639 1582 l 944 1328 l 919 1301 z "},"Ö":{"ha":1282,"x_min":101,"x_max":1181,"o":"m 443 1528 q 500 1500 478 1528 q 522 1431 522 1472 q 506 1376 522 1401 q 466 1336 490 1351 q 419 1321 442 1321 q 363 1349 385 1321 q 340 1417 340 1376 q 356 1472 340 1446 q 397 1513 372 1497 q 443 1528 421 1528 m 863 1528 q 919 1500 897 1528 q 942 1431 942 1472 q 926 1376 942 1401 q 885 1336 910 1351 q 839 1321 861 1321 q 782 1349 804 1321 q 760 1417 760 1376 q 776 1472 760 1446 q 816 1513 792 1497 q 863 1528 840 1528 m 690 1119 q 947 1049 835 1119 q 1119 853 1058 978 q 1181 569 1181 728 q 1088 269 1181 407 q 856 52 994 132 q 592 -28 718 -28 q 336 43 447 -28 q 163 238 225 114 q 101 521 101 363 q 194 822 101 683 q 426 1040 288 960 q 690 1119 564 1119 m 610 1011 q 438 956 515 1011 q 315 805 360 901 q 271 588 271 708 q 315 333 271 449 q 449 149 358 218 q 672 81 539 81 q 844 135 767 81 q 967 287 922 190 q 1011 504 1011 383 q 967 759 1011 644 q 833 942 924 874 q 610 1011 743 1011 z "},"Ò":{"ha":1282,"x_min":101,"x_max":1181,"o":"m 690 1119 q 947 1049 835 1119 q 1119 853 1058 978 q 1181 569 1181 728 q 1088 269 1181 407 q 856 52 994 132 q 592 -28 718 -28 q 336 43 447 -28 q 163 238 225 114 q 101 521 101 363 q 194 822 101 683 q 426 1040 288 960 q 690 1119 564 1119 m 610 1011 q 438 956 515 1011 q 315 805 360 901 q 271 588 271 708 q 315 333 271 449 q 449 149 358 218 q 672 81 539 81 q 844 135 767 81 q 967 287 922 190 q 1011 504 1011 383 q 967 759 1011 644 q 833 942 924 874 q 610 1011 743 1011 m 669 1297 l 374 1543 l 399 1569 l 571 1596 l 719 1324 l 669 1297 z "},"Ő":{"ha":1282,"x_min":101,"x_max":1181,"o":"m 690 1119 q 947 1049 835 1119 q 1119 853 1058 978 q 1181 569 1181 728 q 1088 269 1181 407 q 856 52 994 132 q 592 -28 718 -28 q 336 43 447 -28 q 163 238 225 114 q 101 521 101 363 q 194 822 101 683 q 426 1040 288 960 q 690 1119 564 1119 m 610 1011 q 438 956 515 1011 q 315 805 360 901 q 271 588 271 708 q 315 333 271 449 q 449 149 358 218 q 672 81 539 81 q 844 135 767 81 q 967 287 922 190 q 1011 504 1011 383 q 967 759 1011 644 q 833 942 924 874 q 610 1011 743 1011 m 361 1272 l 336 1329 l 463 1631 l 650 1567 l 647 1532 l 361 1272 m 786 1272 l 761 1329 l 889 1631 l 1075 1567 l 1074 1532 l 786 1272 z "},"Ō":{"ha":1282,"x_min":101,"x_max":1181,"o":"m 690 1119 q 947 1049 835 1119 q 1119 853 1058 978 q 1181 569 1181 728 q 1088 269 1181 407 q 856 52 994 132 q 592 -28 718 -28 q 336 43 447 -28 q 163 238 225 114 q 101 521 101 363 q 194 822 101 683 q 426 1040 288 960 q 690 1119 564 1119 m 610 1011 q 438 956 515 1011 q 315 805 360 901 q 271 588 271 708 q 315 333 271 449 q 449 149 358 218 q 672 81 539 81 q 844 135 767 81 q 967 287 922 190 q 1011 504 1011 383 q 967 759 1011 644 q 833 942 924 874 q 610 1011 743 1011 m 331 1457 l 953 1457 l 953 1408 l 331 1408 l 331 1457 z "},"Ø":{"ha":1282,"x_min":100,"x_max":1181,"o":"m 958 1040 q 1122 846 1064 969 q 1181 568 1181 722 q 1088 268 1181 406 q 856 51 994 131 q 592 -29 718 -29 q 369 22 469 -29 l 238 -207 l 190 -179 l 322 50 q 158 243 217 121 q 100 519 100 365 q 193 820 100 682 q 424 1038 286 958 q 689 1118 563 1118 q 911 1067 811 1118 l 1044 1297 l 1092 1269 l 958 1039 l 958 1040 m 272 588 q 306 363 272 467 q 404 190 339 260 l 838 940 q 610 1011 742 1011 q 438 956 515 1011 q 315 805 360 901 q 271 588 271 708 l 272 588 m 674 81 q 846 135 768 81 q 968 287 924 190 q 1013 504 1013 383 q 979 729 1013 626 q 881 901 946 832 l 447 151 q 674 81 543 81 z "},"Õ":{"ha":1282,"x_min":101,"x_max":1181,"o":"m 690 1119 q 947 1049 835 1119 q 1119 853 1058 978 q 1181 569 1181 728 q 1088 269 1181 407 q 856 52 994 132 q 592 -28 718 -28 q 336 43 447 -28 q 163 238 225 114 q 101 521 101 363 q 194 822 101 683 q 426 1040 288 960 q 690 1119 564 1119 m 610 1011 q 438 956 515 1011 q 315 805 360 901 q 271 588 271 708 q 315 333 271 449 q 449 149 358 218 q 672 81 539 81 q 844 135 767 81 q 967 287 922 190 q 1011 504 1011 383 q 967 759 1011 644 q 833 942 924 874 q 610 1011 743 1011 m 563 1578 q 756 1476 663 1476 q 846 1507 806 1476 l 889 1542 l 928 1494 l 721 1324 q 529 1424 624 1424 q 433 1390 476 1424 l 393 1360 l 354 1407 l 563 1578 z "},"Œ":{"ha":1722,"x_min":101,"x_max":1575,"o":"m 1506 0 l 942 0 q 683 -8 811 0 q 546 -14 589 -14 q 313 55 414 -14 q 157 246 213 124 q 101 522 101 368 q 187 815 101 681 q 400 1027 272 949 q 644 1106 528 1106 q 774 1099 708 1106 q 940 1092 882 1092 l 1492 1092 l 1561 1117 l 1561 804 l 1526 794 l 1363 1038 l 978 1038 l 978 585 l 1199 585 l 1297 767 l 1333 767 l 1333 342 l 1285 317 l 1200 531 l 978 531 l 978 54 l 1357 54 l 1540 326 l 1575 315 l 1575 -25 l 1506 0 m 271 586 q 313 325 271 443 q 440 137 354 207 q 654 67 526 67 q 819 121 743 67 l 819 971 q 606 1008 729 1008 q 436 953 513 1008 q 315 803 360 899 q 271 588 271 707 l 271 586 z "},"P":{"ha":1079,"x_min":75,"x_max":986,"o":"m 603 529 q 758 581 700 529 q 815 722 815 632 q 749 937 815 853 q 554 1021 682 1021 q 375 964 456 1021 l 375 108 l 586 47 l 561 -1 l 88 -1 l 88 35 l 218 138 l 218 996 l 75 1043 l 99 1092 l 246 1092 q 517 1100 383 1092 q 661 1106 614 1106 q 831 1065 757 1106 q 945 952 904 1024 q 986 793 986 881 q 917 612 986 697 q 740 478 847 526 q 526 435 632 429 l 460 483 l 485 532 l 604 532 l 603 529 z "},"Þ":{"ha":1082,"x_min":75,"x_max":989,"o":"m 660 842 q 832 806 757 842 q 948 707 907 769 q 989 569 989 644 q 918 408 989 485 q 739 288 847 332 q 525 250 631 244 l 458 300 l 483 349 l 603 349 q 760 389 703 349 q 818 501 818 429 q 751 688 818 615 q 554 760 685 760 q 375 703 456 760 l 375 97 l 519 46 l 496 -3 l 88 -3 l 88 33 l 218 135 l 218 990 l 75 1042 l 99 1090 l 507 1090 l 507 1054 l 375 953 l 375 832 q 514 839 435 833 q 661 844 614 844 l 660 842 z "},"Q":{"ha":1282,"x_min":101,"x_max":1467,"o":"m 1467 -264 q 1179 -367 1258 -367 q 1024 -259 1129 -367 q 776 13 918 -151 q 592 -28 681 -28 q 336 43 447 -28 q 163 238 225 114 q 101 521 101 363 q 194 822 101 683 q 426 1040 288 960 q 690 1119 564 1119 q 947 1049 835 1119 q 1119 853 1058 978 q 1181 569 1181 728 q 1090 274 1181 410 q 863 56 1000 138 q 1113 -127 996 -46 q 1254 -208 1229 -208 l 1442 -208 l 1467 -264 m 272 586 q 316 332 272 447 q 450 148 360 217 q 674 79 540 79 q 796 106 736 79 q 952 257 893 150 q 1011 504 1011 364 q 967 759 1011 644 q 833 942 924 874 q 610 1011 743 1011 q 438 956 515 1011 q 315 805 360 901 q 271 588 271 708 l 272 586 z "},"R":{"ha":1113,"x_min":75,"x_max":1110,"o":"m 1086 -4 l 836 -4 l 522 492 l 457 540 l 475 576 l 556 576 q 711 624 654 576 q 768 757 768 672 q 706 944 768 869 q 522 1019 643 1019 q 375 972 442 1019 l 375 97 l 519 46 l 496 -3 l 88 -3 l 88 33 l 218 135 l 218 992 l 75 1042 l 99 1090 l 246 1090 q 497 1099 372 1090 q 631 1104 586 1104 q 792 1067 721 1104 q 901 966 863 1029 q 940 826 940 903 q 896 693 940 757 q 781 583 851 629 q 633 513 711 536 l 721 482 l 943 131 l 1110 44 l 1086 -4 z "},"Ŕ":{"ha":1113,"x_min":75,"x_max":1110,"o":"m 1086 -4 l 836 -4 l 522 492 l 457 540 l 475 576 l 556 576 q 711 624 654 576 q 768 757 768 672 q 706 944 768 869 q 522 1019 643 1019 q 375 972 442 1019 l 375 97 l 519 46 l 496 -3 l 88 -3 l 88 33 l 218 135 l 218 992 l 75 1042 l 99 1090 l 246 1090 q 497 1099 372 1090 q 631 1104 586 1104 q 792 1067 721 1104 q 901 966 863 1029 q 940 826 940 903 q 896 693 940 757 q 781 583 851 629 q 633 513 711 536 l 721 482 l 943 131 l 1110 44 l 1086 -4 m 790 1543 l 496 1297 l 444 1324 l 593 1596 l 765 1569 l 790 1543 z "},"Ř":{"ha":1113,"x_min":75,"x_max":1110,"o":"m 1086 -4 l 836 -4 l 522 492 l 457 540 l 475 576 l 556 576 q 711 624 654 576 q 768 757 768 672 q 706 944 768 869 q 522 1019 643 1019 q 375 972 442 1019 l 375 97 l 519 46 l 496 -3 l 88 -3 l 88 33 l 218 135 l 218 992 l 75 1042 l 99 1090 l 246 1090 q 497 1099 372 1090 q 631 1104 586 1104 q 792 1067 721 1104 q 901 966 863 1029 q 940 826 940 903 q 896 693 940 757 q 781 583 851 629 q 633 513 711 536 l 721 482 l 943 131 l 1110 44 l 1086 -4 m 524 1289 l 218 1543 l 243 1569 l 400 1596 l 574 1407 l 786 1582 l 825 1535 l 524 1289 z "},"Ŗ":{"ha":1113,"x_min":75,"x_max":1110,"o":"m 1086 -4 l 836 -4 l 522 492 l 457 540 l 475 576 l 556 576 q 711 624 654 576 q 768 757 768 672 q 706 944 768 869 q 522 1019 643 1019 q 375 972 442 1019 l 375 97 l 519 46 l 496 -3 l 88 -3 l 88 33 l 218 135 l 218 992 l 75 1042 l 99 1090 l 246 1090 q 497 1099 372 1090 q 631 1104 586 1104 q 792 1067 721 1104 q 901 966 863 1029 q 940 826 940 903 q 896 693 940 757 q 781 583 851 629 q 633 513 711 536 l 721 482 l 943 131 l 1110 44 l 1086 -4 m 769 -151 l 593 -422 l 549 -422 l 583 -244 l 479 -164 l 503 -115 l 769 -115 l 769 -151 z "},"S":{"ha":972,"x_min":111,"x_max":868,"o":"m 708 250 q 674 331 708 293 q 588 399 639 369 q 444 476 536 429 q 273 569 338 531 q 163 662 208 608 q 118 781 118 715 q 175 930 118 850 q 315 1065 232 1010 q 467 1119 397 1119 q 663 1099 551 1119 q 826 1054 775 1078 l 826 792 l 789 792 q 636 967 719 906 q 461 1029 553 1029 q 328 977 376 1029 q 279 842 279 925 q 315 756 279 796 q 405 685 351 717 q 550 607 458 653 q 717 516 654 554 q 824 426 781 478 q 868 310 868 374 q 807 160 868 240 q 658 26 746 81 q 497 -29 569 -29 q 286 -8 408 -29 q 111 36 164 13 l 111 299 l 149 299 q 315 123 222 185 q 504 61 407 61 q 612 88 565 61 q 683 158 658 114 q 708 250 708 201 z "},"Ś":{"ha":972,"x_min":111,"x_max":868,"o":"m 708 250 q 674 331 708 293 q 588 399 639 369 q 444 476 536 429 q 273 569 338 531 q 163 662 208 608 q 118 781 118 715 q 175 930 118 850 q 315 1065 232 1010 q 467 1119 397 1119 q 663 1099 551 1119 q 826 1054 775 1078 l 826 792 l 789 792 q 636 967 719 906 q 461 1029 553 1029 q 328 977 376 1029 q 279 842 279 925 q 315 756 279 796 q 405 685 351 717 q 550 607 458 653 q 717 516 654 554 q 824 426 781 478 q 868 310 868 374 q 807 160 868 240 q 658 26 746 81 q 497 -29 569 -29 q 286 -8 408 -29 q 111 36 164 13 l 111 299 l 149 299 q 315 123 222 185 q 504 61 407 61 q 612 88 565 61 q 683 158 658 114 q 708 250 708 201 m 742 1543 l 447 1297 l 396 1324 l 544 1596 l 717 1569 l 742 1543 z "},"Š":{"ha":972,"x_min":111,"x_max":868,"o":"m 708 250 q 674 331 708 293 q 588 399 639 369 q 444 476 536 429 q 273 569 338 531 q 163 662 208 608 q 118 781 118 715 q 175 930 118 850 q 315 1065 232 1010 q 467 1119 397 1119 q 663 1099 551 1119 q 826 1054 775 1078 l 826 792 l 789 792 q 636 967 719 906 q 461 1029 553 1029 q 328 977 376 1029 q 279 842 279 925 q 315 756 279 796 q 405 685 351 717 q 550 607 458 653 q 717 516 654 554 q 824 426 781 478 q 868 310 868 374 q 807 160 868 240 q 658 26 746 81 q 497 -29 569 -29 q 286 -8 408 -29 q 111 36 164 13 l 111 299 l 149 299 q 315 123 222 185 q 504 61 407 61 q 612 88 565 61 q 683 158 658 114 q 708 250 708 201 m 475 1289 l 169 1543 l 194 1569 l 351 1596 l 525 1407 l 738 1582 l 776 1535 l 475 1289 z "},"Ş":{"ha":972,"x_min":111,"x_max":868,"o":"m 868 307 q 819 175 868 246 q 697 49 771 104 q 551 -24 622 -6 l 500 -64 q 590 -153 565 -118 q 614 -228 614 -187 q 551 -327 614 -293 q 354 -368 488 -361 l 354 -332 q 490 -203 490 -287 q 469 -147 490 -172 q 399 -92 449 -121 l 475 -29 q 272 -6 383 -26 q 111 36 160 14 l 111 299 l 149 299 q 315 123 222 185 q 504 61 407 61 q 612 88 565 61 q 683 158 658 114 q 708 250 708 201 q 674 331 708 293 q 588 399 639 369 q 444 476 536 429 q 273 569 338 531 q 163 662 208 608 q 118 781 118 715 q 175 930 118 850 q 315 1065 232 1010 q 467 1119 397 1119 q 663 1099 551 1119 q 826 1054 775 1078 l 826 792 l 789 792 q 636 967 719 906 q 461 1029 553 1029 q 328 977 376 1029 q 279 842 279 925 q 315 756 279 796 q 405 685 351 717 q 550 607 458 653 q 717 516 654 554 q 824 426 781 478 q 868 310 868 374 l 868 307 z "},"Ș":{"ha":972,"x_min":111,"x_max":868,"o":"m 708 250 q 674 331 708 293 q 588 399 639 369 q 444 476 536 429 q 273 569 338 531 q 163 662 208 608 q 118 781 118 715 q 175 930 118 850 q 315 1065 232 1010 q 467 1119 397 1119 q 663 1099 551 1119 q 826 1054 775 1078 l 826 792 l 789 792 q 636 967 719 906 q 461 1029 553 1029 q 328 977 376 1029 q 279 842 279 925 q 315 756 279 796 q 405 685 351 717 q 550 607 458 653 q 717 516 654 554 q 824 426 781 478 q 868 310 868 374 q 807 160 868 240 q 658 26 746 81 q 497 -29 569 -29 q 286 -8 408 -29 q 111 36 164 13 l 111 299 l 149 299 q 315 123 222 185 q 504 61 407 61 q 612 88 565 61 q 683 158 658 114 q 708 250 708 201 m 631 -151 l 454 -422 l 410 -422 l 444 -244 l 340 -164 l 364 -115 l 631 -115 l 631 -151 z "},"ẞ":{"ha":1235,"x_min":75,"x_max":1124,"o":"m 733 646 l 1124 646 l 1124 600 l 668 153 l 1010 153 l 1069 265 l 1104 253 l 1104 -25 l 1035 0 l 479 0 l 479 46 l 938 493 l 532 493 l 532 539 l 922 935 q 826 965 858 954 q 676 1010 738 994 q 550 1025 614 1025 q 413 973 463 1025 q 364 836 364 921 l 364 0 l 75 0 l 75 36 l 206 138 l 206 781 q 263 930 206 850 q 402 1065 319 1010 q 554 1119 485 1119 q 793 1107 643 1119 q 954 1097 868 1101 q 1124 1092 1040 1092 l 1124 1057 l 733 646 z "},"T":{"ha":1153,"x_min":104,"x_max":1049,"o":"m 1049 776 l 1014 767 l 831 1038 l 653 1038 l 653 100 l 797 49 l 772 0 l 364 0 l 364 36 l 494 139 l 494 1038 l 322 1038 l 139 767 l 104 776 l 104 1117 l 174 1092 l 979 1092 l 1049 1117 l 1049 776 z "},"Ŧ":{"ha":1153,"x_min":104,"x_max":1049,"o":"m 1049 776 l 1014 767 l 831 1038 l 653 1038 l 653 571 l 917 571 l 917 517 l 653 517 l 653 100 l 797 49 l 772 0 l 364 0 l 364 36 l 494 139 l 494 517 l 236 517 l 236 571 l 494 571 l 494 1038 l 322 1038 l 139 767 l 104 776 l 104 1117 l 174 1092 l 979 1092 l 1049 1117 l 1049 776 z "},"Ť":{"ha":1153,"x_min":104,"x_max":1049,"o":"m 1049 776 l 1014 767 l 831 1038 l 653 1038 l 653 100 l 797 49 l 772 0 l 364 0 l 364 36 l 494 139 l 494 1038 l 322 1038 l 139 767 l 104 776 l 104 1117 l 174 1092 l 979 1092 l 1049 1117 l 1049 776 m 579 1289 l 274 1543 l 299 1569 l 456 1596 l 629 1407 l 842 1582 l 881 1535 l 579 1289 z "},"Ţ":{"ha":1153,"x_min":104,"x_max":1047,"o":"m 1047 776 l 1013 767 l 829 1038 l 651 1038 l 651 100 l 796 49 l 771 0 l 672 0 l 593 -62 q 683 -151 658 -117 q 707 -226 707 -186 q 644 -326 707 -292 q 447 -367 581 -360 l 447 -331 q 583 -201 583 -286 q 563 -145 583 -171 q 492 -90 542 -119 l 604 0 l 364 0 l 364 36 l 494 139 l 494 1038 l 322 1038 l 139 767 l 104 776 l 104 1117 l 174 1092 l 979 1092 l 1047 1117 l 1047 776 z "},"Ț":{"ha":1153,"x_min":104,"x_max":1049,"o":"m 1049 776 l 1014 767 l 831 1038 l 653 1038 l 653 100 l 797 49 l 772 0 l 364 0 l 364 36 l 494 139 l 494 1038 l 322 1038 l 139 767 l 104 776 l 104 1117 l 174 1092 l 979 1092 l 1049 1117 l 1049 776 m 725 -151 l 549 -422 l 504 -422 l 539 -244 l 435 -164 l 458 -115 l 725 -115 l 725 -151 z "},"U":{"ha":1247,"x_min":64,"x_max":1203,"o":"m 1071 953 l 1071 431 q 1001 181 1071 285 q 829 24 932 76 q 629 -28 726 -28 q 411 27 507 -28 q 261 178 315 82 q 207 396 207 275 l 207 992 l 64 1043 l 89 1092 l 497 1092 l 497 1056 l 365 953 l 365 467 q 454 182 365 283 q 724 81 543 81 q 855 124 790 81 q 961 253 919 168 q 1003 453 1003 338 l 1003 968 l 861 1043 l 886 1092 l 1203 1092 l 1203 1056 l 1071 953 z "},"Ú":{"ha":1247,"x_min":64,"x_max":1203,"o":"m 1071 953 l 1071 431 q 1001 181 1071 285 q 829 24 932 76 q 629 -28 726 -28 q 411 27 507 -28 q 261 178 315 82 q 207 396 207 275 l 207 992 l 64 1043 l 89 1092 l 497 1092 l 497 1056 l 365 953 l 365 467 q 454 182 365 283 q 724 81 543 81 q 855 124 790 81 q 961 253 919 168 q 1003 453 1003 338 l 1003 968 l 861 1043 l 886 1092 l 1203 1092 l 1203 1056 l 1071 953 m 911 1543 l 617 1297 l 565 1324 l 714 1596 l 886 1569 l 911 1543 z "},"Û":{"ha":1247,"x_min":64,"x_max":1203,"o":"m 1071 953 l 1071 431 q 1001 181 1071 285 q 829 24 932 76 q 629 -28 726 -28 q 411 27 507 -28 q 261 178 315 82 q 207 396 207 275 l 207 992 l 64 1043 l 89 1092 l 497 1092 l 497 1056 l 365 953 l 365 467 q 454 182 365 283 q 724 81 543 81 q 855 124 790 81 q 961 253 919 168 q 1003 453 1003 338 l 1003 968 l 861 1043 l 886 1092 l 1203 1092 l 1203 1056 l 1071 953 m 919 1301 l 763 1275 l 589 1464 l 376 1289 l 338 1336 l 639 1582 l 944 1328 l 919 1301 z "},"Ü":{"ha":1247,"x_min":64,"x_max":1203,"o":"m 419 1321 q 363 1349 385 1321 q 340 1417 340 1376 q 356 1472 340 1446 q 397 1513 372 1497 q 443 1528 421 1528 q 500 1500 478 1528 q 522 1431 522 1472 q 506 1376 522 1401 q 466 1336 490 1351 q 419 1321 442 1321 m 839 1321 q 782 1349 804 1321 q 760 1417 760 1376 q 776 1472 760 1446 q 816 1513 792 1497 q 863 1528 840 1528 q 919 1500 897 1528 q 942 1431 942 1472 q 926 1376 942 1401 q 885 1336 910 1351 q 839 1321 861 1321 m 1071 953 l 1071 431 q 1001 181 1071 285 q 829 24 932 76 q 629 -28 726 -28 q 411 27 507 -28 q 261 178 315 82 q 207 396 207 275 l 207 992 l 64 1043 l 89 1092 l 497 1092 l 497 1056 l 365 953 l 365 467 q 454 182 365 283 q 724 81 543 81 q 855 124 790 81 q 961 253 919 168 q 1003 453 1003 338 l 1003 968 l 861 1043 l 886 1092 l 1203 1092 l 1203 1056 l 1071 953 z "},"Ù":{"ha":1247,"x_min":64,"x_max":1203,"o":"m 1071 953 l 1071 431 q 1001 181 1071 285 q 829 24 932 76 q 629 -28 726 -28 q 411 27 507 -28 q 261 178 315 82 q 207 396 207 275 l 207 992 l 64 1043 l 89 1092 l 497 1092 l 497 1056 l 365 953 l 365 467 q 454 182 365 283 q 724 81 543 81 q 855 124 790 81 q 961 253 919 168 q 1003 453 1003 338 l 1003 968 l 861 1043 l 886 1092 l 1203 1092 l 1203 1056 l 1071 953 m 669 1297 l 374 1543 l 399 1569 l 571 1596 l 719 1324 l 669 1297 z "},"Ű":{"ha":1247,"x_min":64,"x_max":1203,"o":"m 1071 953 l 1071 431 q 1001 181 1071 285 q 829 24 932 76 q 629 -28 726 -28 q 411 27 507 -28 q 261 178 315 82 q 207 396 207 275 l 207 992 l 64 1043 l 89 1092 l 497 1092 l 497 1056 l 365 953 l 365 467 q 454 182 365 283 q 724 81 543 81 q 855 124 790 81 q 961 253 919 168 q 1003 453 1003 338 l 1003 968 l 861 1043 l 886 1092 l 1203 1092 l 1203 1056 l 1071 953 m 361 1272 l 336 1329 l 463 1631 l 650 1567 l 647 1532 l 361 1272 m 786 1272 l 761 1329 l 889 1631 l 1075 1567 l 1074 1532 l 786 1272 z "},"Ū":{"ha":1247,"x_min":64,"x_max":1203,"o":"m 1071 953 l 1071 431 q 1001 181 1071 285 q 829 24 932 76 q 629 -28 726 -28 q 411 27 507 -28 q 261 178 315 82 q 207 396 207 275 l 207 992 l 64 1043 l 89 1092 l 497 1092 l 497 1056 l 365 953 l 365 467 q 454 182 365 283 q 724 81 543 81 q 855 124 790 81 q 961 253 919 168 q 1003 453 1003 338 l 1003 968 l 861 1043 l 886 1092 l 1203 1092 l 1203 1056 l 1071 953 m 331 1457 l 953 1457 l 953 1408 l 331 1408 l 331 1457 z "},"Ų":{"ha":1247,"x_min":64,"x_max":1204,"o":"m 1072 953 l 1072 431 q 1033 236 1072 322 q 925 90 993 150 q 791 -69 821 -19 q 761 -151 761 -118 q 778 -201 761 -183 q 835 -228 796 -219 l 835 -274 l 718 -367 q 639 -312 668 -347 q 610 -235 610 -278 q 621 -157 610 -187 l 769 -3 q 629 -28 697 -28 q 411 27 507 -28 q 261 178 315 82 q 207 396 207 275 l 207 992 l 64 1043 l 89 1092 l 497 1092 l 497 1056 l 365 953 l 365 467 q 454 182 365 283 q 724 81 543 81 q 855 124 790 81 q 961 253 919 168 q 1003 453 1003 338 l 1003 968 l 861 1043 l 886 1092 l 1203 1092 l 1204 1056 l 1072 953 z "},"Ů":{"ha":1247,"x_min":64,"x_max":1203,"o":"m 1071 953 l 1071 431 q 1001 181 1071 285 q 829 24 932 76 q 629 -28 726 -28 q 411 27 507 -28 q 261 178 315 82 q 207 396 207 275 l 207 992 l 64 1043 l 89 1092 l 497 1092 l 497 1056 l 365 953 l 365 467 q 454 182 365 283 q 724 81 543 81 q 855 124 790 81 q 961 253 919 168 q 1003 453 1003 338 l 1003 968 l 861 1043 l 886 1092 l 1203 1092 l 1203 1056 l 1071 953 m 690 1582 q 794 1542 753 1582 q 836 1447 836 1503 q 799 1358 836 1400 q 704 1290 761 1315 q 592 1264 647 1264 q 488 1303 531 1264 q 446 1399 446 1343 q 483 1488 446 1446 q 578 1556 521 1531 q 690 1582 635 1582 m 610 1526 q 533 1467 533 1526 q 569 1362 533 1403 q 672 1321 606 1321 q 730 1336 710 1321 q 750 1381 750 1351 q 713 1485 750 1444 q 610 1526 676 1526 z "},"V":{"ha":1200,"x_min":0,"x_max":1200,"o":"m 1072 956 l 672 44 l 547 -26 l 139 956 l 0 1043 l 25 1092 l 428 1092 l 428 1056 l 303 953 l 644 131 l 1010 964 l 760 1043 l 783 1092 l 1200 1092 l 1199 1056 l 1072 956 z "},"W":{"ha":1636,"x_min":1,"x_max":1636,"o":"m 1518 961 l 1181 43 l 1056 -28 l 829 647 l 613 43 l 488 -28 l 133 958 l 1 1042 l 26 1090 l 393 1090 l 393 1054 l 292 976 l 583 147 l 799 742 l 725 963 l 596 1043 l 619 1092 l 1013 1092 l 1013 1056 l 893 957 l 1153 151 l 1447 964 l 1194 1043 l 1219 1092 l 1636 1092 l 1636 1054 l 1518 961 z "},"Ẃ":{"ha":1636,"x_min":1,"x_max":1636,"o":"m 1518 961 l 1181 43 l 1056 -28 l 829 647 l 613 43 l 488 -28 l 133 958 l 1 1042 l 26 1090 l 393 1090 l 393 1054 l 292 976 l 583 147 l 799 742 l 725 963 l 596 1043 l 619 1092 l 1013 1092 l 1013 1056 l 893 957 l 1153 151 l 1447 964 l 1194 1043 l 1219 1092 l 1636 1092 l 1636 1054 l 1518 961 m 1125 1543 l 831 1297 l 779 1324 l 928 1596 l 1100 1569 l 1125 1543 z "},"Ŵ":{"ha":1636,"x_min":1,"x_max":1636,"o":"m 1518 961 l 1181 43 l 1056 -28 l 829 647 l 613 43 l 488 -28 l 133 958 l 1 1042 l 26 1090 l 393 1090 l 393 1054 l 292 976 l 583 147 l 799 742 l 725 963 l 596 1043 l 619 1092 l 1013 1092 l 1013 1056 l 893 957 l 1153 151 l 1447 964 l 1194 1043 l 1219 1092 l 1636 1092 l 1636 1054 l 1518 961 m 1133 1301 l 976 1275 l 803 1464 l 590 1289 l 551 1336 l 853 1582 l 1158 1328 l 1133 1301 z "},"Ẅ":{"ha":1636,"x_min":1,"x_max":1636,"o":"m 633 1321 q 576 1349 599 1321 q 554 1417 554 1376 q 570 1472 554 1446 q 610 1513 586 1497 q 657 1528 635 1528 q 714 1500 692 1528 q 736 1431 736 1472 q 720 1376 736 1401 q 680 1336 704 1351 q 633 1321 656 1321 m 1053 1321 q 996 1349 1018 1321 q 974 1417 974 1376 q 990 1472 974 1446 q 1030 1513 1006 1497 q 1076 1528 1054 1528 q 1133 1500 1111 1528 q 1156 1431 1156 1472 q 1140 1376 1156 1401 q 1099 1336 1124 1351 q 1053 1321 1075 1321 m 1518 961 l 1181 43 l 1056 -28 l 829 647 l 613 43 l 488 -28 l 133 958 l 1 1042 l 26 1090 l 393 1090 l 393 1054 l 292 976 l 583 147 l 799 742 l 725 963 l 596 1043 l 619 1092 l 1013 1092 l 1013 1056 l 893 957 l 1153 151 l 1447 964 l 1194 1043 l 1219 1092 l 1636 1092 l 1636 1054 l 1518 961 z "},"Ẁ":{"ha":1636,"x_min":1,"x_max":1636,"o":"m 1518 961 l 1181 43 l 1056 -28 l 829 647 l 613 43 l 488 -28 l 133 958 l 1 1042 l 26 1090 l 393 1090 l 393 1054 l 292 976 l 583 147 l 799 742 l 725 963 l 596 1043 l 619 1092 l 1013 1092 l 1013 1056 l 893 957 l 1153 151 l 1447 964 l 1194 1043 l 1219 1092 l 1636 1092 l 1636 1054 l 1518 961 m 883 1297 l 588 1543 l 613 1569 l 785 1596 l 933 1324 l 883 1297 z "},"X":{"ha":1210,"x_min":32,"x_max":1163,"o":"m 1138 -1 l 728 -1 l 728 35 l 838 122 l 567 469 l 265 125 l 472 49 l 449 0 l 32 0 l 32 36 l 182 125 l 529 517 l 192 956 l 47 1043 l 71 1092 l 482 1092 l 482 1056 l 374 965 l 642 624 l 918 965 l 708 1043 l 733 1092 l 1150 1092 l 1150 1056 l 1010 972 l 681 575 l 1013 143 l 1163 47 l 1138 -1 z "},"Y":{"ha":1103,"x_min":0,"x_max":1103,"o":"m 625 100 l 769 49 l 744 0 l 335 0 l 335 36 l 465 139 l 465 400 l 113 972 l 0 1043 l 28 1092 l 440 1092 l 440 1056 l 307 953 l 590 488 l 888 958 l 663 1043 l 686 1092 l 1103 1092 l 1103 1056 l 993 992 l 625 408 l 625 100 z "},"Ý":{"ha":1103,"x_min":0,"x_max":1103,"o":"m 625 100 l 769 49 l 744 0 l 335 0 l 335 36 l 465 139 l 465 400 l 113 972 l 0 1043 l 28 1092 l 440 1092 l 440 1056 l 307 953 l 590 488 l 888 958 l 663 1043 l 686 1092 l 1103 1092 l 1103 1056 l 993 992 l 625 408 l 625 100 m 821 1543 l 526 1297 l 475 1324 l 624 1596 l 796 1569 l 821 1543 z "},"Ŷ":{"ha":1103,"x_min":0,"x_max":1103,"o":"m 625 100 l 769 49 l 744 0 l 335 0 l 335 36 l 465 139 l 465 400 l 113 972 l 0 1043 l 28 1092 l 440 1092 l 440 1056 l 307 953 l 590 488 l 888 958 l 663 1043 l 686 1092 l 1103 1092 l 1103 1056 l 993 992 l 625 408 l 625 100 m 829 1301 l 672 1275 l 499 1464 l 286 1289 l 247 1336 l 549 1582 l 854 1328 l 829 1301 z "},"Ÿ":{"ha":1103,"x_min":0,"x_max":1103,"o":"m 329 1321 q 272 1349 294 1321 q 250 1417 250 1376 q 266 1472 250 1446 q 306 1513 282 1497 q 353 1528 331 1528 q 410 1500 388 1528 q 432 1431 432 1472 q 416 1376 432 1401 q 376 1336 400 1351 q 329 1321 351 1321 m 749 1321 q 692 1349 714 1321 q 669 1417 669 1376 q 685 1472 669 1446 q 726 1513 701 1497 q 772 1528 750 1528 q 829 1500 807 1528 q 851 1431 851 1472 q 835 1376 851 1401 q 795 1336 819 1351 q 749 1321 771 1321 m 625 100 l 769 49 l 744 0 l 335 0 l 335 36 l 465 139 l 465 400 l 113 972 l 0 1043 l 28 1092 l 440 1092 l 440 1056 l 307 953 l 590 488 l 888 958 l 663 1043 l 686 1092 l 1103 1092 l 1103 1056 l 993 992 l 625 408 l 625 100 z "},"Ỳ":{"ha":1103,"x_min":0,"x_max":1103,"o":"m 625 100 l 769 49 l 744 0 l 335 0 l 335 36 l 465 139 l 465 400 l 113 972 l 0 1043 l 28 1092 l 440 1092 l 440 1056 l 307 953 l 590 488 l 888 958 l 663 1043 l 686 1092 l 1103 1092 l 1103 1056 l 993 992 l 625 408 l 625 100 m 579 1297 l 283 1543 l 308 1569 l 481 1596 l 629 1324 l 579 1297 z "},"Z":{"ha":1097,"x_min":103,"x_max":988,"o":"m 744 54 l 939 340 l 974 329 l 974 -25 l 904 0 l 103 0 l 103 54 l 803 1038 l 357 1038 l 181 781 l 146 790 l 146 1117 l 215 1092 l 988 1092 l 988 1038 l 289 54 l 744 54 z "},"Ź":{"ha":1097,"x_min":103,"x_max":988,"o":"m 744 54 l 939 340 l 974 329 l 974 -25 l 904 0 l 103 0 l 103 54 l 803 1038 l 357 1038 l 181 781 l 146 790 l 146 1117 l 215 1092 l 988 1092 l 988 1038 l 289 54 l 744 54 m 818 1543 l 524 1297 l 472 1324 l 621 1596 l 793 1569 l 818 1543 z "},"Ž":{"ha":1097,"x_min":103,"x_max":988,"o":"m 744 54 l 939 340 l 974 329 l 974 -25 l 904 0 l 103 0 l 103 54 l 803 1038 l 357 1038 l 181 781 l 146 790 l 146 1117 l 215 1092 l 988 1092 l 988 1038 l 289 54 l 744 54 m 551 1289 l 246 1543 l 271 1569 l 428 1596 l 601 1407 l 814 1582 l 853 1535 l 551 1289 z "},"Ż":{"ha":1097,"x_min":103,"x_max":988,"o":"m 744 54 l 939 340 l 974 329 l 974 -25 l 904 0 l 103 0 l 103 54 l 803 1038 l 357 1038 l 181 781 l 146 790 l 146 1117 l 215 1092 l 988 1092 l 988 1038 l 289 54 l 744 54 m 561 1535 q 624 1506 600 1535 q 649 1433 649 1476 q 631 1376 649 1403 q 587 1333 614 1349 q 535 1317 560 1317 q 472 1347 497 1317 q 447 1419 447 1376 q 465 1476 447 1450 q 509 1519 482 1503 q 561 1535 536 1535 z "},"a":{"ha":850,"x_min":88,"x_max":813,"o":"m 788 0 l 535 0 l 535 121 l 378 -3 q 308 -14 350 -14 q 140 44 192 -14 q 88 185 88 103 q 124 283 88 235 q 228 374 160 331 l 535 374 l 535 475 q 485 606 535 568 q 350 643 436 643 q 147 533 265 643 l 106 581 l 307 740 q 435 750 361 750 q 621 690 554 750 q 688 515 688 629 l 688 97 l 813 49 l 788 0 m 347 90 q 535 172 435 90 l 535 324 l 285 324 q 256 276 264 300 q 249 224 249 253 q 276 130 249 169 q 347 90 303 90 z "},"á":{"ha":850,"x_min":88,"x_max":813,"o":"m 788 0 l 535 0 l 535 121 l 378 -3 q 308 -14 350 -14 q 140 44 192 -14 q 88 185 88 103 q 124 283 88 235 q 228 374 160 331 l 535 374 l 535 475 q 485 606 535 568 q 350 643 436 643 q 147 533 265 643 l 106 581 l 307 740 q 435 750 361 750 q 621 690 554 750 q 688 515 688 629 l 688 97 l 813 49 l 788 0 m 347 90 q 535 172 435 90 l 535 324 l 285 324 q 256 276 264 300 q 249 224 249 253 q 276 130 249 169 q 347 90 303 90 m 681 1186 l 386 940 l 335 967 l 483 1239 l 656 1213 l 681 1186 z "},"ă":{"ha":850,"x_min":88,"x_max":813,"o":"m 788 0 l 535 0 l 535 121 l 378 -3 q 308 -14 350 -14 q 140 44 192 -14 q 88 185 88 103 q 124 283 88 235 q 228 374 160 331 l 535 374 l 535 475 q 485 606 535 568 q 350 643 436 643 q 147 533 265 643 l 106 581 l 307 740 q 435 750 361 750 q 621 690 554 750 q 688 515 688 629 l 688 97 l 813 49 l 788 0 m 347 90 q 535 172 435 90 l 535 324 l 285 324 q 256 276 264 300 q 249 224 249 253 q 276 130 249 169 q 347 90 303 90 m 686 1210 q 645 1110 689 1164 q 534 1018 601 1056 q 403 981 467 981 q 252 1012 325 981 q 144 1113 179 1043 l 265 1210 q 347 1085 304 1119 q 435 1050 389 1050 q 511 1074 482 1050 q 539 1132 540 1099 l 686 1210 z "},"â":{"ha":850,"x_min":88,"x_max":813,"o":"m 788 0 l 535 0 l 535 121 l 378 -3 q 308 -14 350 -14 q 140 44 192 -14 q 88 185 88 103 q 124 283 88 235 q 228 374 160 331 l 535 374 l 535 475 q 485 606 535 568 q 350 643 436 643 q 147 533 265 643 l 106 581 l 307 740 q 435 750 361 750 q 621 690 554 750 q 688 515 688 629 l 688 97 l 813 49 l 788 0 m 347 90 q 535 172 435 90 l 535 324 l 285 324 q 256 276 264 300 q 249 224 249 253 q 276 130 249 169 q 347 90 303 90 m 689 944 l 532 918 l 358 1107 l 146 932 l 107 979 l 408 1225 l 714 971 l 689 944 z "},"ä":{"ha":850,"x_min":88,"x_max":813,"o":"m 214 963 q 156 990 179 963 q 133 1060 133 1018 q 150 1115 133 1089 q 191 1156 167 1140 q 238 1171 215 1171 q 294 1144 272 1171 q 317 1075 317 1117 q 301 1019 317 1046 q 260 978 285 993 q 214 963 236 963 m 582 963 q 524 990 547 963 q 501 1060 501 1018 q 518 1115 501 1089 q 559 1156 535 1140 q 606 1171 583 1171 q 663 1144 640 1171 q 685 1075 685 1117 q 669 1019 685 1046 q 628 978 653 993 q 582 963 604 963 m 788 0 l 535 0 l 535 121 l 378 -3 q 308 -14 350 -14 q 140 44 192 -14 q 88 185 88 103 q 124 283 88 235 q 228 374 160 331 l 535 374 l 535 475 q 485 606 535 568 q 350 643 436 643 q 147 533 265 643 l 106 581 l 307 740 q 435 750 361 750 q 621 690 554 750 q 688 515 688 629 l 688 97 l 813 49 l 788 0 m 347 90 q 535 172 435 90 l 535 324 l 285 324 q 256 276 264 300 q 249 224 249 253 q 276 130 249 169 q 347 90 303 90 z "},"à":{"ha":850,"x_min":88,"x_max":813,"o":"m 788 0 l 535 0 l 535 121 l 378 -3 q 308 -14 350 -14 q 140 44 192 -14 q 88 185 88 103 q 124 283 88 235 q 228 374 160 331 l 535 374 l 535 475 q 485 606 535 568 q 350 643 436 643 q 147 533 265 643 l 106 581 l 307 740 q 435 750 361 750 q 621 690 554 750 q 688 515 688 629 l 688 97 l 813 49 l 788 0 m 347 90 q 535 172 435 90 l 535 324 l 285 324 q 256 276 264 300 q 249 224 249 253 q 276 130 249 169 q 347 90 303 90 m 439 940 l 143 1186 l 168 1213 l 340 1239 l 489 967 l 439 940 z "},"ā":{"ha":850,"x_min":88,"x_max":813,"o":"m 788 0 l 535 0 l 535 121 l 378 -3 q 308 -14 350 -14 q 140 44 192 -14 q 88 185 88 103 q 124 283 88 235 q 228 374 160 331 l 535 374 l 535 475 q 485 606 535 568 q 350 643 436 643 q 147 533 265 643 l 106 581 l 307 740 q 435 750 361 750 q 621 690 554 750 q 688 515 688 629 l 688 97 l 813 49 l 788 0 m 347 90 q 535 172 435 90 l 535 324 l 285 324 q 256 276 264 300 q 249 224 249 253 q 276 130 249 169 q 347 90 303 90 m 128 1100 l 694 1100 l 694 1043 l 128 1043 l 128 1100 z "},"ą":{"ha":850,"x_min":88,"x_max":813,"o":"m 789 0 q 692 -96 721 -57 q 663 -167 663 -135 q 678 -207 663 -192 q 726 -228 693 -222 l 726 -274 l 610 -367 q 528 -306 554 -343 q 501 -212 501 -268 q 513 -157 501 -182 l 711 0 l 535 0 l 535 121 l 378 -3 q 308 -14 350 -14 q 140 44 192 -14 q 88 185 88 103 q 124 283 88 235 q 228 374 160 331 l 535 374 l 535 475 q 485 606 535 568 q 350 643 436 643 q 147 533 265 643 l 106 581 l 307 740 q 435 750 361 750 q 621 690 554 750 q 688 515 688 629 l 688 97 l 813 49 l 788 1 l 789 0 m 347 90 q 535 172 435 90 l 535 324 l 285 324 q 256 276 264 300 q 249 224 249 253 q 276 130 249 169 q 347 90 303 90 z "},"å":{"ha":850,"x_min":88,"x_max":813,"o":"m 788 0 l 535 0 l 535 121 l 378 -3 q 308 -14 350 -14 q 140 44 192 -14 q 88 185 88 103 q 124 283 88 235 q 228 374 160 331 l 535 374 l 535 475 q 485 606 535 568 q 350 643 436 643 q 147 533 265 643 l 106 581 l 307 740 q 435 750 361 750 q 621 690 554 750 q 688 515 688 629 l 688 97 l 813 49 l 788 0 m 347 90 q 535 172 435 90 l 535 324 l 285 324 q 256 276 264 300 q 249 224 249 253 q 276 130 249 169 q 347 90 303 90 m 460 1225 q 564 1185 522 1225 q 606 1090 606 1146 q 568 1001 606 1043 q 474 933 531 958 q 361 907 417 907 q 258 947 300 907 q 215 1042 215 986 q 253 1131 215 1089 q 347 1199 290 1174 q 460 1225 404 1225 m 379 1169 q 303 1110 303 1169 q 339 1005 303 1046 q 442 964 375 964 q 499 979 479 964 q 519 1024 519 994 q 483 1128 519 1088 q 379 1169 446 1169 z "},"ã":{"ha":850,"x_min":88,"x_max":813,"o":"m 788 0 l 535 0 l 535 121 l 378 -3 q 308 -14 350 -14 q 140 44 192 -14 q 88 185 88 103 q 124 283 88 235 q 228 374 160 331 l 535 374 l 535 475 q 485 606 535 568 q 350 643 436 643 q 147 533 265 643 l 106 581 l 307 740 q 435 750 361 750 q 621 690 554 750 q 688 515 688 629 l 688 97 l 813 49 l 788 0 m 347 90 q 535 172 435 90 l 535 324 l 285 324 q 256 276 264 300 q 249 224 249 253 q 276 130 249 169 q 347 90 303 90 m 332 1221 q 525 1119 432 1119 q 615 1150 575 1119 l 658 1185 l 697 1138 l 490 967 q 299 1067 393 1067 q 203 1033 246 1067 l 163 1003 l 124 1050 l 332 1221 z "},"æ":{"ha":1264,"x_min":86,"x_max":1161,"o":"m 893 93 q 1117 219 975 93 l 1158 172 l 936 -6 q 813 -15 883 -15 q 676 24 739 -15 q 574 131 614 63 l 414 -4 q 307 -15 371 -15 q 138 43 190 -15 q 86 183 86 101 q 226 369 86 283 l 521 369 l 521 374 l 521 475 q 476 606 521 568 q 350 643 431 643 q 146 533 265 643 l 104 581 l 306 740 q 435 750 361 750 q 571 719 515 750 q 653 631 626 689 q 782 718 711 686 q 918 750 853 750 q 1097 647 1033 750 q 1161 378 1161 544 l 689 378 q 749 175 696 256 q 894 94 803 94 l 893 93 m 839 640 q 689 426 696 640 l 983 426 q 960 549 971 510 q 922 614 950 588 q 838 640 893 640 l 839 640 m 361 93 q 443 113 399 93 q 547 190 488 133 q 521 322 522 254 l 285 322 q 256 275 264 299 q 249 222 249 251 q 279 131 249 169 q 361 93 310 93 z "},"b":{"ha":972,"x_min":39,"x_max":874,"o":"m 617 751 q 748 703 689 751 q 840 574 807 656 q 874 393 874 492 q 810 192 874 286 q 649 43 746 99 q 463 -12 553 -12 q 354 13 404 -12 q 267 86 304 39 l 208 0 l 163 0 l 163 1004 l 39 1092 l 39 1128 l 269 1213 l 315 1213 l 315 588 l 507 739 q 615 750 551 750 l 617 751 m 542 94 q 665 153 624 94 q 706 325 706 211 q 664 551 706 458 q 547 643 622 643 q 442 622 493 643 q 317 531 392 600 l 317 281 q 375 149 317 201 q 543 96 433 96 l 542 94 z "},"c":{"ha":844,"x_min":101,"x_max":754,"o":"m 485 750 q 613 734 540 750 q 719 699 686 718 l 719 493 l 674 493 q 547 602 618 563 q 401 642 476 642 q 268 410 268 642 q 326 185 268 275 q 494 94 385 94 q 713 213 572 94 l 754 165 l 536 -4 q 414 -14 485 -14 q 253 33 325 -14 q 142 163 182 81 q 101 343 101 244 q 160 544 101 450 q 310 694 219 639 q 485 750 400 750 z "},"ć":{"ha":844,"x_min":101,"x_max":754,"o":"m 485 750 q 613 734 540 750 q 719 699 686 718 l 719 493 l 674 493 q 547 602 618 563 q 401 642 476 642 q 268 410 268 642 q 326 185 268 275 q 494 94 385 94 q 713 213 572 94 l 754 165 l 536 -4 q 414 -14 485 -14 q 253 33 325 -14 q 142 163 182 81 q 101 343 101 244 q 160 544 101 450 q 310 694 219 639 q 485 750 400 750 m 707 1186 l 413 940 l 361 967 l 510 1239 l 682 1213 l 707 1186 z "},"č":{"ha":844,"x_min":101,"x_max":754,"o":"m 485 750 q 613 734 540 750 q 719 699 686 718 l 719 493 l 674 493 q 547 602 618 563 q 401 642 476 642 q 268 410 268 642 q 326 185 268 275 q 494 94 385 94 q 713 213 572 94 l 754 165 l 536 -4 q 414 -14 485 -14 q 253 33 325 -14 q 142 163 182 81 q 101 343 101 244 q 160 544 101 450 q 310 694 219 639 q 485 750 400 750 m 440 932 l 135 1186 l 160 1213 l 317 1239 l 490 1050 l 703 1225 l 742 1178 l 440 932 z "},"ç":{"ha":844,"x_min":101,"x_max":754,"o":"m 610 50 q 465 -62 517 -21 q 555 -151 531 -117 q 579 -226 579 -186 q 516 -326 579 -292 q 319 -367 453 -360 l 319 -331 q 456 -201 456 -286 q 435 -145 456 -171 q 364 -90 414 -119 l 460 -12 q 414 -14 443 -14 q 253 33 325 -14 q 142 163 182 81 q 101 343 101 244 q 160 544 101 450 q 310 694 219 639 q 485 750 400 750 q 613 734 540 750 q 719 699 686 718 l 719 493 l 674 493 q 547 602 618 563 q 401 642 476 642 q 268 410 268 642 q 326 185 268 275 q 494 94 385 94 q 713 213 572 94 l 754 165 l 607 50 l 610 50 z "},"ċ":{"ha":844,"x_min":101,"x_max":754,"o":"m 485 750 q 613 734 540 750 q 719 699 686 718 l 719 493 l 674 493 q 547 602 618 563 q 401 642 476 642 q 268 410 268 642 q 326 185 268 275 q 494 94 385 94 q 713 213 572 94 l 754 165 l 536 -4 q 414 -14 485 -14 q 253 33 325 -14 q 142 163 182 81 q 101 343 101 244 q 160 544 101 450 q 310 694 219 639 q 485 750 400 750 m 450 1178 q 513 1149 489 1178 q 538 1076 538 1119 q 520 1019 538 1046 q 476 976 503 992 q 424 960 449 960 q 361 990 386 960 q 336 1063 336 1019 q 353 1119 336 1093 q 398 1162 371 1146 q 450 1178 425 1178 z "},"d":{"ha":972,"x_min":101,"x_max":935,"o":"m 910 0 l 657 0 l 657 100 l 528 -3 q 421 -14 483 -14 q 256 33 329 -14 q 142 163 183 81 q 101 343 101 244 q 165 544 101 450 q 326 694 229 639 q 513 750 422 750 q 657 703 593 750 l 657 1004 l 533 1092 l 533 1128 l 764 1213 l 810 1213 l 810 99 l 935 49 l 910 0 m 486 92 q 568 104 529 92 q 657 153 607 117 l 657 479 q 590 596 649 550 q 432 642 532 642 q 268 410 268 642 q 325 183 268 275 q 488 90 382 90 l 486 92 z "},"ð":{"ha":932,"x_min":93,"x_max":828,"o":"m 556 1039 q 753 772 679 922 q 828 476 828 622 q 771 235 828 349 q 619 54 714 122 q 418 -14 525 -14 q 260 33 331 -14 q 148 161 189 79 q 107 343 107 243 q 167 536 107 442 q 322 690 226 631 q 517 750 418 750 q 578 746 544 750 q 415 954 515 863 l 178 807 l 147 857 l 368 993 q 93 1132 242 1092 l 93 1168 l 240 1226 q 508 1081 382 1186 l 744 1226 l 776 1176 l 554 1040 l 556 1039 m 497 94 q 626 168 585 94 q 668 397 668 242 q 625 640 668 519 l 436 640 q 272 408 272 640 q 301 242 272 314 q 380 132 329 171 q 499 93 431 93 l 497 94 z "},"ď":{"ha":972,"x_min":101,"x_max":1132,"o":"m 910 0 l 657 0 l 657 100 l 528 -3 q 421 -14 483 -14 q 256 33 329 -14 q 142 163 183 81 q 101 343 101 244 q 165 544 101 450 q 326 694 229 639 q 513 750 422 750 q 657 703 593 750 l 657 1004 l 533 1092 l 533 1128 l 764 1213 l 810 1213 l 810 99 l 935 49 l 910 0 m 486 92 q 568 104 529 92 q 657 153 607 117 l 657 479 q 590 596 649 550 q 432 642 532 642 q 268 410 268 642 q 325 183 268 275 q 488 90 382 90 l 486 92 m 1132 1011 l 964 793 l 918 829 q 972 938 953 882 q 990 1040 990 993 q 988 1074 990 1054 l 938 1119 l 938 1156 l 1086 1213 l 1132 1213 l 1132 1011 z "},"đ":{"ha":972,"x_min":101,"x_max":972,"o":"m 810 99 l 935 49 l 910 0 l 657 0 l 657 100 l 528 -3 q 421 -14 483 -14 q 256 33 329 -14 q 142 163 183 81 q 101 343 101 244 q 165 544 101 450 q 326 694 229 639 q 513 750 422 750 q 657 703 593 750 l 657 943 l 406 943 l 406 993 l 657 993 l 657 1201 l 764 1240 l 810 1240 l 810 993 l 972 993 l 972 943 l 810 943 l 810 99 m 486 92 q 568 104 529 92 q 657 153 607 117 l 657 479 q 590 596 649 550 q 432 642 532 642 q 268 410 268 642 q 325 183 268 275 q 488 90 382 90 l 486 92 z "},"e":{"ha":889,"x_min":101,"x_max":788,"o":"m 535 -4 q 414 -14 483 -14 q 253 33 325 -14 q 142 163 182 81 q 101 343 101 244 q 165 544 101 450 q 326 694 229 639 q 513 750 422 750 q 712 647 640 750 q 785 378 783 544 l 269 378 q 334 174 276 254 q 494 94 392 94 q 746 243 585 94 l 788 194 l 535 -4 m 432 642 q 269 428 276 642 l 606 428 q 578 548 592 507 q 531 615 565 589 q 431 642 497 642 l 432 642 z "},"é":{"ha":889,"x_min":101,"x_max":788,"o":"m 535 -4 q 414 -14 483 -14 q 253 33 325 -14 q 142 163 182 81 q 101 343 101 244 q 165 544 101 450 q 326 694 229 639 q 513 750 422 750 q 712 647 640 750 q 785 378 783 544 l 269 378 q 334 174 276 254 q 494 94 392 94 q 746 243 585 94 l 788 194 l 535 -4 m 432 642 q 269 428 276 642 l 606 428 q 578 548 592 507 q 531 615 565 589 q 431 642 497 642 l 432 642 m 714 1186 l 419 940 l 368 967 l 517 1239 l 689 1213 l 714 1186 z "},"ě":{"ha":889,"x_min":101,"x_max":788,"o":"m 535 -4 q 414 -14 483 -14 q 253 33 325 -14 q 142 163 182 81 q 101 343 101 244 q 165 544 101 450 q 326 694 229 639 q 513 750 422 750 q 712 647 640 750 q 785 378 783 544 l 269 378 q 334 174 276 254 q 494 94 392 94 q 746 243 585 94 l 788 194 l 535 -4 m 432 642 q 269 428 276 642 l 606 428 q 578 548 592 507 q 531 615 565 589 q 431 642 497 642 l 432 642 m 447 932 l 142 1186 l 167 1213 l 324 1239 l 497 1050 l 710 1225 l 749 1178 l 447 932 z "},"ê":{"ha":889,"x_min":101,"x_max":788,"o":"m 535 -4 q 414 -14 483 -14 q 253 33 325 -14 q 142 163 182 81 q 101 343 101 244 q 165 544 101 450 q 326 694 229 639 q 513 750 422 750 q 712 647 640 750 q 785 378 783 544 l 269 378 q 334 174 276 254 q 494 94 392 94 q 746 243 585 94 l 788 194 l 535 -4 m 432 642 q 269 428 276 642 l 606 428 q 578 548 592 507 q 531 615 565 589 q 431 642 497 642 l 432 642 m 722 944 l 565 918 l 392 1107 l 179 932 l 140 979 l 442 1225 l 747 971 l 722 944 z "},"ë":{"ha":889,"x_min":101,"x_max":788,"o":"m 247 963 q 190 990 213 963 q 167 1060 167 1018 q 183 1115 167 1089 q 224 1156 200 1140 q 271 1171 249 1171 q 328 1144 306 1171 q 350 1075 350 1117 q 334 1019 350 1046 q 294 978 318 993 q 247 963 269 963 m 615 963 q 558 990 581 963 q 535 1060 535 1018 q 551 1115 535 1089 q 592 1156 568 1140 q 639 1171 617 1171 q 696 1144 674 1171 q 718 1075 718 1117 q 702 1019 718 1046 q 662 978 686 993 q 615 963 638 963 m 535 -4 q 414 -14 483 -14 q 253 33 325 -14 q 142 163 182 81 q 101 343 101 244 q 165 544 101 450 q 326 694 229 639 q 513 750 422 750 q 712 647 640 750 q 785 378 783 544 l 269 378 q 334 174 276 254 q 494 94 392 94 q 746 243 585 94 l 788 194 l 535 -4 m 432 642 q 269 428 276 642 l 606 428 q 578 548 592 507 q 531 615 565 589 q 431 642 497 642 l 432 642 z "},"ė":{"ha":889,"x_min":101,"x_max":788,"o":"m 535 -4 q 414 -14 483 -14 q 253 33 325 -14 q 142 163 182 81 q 101 343 101 244 q 165 544 101 450 q 326 694 229 639 q 513 750 422 750 q 712 647 640 750 q 785 378 783 544 l 269 378 q 334 174 276 254 q 494 94 392 94 q 746 243 585 94 l 788 194 l 535 -4 m 432 642 q 269 428 276 642 l 606 428 q 578 548 592 507 q 531 615 565 589 q 431 642 497 642 l 432 642 m 457 1178 q 520 1149 496 1178 q 544 1076 544 1119 q 527 1019 544 1046 q 483 976 510 992 q 431 960 456 960 q 368 990 393 960 q 343 1063 343 1019 q 360 1119 343 1093 q 405 1162 378 1146 q 457 1178 432 1178 z "},"è":{"ha":889,"x_min":101,"x_max":788,"o":"m 535 -4 q 414 -14 483 -14 q 253 33 325 -14 q 142 163 182 81 q 101 343 101 244 q 165 544 101 450 q 326 694 229 639 q 513 750 422 750 q 712 647 640 750 q 785 378 783 544 l 269 378 q 334 174 276 254 q 494 94 392 94 q 746 243 585 94 l 788 194 l 535 -4 m 432 642 q 269 428 276 642 l 606 428 q 578 548 592 507 q 531 615 565 589 q 431 642 497 642 l 432 642 m 472 940 l 176 1186 l 201 1213 l 374 1239 l 522 967 l 472 940 z "},"ē":{"ha":889,"x_min":101,"x_max":788,"o":"m 535 -4 q 414 -14 483 -14 q 253 33 325 -14 q 142 163 182 81 q 101 343 101 244 q 165 544 101 450 q 326 694 229 639 q 513 750 422 750 q 712 647 640 750 q 785 378 783 544 l 269 378 q 334 174 276 254 q 494 94 392 94 q 746 243 585 94 l 788 194 l 535 -4 m 432 642 q 269 428 276 642 l 606 428 q 578 548 592 507 q 531 615 565 589 q 431 642 497 642 l 432 642 m 161 1100 l 728 1100 l 728 1043 l 161 1043 l 161 1100 z "},"ę":{"ha":889,"x_min":101,"x_max":788,"o":"m 536 -4 q 458 -94 478 -57 q 438 -167 438 -132 q 451 -207 438 -192 q 496 -228 465 -222 l 496 -274 l 379 -367 q 323 -314 343 -349 q 303 -235 303 -279 q 314 -157 303 -187 l 461 -12 q 414 -14 444 -14 q 253 33 325 -14 q 142 163 182 81 q 101 343 101 244 q 165 544 101 450 q 326 694 229 639 q 513 750 422 750 q 712 647 640 750 q 785 378 783 544 l 269 378 q 334 174 276 254 q 494 94 392 94 q 746 243 585 94 l 788 194 l 536 -4 m 432 642 q 269 428 276 642 l 606 428 q 578 548 592 507 q 531 615 565 589 q 431 642 497 642 l 432 642 z "},"f":{"ha":596,"x_min":35,"x_max":722,"o":"m 574 1226 q 656 1220 610 1226 q 722 1207 703 1214 l 722 1000 l 676 1000 q 592 1086 642 1054 q 490 1118 542 1118 q 357 883 357 1118 l 357 694 l 610 694 l 610 644 l 357 644 l 357 108 l 547 49 l 524 0 l 81 0 l 81 36 l 204 132 l 204 644 l 35 644 l 35 694 l 204 694 l 204 821 q 261 1022 204 928 q 405 1171 318 1115 q 574 1226 492 1226 z "},"g":{"ha":889,"x_min":88,"x_max":840,"o":"m 671 646 q 714 514 714 588 q 679 392 714 451 q 586 288 644 333 q 458 224 528 243 q 422 146 422 188 q 458 103 422 122 q 571 53 493 83 q 725 -18 672 14 q 778 -97 778 -50 q 724 -204 778 -139 q 592 -317 671 -269 q 442 -365 514 -365 q 261 -339 365 -365 q 88 -286 157 -312 l 88 -79 l 133 -79 q 297 -226 214 -176 q 483 -276 379 -276 q 554 -260 522 -276 q 604 -219 586 -244 q 622 -172 622 -194 q 576 -106 622 -135 q 439 -39 529 -76 q 308 23 350 -3 q 265 83 265 49 q 308 151 265 117 q 410 213 351 186 q 364 208 388 208 q 233 240 293 208 q 140 326 174 272 q 106 444 106 381 q 157 592 106 521 q 290 706 208 663 q 458 750 372 750 q 624 694 553 750 l 840 694 l 839 646 l 671 646 m 442 318 q 576 449 576 318 q 521 589 576 535 q 375 643 465 643 q 276 611 310 643 q 242 514 242 579 q 297 372 242 426 q 442 318 353 318 z "},"ğ":{"ha":889,"x_min":88,"x_max":840,"o":"m 671 646 q 714 514 714 588 q 679 392 714 451 q 586 288 644 333 q 458 224 528 243 q 422 146 422 188 q 458 103 422 122 q 571 53 493 83 q 725 -18 672 14 q 778 -97 778 -50 q 724 -204 778 -139 q 592 -317 671 -269 q 442 -365 514 -365 q 261 -339 365 -365 q 88 -286 157 -312 l 88 -79 l 133 -79 q 297 -226 214 -176 q 483 -276 379 -276 q 554 -260 522 -276 q 604 -219 586 -244 q 622 -172 622 -194 q 576 -106 622 -135 q 439 -39 529 -76 q 308 23 350 -3 q 265 83 265 49 q 308 151 265 117 q 410 213 351 186 q 364 208 388 208 q 233 240 293 208 q 140 326 174 272 q 106 444 106 381 q 157 592 106 521 q 290 706 208 663 q 458 750 372 750 q 624 694 553 750 l 840 694 l 839 646 l 671 646 m 442 318 q 576 449 576 318 q 521 589 576 535 q 375 643 465 643 q 276 611 310 643 q 242 514 242 579 q 297 372 242 426 q 442 318 353 318 m 699 1210 q 658 1110 701 1164 q 547 1018 614 1056 q 415 981 479 981 q 265 1012 338 981 q 157 1113 192 1043 l 278 1210 q 359 1085 317 1119 q 447 1050 401 1050 q 524 1074 494 1050 q 551 1132 553 1099 l 699 1210 z "},"ģ":{"ha":889,"x_min":88,"x_max":840,"o":"m 671 646 q 714 514 714 588 q 679 392 714 451 q 586 288 644 333 q 458 224 528 243 q 422 146 422 188 q 458 103 422 122 q 571 53 493 83 q 725 -18 672 14 q 778 -97 778 -50 q 724 -204 778 -139 q 592 -317 671 -269 q 442 -365 514 -365 q 261 -339 365 -365 q 88 -286 157 -312 l 88 -79 l 133 -79 q 297 -226 214 -176 q 483 -276 379 -276 q 554 -260 522 -276 q 604 -219 586 -244 q 622 -172 622 -194 q 576 -106 622 -135 q 439 -39 529 -76 q 308 23 350 -3 q 265 83 265 49 q 308 151 265 117 q 410 213 351 186 q 364 208 388 208 q 233 240 293 208 q 140 326 174 272 q 106 444 106 381 q 157 592 106 521 q 290 706 208 663 q 458 750 372 750 q 624 694 553 750 l 840 694 l 839 646 l 671 646 m 442 318 q 576 449 576 318 q 521 589 576 535 q 375 643 465 643 q 276 611 310 643 q 242 514 242 579 q 297 372 242 426 q 442 318 353 318 m 276 1011 l 453 1282 l 497 1282 l 463 1104 l 567 1024 l 543 975 l 276 975 l 276 1011 z "},"ġ":{"ha":889,"x_min":88,"x_max":840,"o":"m 671 646 q 714 514 714 588 q 679 392 714 451 q 586 288 644 333 q 458 224 528 243 q 422 146 422 188 q 458 103 422 122 q 571 53 493 83 q 725 -18 672 14 q 778 -97 778 -50 q 724 -204 778 -139 q 592 -317 671 -269 q 442 -365 514 -365 q 261 -339 365 -365 q 88 -286 157 -312 l 88 -79 l 133 -79 q 297 -226 214 -176 q 483 -276 379 -276 q 554 -260 522 -276 q 604 -219 586 -244 q 622 -172 622 -194 q 576 -106 622 -135 q 439 -39 529 -76 q 308 23 350 -3 q 265 83 265 49 q 308 151 265 117 q 410 213 351 186 q 364 208 388 208 q 233 240 293 208 q 140 326 174 272 q 106 444 106 381 q 157 592 106 521 q 290 706 208 663 q 458 750 372 750 q 624 694 553 750 l 840 694 l 839 646 l 671 646 m 442 318 q 576 449 576 318 q 521 589 576 535 q 375 643 465 643 q 276 611 310 643 q 242 514 242 579 q 297 372 242 426 q 442 318 353 318 m 436 1178 q 499 1149 475 1178 q 524 1076 524 1119 q 506 1019 524 1046 q 462 976 489 992 q 410 960 435 960 q 347 990 372 960 q 322 1063 322 1019 q 340 1119 322 1093 q 384 1162 357 1146 q 436 1178 411 1178 z "},"h":{"ha":964,"x_min":53,"x_max":926,"o":"m 901 -1 l 649 -1 l 649 472 q 624 582 649 551 q 536 613 599 613 q 441 595 488 613 q 329 525 394 578 l 329 97 l 454 47 l 429 -1 l 53 -1 l 53 35 l 176 131 l 176 1004 l 53 1092 l 53 1128 l 283 1213 l 329 1213 l 329 583 l 526 739 q 600 750 556 750 q 747 692 693 750 q 801 536 801 635 l 801 99 l 926 47 l 901 -1 z "},"ħ":{"ha":964,"x_min":0,"x_max":926,"o":"m 901 0 l 649 0 l 649 474 q 624 583 649 553 q 536 614 599 614 q 441 597 488 614 q 329 526 394 579 l 329 99 l 454 49 l 429 0 l 53 0 l 53 36 l 176 132 l 176 943 l 0 943 l 0 993 l 176 993 l 176 1188 l 283 1240 l 329 1240 l 329 993 l 567 993 l 567 943 l 329 943 l 329 583 l 526 739 q 600 750 556 750 q 747 692 693 750 q 801 536 801 635 l 801 99 l 926 49 l 901 0 z "},"i":{"ha":535,"x_min":81,"x_max":482,"o":"m 457 0 l 81 0 l 81 36 l 204 132 l 204 554 l 81 642 l 81 678 l 311 763 l 357 763 l 357 99 l 482 49 l 457 0 m 274 1178 q 337 1149 313 1178 q 361 1076 361 1119 q 344 1019 361 1046 q 299 976 326 992 q 247 960 272 960 q 185 990 210 960 q 160 1063 160 1019 q 177 1119 160 1093 q 222 1162 194 1146 q 274 1178 249 1178 z "},"ı":{"ha":535,"x_min":81,"x_max":482,"o":"m 457 0 l 81 0 l 81 36 l 204 132 l 204 554 l 81 642 l 81 678 l 311 763 l 357 763 l 357 99 l 482 49 l 457 0 z "},"í":{"ha":535,"x_min":81,"x_max":531,"o":"m 457 0 l 81 0 l 81 36 l 204 132 l 204 554 l 81 642 l 81 678 l 311 763 l 357 763 l 357 99 l 482 49 l 457 0 m 531 1186 l 236 940 l 185 967 l 333 1239 l 506 1213 l 531 1186 z "},"î":{"ha":535,"x_min":-44,"x_max":563,"o":"m 457 0 l 81 0 l 81 36 l 204 132 l 204 554 l 81 642 l 81 678 l 311 763 l 357 763 l 357 99 l 482 49 l 457 0 m 538 944 l 381 918 l 207 1107 l -6 932 l -44 979 l 257 1225 l 563 971 l 538 944 z "},"ï":{"ha":535,"x_min":-17,"x_max":535,"o":"m 167 1075 q 151 1019 167 1046 q 110 978 135 993 q 64 963 86 963 q 6 990 29 963 q -17 1060 -17 1018 q 0 1115 -17 1089 q 41 1156 17 1140 q 88 1171 65 1171 q 144 1144 122 1171 q 167 1075 167 1117 m 456 1171 q 513 1144 490 1171 q 535 1075 535 1117 q 519 1019 535 1046 q 478 978 503 993 q 432 963 454 963 q 374 990 397 963 q 351 1060 351 1018 q 368 1115 351 1089 q 409 1156 385 1140 q 456 1171 433 1171 m 482 49 l 457 0 l 81 0 l 81 36 l 204 132 l 204 554 l 81 642 l 81 678 l 311 763 l 357 763 l 357 99 l 482 49 z "},"ì":{"ha":535,"x_min":-8,"x_max":482,"o":"m 457 0 l 81 0 l 81 36 l 204 132 l 204 554 l 81 642 l 81 678 l 311 763 l 357 763 l 357 99 l 482 49 l 457 0 m 288 940 l -8 1186 l 17 1213 l 189 1239 l 338 967 l 288 940 z "},"ĳ":{"ha":1060,"x_min":81,"x_max":907,"o":"m 786 963 q 724 992 749 963 q 699 1065 699 1022 q 716 1122 699 1096 q 760 1165 733 1149 q 813 1181 788 1181 q 876 1151 851 1181 q 900 1079 900 1122 q 883 1022 900 1049 q 838 978 865 994 q 786 963 811 963 m 247 960 q 185 990 210 960 q 160 1063 160 1019 q 177 1119 160 1093 q 222 1162 194 1146 q 274 1178 249 1178 q 337 1149 313 1178 q 361 1076 361 1119 q 344 1019 361 1046 q 299 976 326 992 q 247 960 272 960 m 482 49 l 457 0 l 81 0 l 81 36 l 204 132 l 204 554 l 81 642 l 81 678 l 311 763 l 357 763 l 357 99 l 482 49 m 894 138 q 898 35 894 82 q 907 -28 901 -11 l 647 -367 l 601 -331 q 713 -162 685 -232 q 742 10 742 -93 l 742 551 l 618 638 l 618 674 l 849 763 l 894 763 l 894 138 z "},"ī":{"ha":535,"x_min":-24,"x_max":543,"o":"m 457 0 l 81 0 l 81 36 l 204 132 l 204 554 l 81 642 l 81 678 l 311 763 l 357 763 l 357 99 l 482 49 l 457 0 m -24 1100 l 543 1100 l 543 1043 l -24 1043 l -24 1100 z "},"į":{"ha":535,"x_min":81,"x_max":482,"o":"m 247 960 q 185 990 210 960 q 160 1063 160 1019 q 177 1119 160 1093 q 222 1162 194 1146 q 274 1178 249 1178 q 337 1149 313 1178 q 361 1076 361 1119 q 344 1019 361 1046 q 299 976 326 992 q 247 960 272 960 m 457 0 q 360 -96 389 -57 q 331 -167 331 -135 q 346 -207 331 -192 q 394 -228 361 -222 l 394 -274 l 278 -367 q 196 -306 222 -343 q 169 -212 169 -268 q 181 -157 169 -182 l 379 0 l 81 0 l 81 36 l 204 132 l 204 554 l 81 642 l 81 678 l 311 763 l 357 763 l 357 99 l 482 49 l 457 0 z "},"j":{"ha":525,"x_min":67,"x_max":372,"o":"m 360 138 q 363 35 360 82 q 372 -28 367 -11 l 113 -367 l 67 -331 q 178 -162 150 -232 q 207 10 207 -93 l 207 551 l 83 638 l 83 674 l 314 763 l 360 763 l 360 138 m 278 1181 q 341 1151 317 1181 q 365 1079 365 1122 q 348 1022 365 1049 q 303 978 331 994 q 251 963 276 963 q 189 992 214 963 q 164 1065 164 1022 q 181 1122 164 1096 q 226 1165 199 1149 q 278 1181 253 1181 z "},"ȷ":{"ha":525,"x_min":67,"x_max":372,"o":"m 360 138 q 363 35 360 82 q 372 -28 367 -11 l 113 -367 l 67 -331 q 178 -162 150 -232 q 207 10 207 -93 l 207 551 l 83 638 l 83 674 l 314 763 l 360 763 l 360 138 z "},"k":{"ha":944,"x_min":53,"x_max":922,"o":"m 454 47 l 429 -1 l 53 -1 l 53 35 l 176 131 l 176 1004 l 53 1092 l 53 1128 l 283 1213 l 329 1213 l 329 97 l 454 47 m 899 0 l 674 0 l 406 365 l 668 589 l 543 688 l 567 736 l 885 736 l 885 700 l 556 421 l 801 94 l 922 49 l 899 0 z "},"ķ":{"ha":944,"x_min":53,"x_max":922,"o":"m 454 47 l 429 -1 l 53 -1 l 53 35 l 176 131 l 176 1004 l 53 1092 l 53 1128 l 283 1213 l 329 1213 l 329 97 l 454 47 m 899 0 l 674 0 l 406 365 l 668 589 l 543 688 l 567 736 l 885 736 l 885 700 l 556 421 l 801 94 l 922 49 l 899 0 m 647 -151 l 471 -422 l 426 -422 l 461 -244 l 357 -164 l 381 -115 l 647 -115 l 647 -151 z "},"l":{"ha":507,"x_min":53,"x_max":454,"o":"m 429 -1 l 53 -1 l 53 35 l 176 131 l 176 1004 l 53 1092 l 53 1128 l 283 1213 l 329 1213 l 329 99 l 454 47 l 429 -1 z "},"ĺ":{"ha":507,"x_min":53,"x_max":517,"o":"m 429 -1 l 53 -1 l 53 35 l 176 131 l 176 1004 l 53 1092 l 53 1128 l 283 1213 l 329 1213 l 329 99 l 454 47 l 429 -1 m 517 1594 l 222 1349 l 171 1375 l 319 1647 l 492 1621 l 517 1594 z "},"ľ":{"ha":507,"x_min":53,"x_max":651,"o":"m 429 -1 l 53 -1 l 53 35 l 176 131 l 176 1004 l 53 1092 l 53 1128 l 283 1213 l 329 1213 l 329 99 l 454 47 l 429 -1 m 651 1011 l 483 793 l 438 829 q 491 938 472 882 q 510 1040 510 993 q 507 1074 510 1054 l 457 1119 l 457 1156 l 606 1213 l 651 1213 l 651 1011 z "},"ļ":{"ha":507,"x_min":53,"x_max":454,"o":"m 429 -1 l 53 -1 l 53 35 l 176 131 l 176 1004 l 53 1092 l 53 1128 l 283 1213 l 329 1213 l 329 99 l 454 47 l 429 -1 m 410 -151 l 233 -422 l 189 -422 l 224 -244 l 119 -164 l 143 -115 l 410 -115 l 410 -151 z "},"ŀ":{"ha":692,"x_min":53,"x_max":693,"o":"m 429 -1 l 53 -1 l 53 35 l 176 131 l 176 1004 l 53 1092 l 53 1128 l 283 1213 l 329 1213 l 329 99 l 454 47 l 429 -1 m 606 683 q 669 654 644 683 q 693 582 693 625 q 676 524 693 551 q 631 481 658 497 q 579 465 604 465 q 517 494 542 465 q 492 567 492 524 q 509 624 492 597 q 553 667 526 651 q 606 683 581 683 z "},"ł":{"ha":492,"x_min":-25,"x_max":517,"o":"m 329 97 l 454 47 l 429 -1 l 53 -1 l 53 35 l 176 131 l 176 575 l -25 363 l -25 435 l 176 656 l 176 1004 l 53 1092 l 53 1128 l 283 1213 l 329 1213 l 329 739 l 517 947 l 517 861 l 329 654 l 329 97 z "},"m":{"ha":1440,"x_min":79,"x_max":1400,"o":"m 1376 0 l 1122 0 l 1122 469 q 1097 582 1122 550 q 1008 614 1072 614 q 919 597 964 614 q 815 528 875 579 l 815 99 l 942 49 l 918 0 l 663 0 l 663 469 q 638 582 663 550 q 549 614 613 614 q 460 597 504 614 q 356 528 415 579 l 356 99 l 482 49 l 457 0 l 79 0 l 79 36 l 203 132 l 203 540 l 79 611 l 79 647 l 306 764 l 349 582 l 536 740 q 613 751 567 751 q 747 707 694 751 q 813 583 800 663 l 999 739 q 1075 750 1028 750 q 1222 692 1168 750 q 1276 536 1276 635 l 1276 99 l 1400 49 l 1376 0 z "},"n":{"ha":992,"x_min":81,"x_max":954,"o":"m 929 -1 l 676 -1 l 676 472 q 651 582 676 551 q 564 613 626 613 q 469 595 515 613 q 357 525 422 578 l 357 97 l 482 47 l 457 -1 l 81 -1 l 81 35 l 204 131 l 204 539 l 81 610 l 81 646 l 307 763 l 351 578 l 554 739 q 628 750 583 750 q 775 692 721 750 q 829 536 829 635 l 829 99 l 954 47 l 929 -1 z "},"ń":{"ha":992,"x_min":81,"x_max":954,"o":"m 929 -1 l 676 -1 l 676 472 q 651 582 676 551 q 564 613 626 613 q 469 595 515 613 q 357 525 422 578 l 357 97 l 482 47 l 457 -1 l 81 -1 l 81 35 l 204 131 l 204 539 l 81 610 l 81 646 l 307 763 l 351 578 l 554 739 q 628 750 583 750 q 775 692 721 750 q 829 536 829 635 l 829 99 l 954 47 l 929 -1 m 753 1186 l 458 940 l 407 967 l 556 1239 l 728 1213 l 753 1186 z "},"ň":{"ha":992,"x_min":81,"x_max":954,"o":"m 929 -1 l 676 -1 l 676 472 q 651 582 676 551 q 564 613 626 613 q 469 595 515 613 q 357 525 422 578 l 357 97 l 482 47 l 457 -1 l 81 -1 l 81 35 l 204 131 l 204 539 l 81 610 l 81 646 l 307 763 l 351 578 l 554 739 q 628 750 583 750 q 775 692 721 750 q 829 536 829 635 l 829 99 l 954 47 l 929 -1 m 486 932 l 181 1186 l 206 1213 l 363 1239 l 536 1050 l 749 1225 l 788 1178 l 486 932 z "},"ņ":{"ha":992,"x_min":81,"x_max":954,"o":"m 929 -1 l 676 -1 l 676 472 q 651 582 676 551 q 564 613 626 613 q 469 595 515 613 q 357 525 422 578 l 357 97 l 482 47 l 457 -1 l 81 -1 l 81 35 l 204 131 l 204 539 l 81 610 l 81 646 l 307 763 l 351 578 l 554 739 q 628 750 583 750 q 775 692 721 750 q 829 536 829 635 l 829 99 l 954 47 l 929 -1 m 701 -151 l 525 -422 l 481 -422 l 515 -244 l 411 -164 l 435 -115 l 701 -115 l 701 -151 z "},"ŋ":{"ha":993,"x_min":81,"x_max":842,"o":"m 829 136 q 833 34 829 81 q 842 -29 836 -12 l 582 -368 l 536 -332 q 648 -164 619 -233 q 676 8 676 -94 l 676 472 q 651 582 676 551 q 564 613 626 613 q 469 595 515 613 q 357 525 422 578 l 357 97 l 482 47 l 457 -1 l 81 -1 l 81 35 l 204 131 l 204 539 l 81 610 l 81 646 l 307 763 l 351 578 l 554 739 q 628 750 583 750 q 775 692 721 750 q 829 536 829 635 l 829 136 z "},"ñ":{"ha":992,"x_min":81,"x_max":954,"o":"m 929 -1 l 676 -1 l 676 472 q 651 582 676 551 q 564 613 626 613 q 469 595 515 613 q 357 525 422 578 l 357 97 l 482 47 l 457 -1 l 81 -1 l 81 35 l 204 131 l 204 539 l 81 610 l 81 646 l 307 763 l 351 578 l 554 739 q 628 750 583 750 q 775 692 721 750 q 829 536 829 635 l 829 99 l 954 47 l 929 -1 m 404 1221 q 597 1119 504 1119 q 688 1150 647 1119 l 731 1185 l 769 1138 l 563 967 q 371 1067 465 1067 q 275 1033 318 1067 l 235 1003 l 196 1050 l 404 1221 z "},"o":{"ha":925,"x_min":101,"x_max":825,"o":"m 513 750 q 674 702 603 750 q 785 572 744 654 q 825 392 825 490 q 761 191 825 285 q 601 42 697 97 q 414 -14 504 -14 q 253 33 325 -14 q 142 163 182 81 q 101 343 101 244 q 165 544 101 450 q 326 694 229 639 q 513 750 422 750 m 432 642 q 267 410 267 642 q 325 185 267 275 q 494 94 383 94 q 658 326 658 94 q 600 551 658 461 q 432 642 542 642 z "},"ó":{"ha":925,"x_min":101,"x_max":825,"o":"m 513 750 q 674 702 603 750 q 785 572 744 654 q 825 392 825 490 q 761 191 825 285 q 601 42 697 97 q 414 -14 504 -14 q 253 33 325 -14 q 142 163 182 81 q 101 343 101 244 q 165 544 101 450 q 326 694 229 639 q 513 750 422 750 m 432 642 q 267 410 267 642 q 325 185 267 275 q 494 94 383 94 q 658 326 658 94 q 600 551 658 461 q 432 642 542 642 m 733 1186 l 439 940 l 388 967 l 536 1239 l 708 1213 l 733 1186 z "},"ô":{"ha":925,"x_min":101,"x_max":825,"o":"m 513 750 q 674 702 603 750 q 785 572 744 654 q 825 392 825 490 q 761 191 825 285 q 601 42 697 97 q 414 -14 504 -14 q 253 33 325 -14 q 142 163 182 81 q 101 343 101 244 q 165 544 101 450 q 326 694 229 639 q 513 750 422 750 m 432 642 q 267 410 267 642 q 325 185 267 275 q 494 94 383 94 q 658 326 658 94 q 600 551 658 461 q 432 642 542 642 m 742 944 l 585 918 l 411 1107 l 199 932 l 160 979 l 461 1225 l 767 971 l 742 944 z "},"ö":{"ha":925,"x_min":101,"x_max":825,"o":"m 290 1171 q 347 1144 325 1171 q 369 1075 369 1117 q 353 1019 369 1046 q 313 978 338 993 q 267 963 289 963 q 209 990 232 963 q 186 1060 186 1018 q 203 1115 186 1089 q 244 1156 219 1140 q 290 1171 268 1171 m 658 1171 q 715 1144 693 1171 q 738 1075 738 1117 q 722 1019 738 1046 q 681 978 706 993 q 635 963 657 963 q 577 990 600 963 q 554 1060 554 1018 q 571 1115 554 1089 q 612 1156 588 1140 q 658 1171 636 1171 m 513 750 q 674 702 603 750 q 785 572 744 654 q 825 392 825 490 q 761 191 825 285 q 601 42 697 97 q 414 -14 504 -14 q 253 33 325 -14 q 142 163 182 81 q 101 343 101 244 q 165 544 101 450 q 326 694 229 639 q 513 750 422 750 m 432 642 q 267 410 267 642 q 325 185 267 275 q 494 94 383 94 q 658 326 658 94 q 600 551 658 461 q 432 642 542 642 z "},"ò":{"ha":925,"x_min":101,"x_max":825,"o":"m 513 750 q 674 702 603 750 q 785 572 744 654 q 825 392 825 490 q 761 191 825 285 q 601 42 697 97 q 414 -14 504 -14 q 253 33 325 -14 q 142 163 182 81 q 101 343 101 244 q 165 544 101 450 q 326 694 229 639 q 513 750 422 750 m 432 642 q 267 410 267 642 q 325 185 267 275 q 494 94 383 94 q 658 326 658 94 q 600 551 658 461 q 432 642 542 642 m 492 940 l 196 1186 l 221 1213 l 393 1239 l 542 967 l 492 940 z "},"ő":{"ha":925,"x_min":101,"x_max":840,"o":"m 513 750 q 674 702 603 750 q 785 572 744 654 q 825 392 825 490 q 761 191 825 285 q 601 42 697 97 q 414 -14 504 -14 q 253 33 325 -14 q 142 163 182 81 q 101 343 101 244 q 165 544 101 450 q 326 694 229 639 q 513 750 422 750 m 432 642 q 267 410 267 642 q 325 185 267 275 q 494 94 383 94 q 658 326 658 94 q 600 551 658 461 q 432 642 542 642 m 504 1186 l 265 940 l 215 967 l 317 1239 l 481 1213 l 504 1186 m 840 1186 l 600 940 l 550 967 l 653 1239 l 815 1213 l 840 1186 z "},"ō":{"ha":925,"x_min":101,"x_max":825,"o":"m 513 750 q 674 702 603 750 q 785 572 744 654 q 825 392 825 490 q 761 191 825 285 q 601 42 697 97 q 414 -14 504 -14 q 253 33 325 -14 q 142 163 182 81 q 101 343 101 244 q 165 544 101 450 q 326 694 229 639 q 513 750 422 750 m 432 642 q 267 410 267 642 q 325 185 267 275 q 494 94 383 94 q 658 326 658 94 q 600 551 658 461 q 432 642 542 642 m 181 1100 l 747 1100 l 747 1043 l 181 1043 l 181 1100 z "},"ø":{"ha":925,"x_min":101,"x_max":825,"o":"m 682 697 q 787 569 749 650 q 825 393 825 489 q 761 192 825 286 q 601 43 697 99 q 414 -12 504 -12 q 288 15 346 -12 l 163 -201 l 118 -175 l 243 42 q 139 169 176 89 q 101 343 101 249 q 165 544 101 450 q 326 694 229 639 q 513 750 422 750 q 638 722 579 750 l 761 938 l 806 913 l 682 697 m 265 410 q 281 285 265 343 q 325 183 296 226 l 563 593 q 432 642 507 642 q 267 410 267 642 l 265 410 m 492 94 q 656 326 656 94 q 640 452 656 393 q 596 554 625 511 l 360 143 q 493 94 415 94 l 492 94 z "},"õ":{"ha":925,"x_min":101,"x_max":825,"o":"m 513 750 q 674 702 603 750 q 785 572 744 654 q 825 392 825 490 q 761 191 825 285 q 601 42 697 97 q 414 -14 504 -14 q 253 33 325 -14 q 142 163 182 81 q 101 343 101 244 q 165 544 101 450 q 326 694 229 639 q 513 750 422 750 m 432 642 q 267 410 267 642 q 325 185 267 275 q 494 94 383 94 q 658 326 658 94 q 600 551 658 461 q 432 642 542 642 m 385 1221 q 578 1119 485 1119 q 668 1150 628 1119 l 711 1185 l 750 1138 l 543 967 q 351 1067 446 1067 q 256 1033 299 1067 l 215 1003 l 176 1050 l 385 1221 z "},"œ":{"ha":1342,"x_min":100,"x_max":1240,"o":"m 971 92 q 1194 218 1053 92 l 1236 171 l 1014 -7 q 890 -17 961 -17 q 758 20 818 -17 q 657 122 697 57 q 525 22 599 58 q 382 -15 451 -15 q 237 32 301 -15 q 136 161 172 79 q 100 342 100 243 q 159 543 100 449 q 307 693 218 638 q 481 749 396 749 q 613 712 553 749 q 713 610 674 675 q 850 713 774 675 q 997 750 926 750 q 1176 647 1113 750 q 1240 378 1240 544 l 769 378 l 769 365 q 831 171 778 247 q 972 94 883 94 l 971 92 m 463 93 q 599 308 594 93 q 597 342 597 319 l 597 358 q 540 560 590 481 q 400 639 489 639 q 265 407 265 639 q 317 183 265 274 q 463 92 368 92 l 463 93 m 917 639 q 810 587 847 639 q 768 435 772 535 l 768 426 l 1061 426 q 1038 549 1049 510 q 999 614 1028 588 q 915 640 971 640 l 917 639 z "},"p":{"ha":1014,"x_min":81,"x_max":914,"o":"m 503 -15 q 357 32 421 -15 l 357 -246 l 547 -306 l 524 -354 l 81 -354 l 81 -318 l 204 -222 l 204 539 l 81 610 l 81 646 l 307 763 l 351 578 l 556 739 q 657 750 600 750 q 788 702 729 750 q 881 572 847 654 q 914 392 914 490 q 850 191 914 285 q 690 42 786 97 q 503 -14 593 -14 l 503 -15 m 588 626 q 483 605 533 626 q 357 514 432 583 l 357 278 q 415 146 357 199 q 583 93 474 93 q 706 151 665 93 q 747 324 747 210 q 706 540 747 451 q 589 628 664 628 l 588 626 z "},"þ":{"ha":985,"x_min":53,"x_max":883,"o":"m 472 -15 q 329 31 394 -15 l 329 -246 l 519 -306 l 496 -354 l 53 -354 l 53 -318 l 176 -222 l 176 1004 l 53 1092 l 53 1128 l 283 1213 l 329 1213 l 329 589 l 519 739 q 626 750 564 750 q 758 702 699 750 q 850 572 817 654 q 883 392 883 490 q 819 191 883 285 q 659 42 756 97 q 472 -14 563 -14 l 472 -15 m 558 643 q 453 622 504 643 q 328 532 403 600 l 328 246 q 398 135 340 178 q 553 93 456 93 q 717 324 717 93 q 676 551 717 458 q 560 643 635 643 l 558 643 z "},"q":{"ha":972,"x_min":101,"x_max":932,"o":"m 908 -353 l 467 -353 l 467 -317 l 657 -212 l 657 100 l 528 -3 q 421 -14 483 -14 q 256 34 329 -14 q 142 164 183 82 q 101 344 101 246 q 167 545 101 451 q 330 694 232 639 q 519 750 428 750 q 616 727 571 750 q 696 663 661 704 l 764 765 l 810 765 l 810 -254 l 932 -304 l 908 -353 m 488 90 q 568 103 529 90 q 657 151 607 115 l 657 479 q 590 596 649 550 q 432 642 532 642 q 268 411 268 642 q 325 183 268 275 q 488 90 382 90 z "},"r":{"ha":707,"x_min":81,"x_max":696,"o":"m 574 749 q 644 725 613 749 q 696 660 676 701 l 611 554 l 565 554 q 545 599 560 585 q 506 613 531 613 q 438 596 472 613 q 357 529 403 579 l 357 107 l 547 47 l 524 -1 l 81 -1 l 81 35 l 204 131 l 204 539 l 81 610 l 81 646 l 307 763 l 349 588 l 496 739 q 575 750 526 750 l 574 749 z "},"ŕ":{"ha":707,"x_min":81,"x_max":696,"o":"m 574 749 q 644 725 613 749 q 696 660 676 701 l 611 554 l 565 554 q 545 599 560 585 q 506 613 531 613 q 438 596 472 613 q 357 529 403 579 l 357 107 l 547 47 l 524 -1 l 81 -1 l 81 35 l 204 131 l 204 539 l 81 610 l 81 646 l 307 763 l 349 588 l 496 739 q 575 750 526 750 l 574 749 m 635 1186 l 340 940 l 289 967 l 438 1239 l 610 1213 l 635 1186 z "},"ř":{"ha":707,"x_min":61,"x_max":696,"o":"m 574 749 q 644 725 613 749 q 696 660 676 701 l 611 554 l 565 554 q 545 599 560 585 q 506 613 531 613 q 438 596 472 613 q 357 529 403 579 l 357 107 l 547 47 l 524 -1 l 81 -1 l 81 35 l 204 131 l 204 539 l 81 610 l 81 646 l 307 763 l 349 588 l 496 739 q 575 750 526 750 l 574 749 m 367 932 l 61 1186 l 86 1213 l 243 1239 l 417 1050 l 629 1225 l 668 1178 l 367 932 z "},"ŗ":{"ha":707,"x_min":81,"x_max":696,"o":"m 574 749 q 644 725 613 749 q 696 660 676 701 l 611 554 l 565 554 q 545 599 560 585 q 506 613 531 613 q 438 596 472 613 q 357 529 403 579 l 357 107 l 547 47 l 524 -1 l 81 -1 l 81 35 l 204 131 l 204 539 l 81 610 l 81 646 l 307 763 l 349 588 l 496 739 q 575 750 526 750 l 574 749 m 449 -151 l 272 -422 l 228 -422 l 263 -244 l 158 -164 l 182 -115 l 449 -115 l 449 -151 z "},"s":{"ha":776,"x_min":125,"x_max":674,"o":"m 536 144 q 492 219 536 186 q 356 300 449 251 q 190 400 247 354 q 133 508 133 446 q 174 615 133 558 q 274 711 215 672 q 385 750 333 750 q 528 734 446 750 q 647 699 610 718 l 647 488 l 601 488 q 495 626 554 576 q 374 676 436 676 q 299 651 326 676 q 271 590 271 626 q 316 510 271 544 q 457 428 361 476 q 571 366 528 392 q 644 306 614 340 q 674 228 674 271 q 631 120 674 176 q 526 25 588 64 q 414 -14 465 -14 q 256 3 347 -14 q 125 38 164 19 l 125 246 l 171 246 q 288 108 219 157 q 426 60 357 60 q 506 85 475 60 q 536 144 536 110 z "},"ś":{"ha":776,"x_min":125,"x_max":674,"o":"m 536 144 q 492 219 536 186 q 356 300 449 251 q 190 400 247 354 q 133 508 133 446 q 174 615 133 558 q 274 711 215 672 q 385 750 333 750 q 528 734 446 750 q 647 699 610 718 l 647 488 l 601 488 q 495 626 554 576 q 374 676 436 676 q 299 651 326 676 q 271 590 271 626 q 316 510 271 544 q 457 428 361 476 q 571 366 528 392 q 644 306 614 340 q 674 228 674 271 q 631 120 674 176 q 526 25 588 64 q 414 -14 465 -14 q 256 3 347 -14 q 125 38 164 19 l 125 246 l 171 246 q 288 108 219 157 q 426 60 357 60 q 506 85 475 60 q 536 144 536 110 m 672 1186 l 378 940 l 326 967 l 475 1239 l 647 1213 l 672 1186 z "},"š":{"ha":776,"x_min":100,"x_max":707,"o":"m 536 144 q 492 219 536 186 q 356 300 449 251 q 190 400 247 354 q 133 508 133 446 q 174 615 133 558 q 274 711 215 672 q 385 750 333 750 q 528 734 446 750 q 647 699 610 718 l 647 488 l 601 488 q 495 626 554 576 q 374 676 436 676 q 299 651 326 676 q 271 590 271 626 q 316 510 271 544 q 457 428 361 476 q 571 366 528 392 q 644 306 614 340 q 674 228 674 271 q 631 120 674 176 q 526 25 588 64 q 414 -14 465 -14 q 256 3 347 -14 q 125 38 164 19 l 125 246 l 171 246 q 288 108 219 157 q 426 60 357 60 q 506 85 475 60 q 536 144 536 110 m 406 932 l 100 1186 l 125 1213 l 282 1239 l 456 1050 l 668 1225 l 707 1178 l 406 932 z "},"ş":{"ha":776,"x_min":125,"x_max":675,"o":"m 675 231 q 625 113 675 175 q 508 17 575 51 q 413 -61 454 -26 q 502 -150 478 -115 q 526 -225 526 -185 q 463 -324 526 -290 q 267 -365 400 -358 l 267 -329 q 403 -200 403 -285 q 382 -144 403 -169 q 311 -89 361 -118 l 406 -12 q 250 4 338 -11 q 125 38 163 19 l 125 246 l 171 246 q 288 108 219 157 q 426 60 357 60 q 506 85 475 60 q 536 144 536 110 q 492 219 536 186 q 356 300 449 251 q 190 400 247 354 q 133 508 133 446 q 174 615 133 558 q 274 711 215 672 q 385 750 333 750 q 528 734 446 750 q 647 699 610 718 l 647 488 l 601 488 q 495 626 554 576 q 374 676 436 676 q 299 651 326 676 q 271 590 271 626 q 316 510 271 544 q 457 428 361 476 q 571 366 528 392 q 644 306 614 340 q 674 228 674 271 l 675 231 z "},"ș":{"ha":776,"x_min":125,"x_max":674,"o":"m 536 144 q 492 219 536 186 q 356 300 449 251 q 190 400 247 354 q 133 508 133 446 q 174 615 133 558 q 274 711 215 672 q 385 750 333 750 q 528 734 446 750 q 647 699 610 718 l 647 488 l 601 488 q 495 626 554 576 q 374 676 436 676 q 299 651 326 676 q 271 590 271 626 q 316 510 271 544 q 457 428 361 476 q 571 366 528 392 q 644 306 614 340 q 674 228 674 271 q 631 120 674 176 q 526 25 588 64 q 414 -14 465 -14 q 256 3 347 -14 q 125 38 164 19 l 125 246 l 171 246 q 288 108 219 157 q 426 60 357 60 q 506 85 475 60 q 536 144 536 110 m 543 -151 l 367 -422 l 322 -422 l 357 -244 l 253 -164 l 276 -115 l 543 -115 l 543 -151 z "},"ß":{"ha":1072,"x_min":35,"x_max":969,"o":"m 636 656 q 674 569 636 607 q 789 479 711 532 q 884 410 849 439 q 944 342 919 381 q 969 256 969 303 q 932 136 969 200 q 840 29 894 72 q 740 -14 785 -14 q 600 -2 681 -14 q 486 24 519 10 l 486 232 l 532 232 q 630 106 571 151 q 747 60 689 60 q 804 94 782 60 q 826 176 826 129 q 789 261 826 224 q 675 350 751 299 q 579 422 615 392 q 517 492 543 451 q 492 582 492 533 q 522 676 492 633 q 611 776 553 719 q 685 856 661 825 q 708 922 708 888 q 674 1003 708 957 q 588 1083 640 1050 q 485 1117 536 1117 q 385 1058 418 1117 q 351 886 351 1000 l 351 0 l 75 0 l 75 36 l 199 133 l 199 644 l 35 644 l 35 694 l 199 694 l 199 819 q 255 1021 199 926 q 396 1171 311 1115 q 561 1226 481 1226 q 680 1191 611 1226 q 798 1101 749 1156 q 847 993 847 1047 q 818 898 847 939 q 732 803 789 857 q 659 724 682 754 q 636 656 636 693 z "},"ſ":{"ha":596,"x_min":35,"x_max":722,"o":"m 574 1226 q 656 1220 610 1226 q 722 1207 703 1214 l 722 1000 l 676 1000 q 592 1086 642 1054 q 490 1118 542 1118 q 357 883 357 1118 l 357 108 l 547 49 l 524 0 l 81 0 l 81 36 l 204 132 l 204 644 l 35 644 l 35 694 l 204 694 l 204 821 q 261 1022 204 928 q 405 1171 318 1115 q 574 1226 492 1226 z "},"t":{"ha":624,"x_min":25,"x_max":601,"o":"m 461 -3 q 390 -14 432 -14 q 226 47 278 -14 q 175 233 175 107 l 175 644 l 25 644 l 25 697 l 282 1001 l 328 1001 l 328 694 l 578 694 l 578 644 l 328 644 l 328 211 q 436 96 328 96 q 492 108 465 96 q 560 156 519 121 l 601 108 l 461 -3 z "},"ŧ":{"ha":624,"x_min":25,"x_max":601,"o":"m 461 -3 q 390 -14 432 -14 q 226 47 278 -14 q 175 233 175 107 l 175 644 l 25 644 l 25 697 l 282 1001 l 328 1001 l 328 694 l 578 694 l 578 644 l 328 644 l 328 211 q 436 96 328 96 q 492 108 465 96 q 560 156 519 121 l 601 108 l 461 -3 m 301 522 l 301 522 l 301 522 l 301 522 l 301 522 z "},"ť":{"ha":624,"x_min":25,"x_max":651,"o":"m 651 1011 l 483 793 l 438 829 q 491 938 472 882 q 510 1040 510 993 q 507 1074 510 1054 l 457 1119 l 457 1156 l 606 1213 l 651 1213 l 651 1011 m 436 96 q 492 108 465 96 q 560 156 519 121 l 601 108 l 461 -3 q 390 -14 432 -14 q 226 47 278 -14 q 175 233 175 107 l 175 644 l 25 644 l 25 697 l 282 1001 l 328 1001 l 328 694 l 578 694 l 578 644 l 328 644 l 328 211 q 436 96 328 96 z "},"ţ":{"ha":624,"x_min":25,"x_max":601,"o":"m 533 50 q 389 -62 440 -21 q 478 -151 454 -117 q 503 -226 503 -186 q 440 -326 503 -292 q 243 -367 376 -360 l 243 -331 q 379 -201 379 -286 q 358 -145 379 -171 q 288 -90 338 -119 l 382 -14 q 225 48 275 -12 q 175 233 175 108 l 175 644 l 25 644 l 25 697 l 282 1001 l 328 1001 l 328 694 l 578 694 l 578 644 l 328 644 l 328 211 q 436 96 328 96 q 492 108 465 96 q 560 156 519 121 l 601 108 l 531 51 l 533 50 z "},"ț":{"ha":624,"x_min":25,"x_max":601,"o":"m 461 -3 q 390 -14 432 -14 q 226 47 278 -14 q 175 233 175 107 l 175 644 l 25 644 l 25 697 l 282 1001 l 328 1001 l 328 694 l 578 694 l 578 644 l 328 644 l 328 211 q 436 96 328 96 q 492 108 465 96 q 560 156 519 121 l 601 108 l 461 -3 m 519 -151 l 343 -422 l 299 -422 l 333 -244 l 229 -164 l 253 -115 l 519 -115 l 519 -151 z "},"u":{"ha":965,"x_min":54,"x_max":911,"o":"m 888 0 l 633 0 l 633 150 l 453 -3 q 378 -14 424 -14 q 231 44 285 -14 q 178 200 178 101 l 178 539 l 54 611 l 54 647 l 285 764 l 331 764 l 331 263 q 355 153 331 183 q 442 122 379 122 q 530 140 486 122 q 633 208 574 157 l 633 539 l 510 611 l 510 647 l 740 764 l 786 764 l 786 99 l 911 49 l 888 0 z "},"ú":{"ha":965,"x_min":54,"x_max":911,"o":"m 888 0 l 633 0 l 633 150 l 453 -3 q 378 -14 424 -14 q 231 44 285 -14 q 178 200 178 101 l 178 539 l 54 611 l 54 647 l 285 764 l 331 764 l 331 263 q 355 153 331 183 q 442 122 379 122 q 530 140 486 122 q 633 208 574 157 l 633 539 l 510 611 l 510 647 l 740 764 l 786 764 l 786 99 l 911 49 l 888 0 m 760 1186 l 465 940 l 414 967 l 563 1239 l 735 1213 l 760 1186 z "},"û":{"ha":965,"x_min":54,"x_max":911,"o":"m 888 0 l 633 0 l 633 150 l 453 -3 q 378 -14 424 -14 q 231 44 285 -14 q 178 200 178 101 l 178 539 l 54 611 l 54 647 l 285 764 l 331 764 l 331 263 q 355 153 331 183 q 442 122 379 122 q 530 140 486 122 q 633 208 574 157 l 633 539 l 510 611 l 510 647 l 740 764 l 786 764 l 786 99 l 911 49 l 888 0 m 768 944 l 611 918 l 438 1107 l 225 932 l 186 979 l 488 1225 l 793 971 l 768 944 z "},"ü":{"ha":965,"x_min":54,"x_max":911,"o":"m 293 963 q 235 990 258 963 q 213 1060 213 1018 q 229 1115 213 1089 q 270 1156 246 1140 q 317 1171 294 1171 q 374 1144 351 1171 q 396 1075 396 1117 q 380 1019 396 1046 q 340 978 364 993 q 293 963 315 963 m 661 963 q 603 990 626 963 q 581 1060 581 1018 q 597 1115 581 1089 q 638 1156 614 1140 q 685 1171 663 1171 q 742 1144 719 1171 q 764 1075 764 1117 q 748 1019 764 1046 q 708 978 732 993 q 661 963 683 963 m 888 0 l 633 0 l 633 150 l 453 -3 q 378 -14 424 -14 q 231 44 285 -14 q 178 200 178 101 l 178 539 l 54 611 l 54 647 l 285 764 l 331 764 l 331 263 q 355 153 331 183 q 442 122 379 122 q 530 140 486 122 q 633 208 574 157 l 633 539 l 510 611 l 510 647 l 740 764 l 786 764 l 786 99 l 911 49 l 888 0 z "},"ù":{"ha":965,"x_min":54,"x_max":911,"o":"m 888 0 l 633 0 l 633 150 l 453 -3 q 378 -14 424 -14 q 231 44 285 -14 q 178 200 178 101 l 178 539 l 54 611 l 54 647 l 285 764 l 331 764 l 331 263 q 355 153 331 183 q 442 122 379 122 q 530 140 486 122 q 633 208 574 157 l 633 539 l 510 611 l 510 647 l 740 764 l 786 764 l 786 99 l 911 49 l 888 0 m 518 940 l 222 1186 l 247 1213 l 419 1239 l 568 967 l 518 940 z "},"ű":{"ha":965,"x_min":54,"x_max":911,"o":"m 888 0 l 633 0 l 633 150 l 453 -3 q 378 -14 424 -14 q 231 44 285 -14 q 178 200 178 101 l 178 539 l 54 611 l 54 647 l 285 764 l 331 764 l 331 263 q 355 153 331 183 q 442 122 379 122 q 530 140 486 122 q 633 208 574 157 l 633 539 l 510 611 l 510 647 l 740 764 l 786 764 l 786 99 l 911 49 l 888 0 m 531 1186 l 292 940 l 242 967 l 343 1239 l 507 1213 l 531 1186 m 867 1186 l 626 940 l 576 967 l 679 1239 l 842 1213 l 867 1186 z "},"ū":{"ha":965,"x_min":54,"x_max":911,"o":"m 888 0 l 633 0 l 633 150 l 453 -3 q 378 -14 424 -14 q 231 44 285 -14 q 178 200 178 101 l 178 539 l 54 611 l 54 647 l 285 764 l 331 764 l 331 263 q 355 153 331 183 q 442 122 379 122 q 530 140 486 122 q 633 208 574 157 l 633 539 l 510 611 l 510 647 l 740 764 l 786 764 l 786 99 l 911 49 l 888 0 m 207 1100 l 774 1100 l 774 1043 l 207 1043 l 207 1100 z "},"ų":{"ha":965,"x_min":54,"x_max":911,"o":"m 888 0 q 790 -96 819 -57 q 761 -167 761 -135 q 776 -207 761 -192 q 825 -228 792 -222 l 825 -274 l 708 -367 q 626 -306 653 -343 q 600 -212 600 -268 q 611 -157 600 -182 l 810 0 l 633 0 l 633 150 l 453 -3 q 378 -14 424 -14 q 231 44 285 -14 q 178 200 178 101 l 178 539 l 54 611 l 54 647 l 285 764 l 331 764 l 331 263 q 355 153 331 183 q 442 122 379 122 q 530 140 486 122 q 633 208 574 157 l 633 539 l 510 611 l 510 647 l 740 764 l 786 764 l 786 99 l 911 49 l 888 0 z "},"ů":{"ha":965,"x_min":54,"x_max":911,"o":"m 888 0 l 633 0 l 633 150 l 453 -3 q 378 -14 424 -14 q 231 44 285 -14 q 178 200 178 101 l 178 539 l 54 611 l 54 647 l 285 764 l 331 764 l 331 263 q 355 153 331 183 q 442 122 379 122 q 530 140 486 122 q 633 208 574 157 l 633 539 l 510 611 l 510 647 l 740 764 l 786 764 l 786 99 l 911 49 l 888 0 m 539 1225 q 643 1185 601 1225 q 685 1090 685 1146 q 647 1001 685 1043 q 553 933 610 958 q 440 907 496 907 q 337 947 379 907 q 294 1042 294 986 q 332 1131 294 1089 q 426 1199 369 1174 q 539 1225 483 1225 m 458 1169 q 382 1110 382 1169 q 418 1005 382 1046 q 521 964 454 964 q 578 979 558 964 q 599 1024 599 994 q 562 1128 599 1088 q 458 1169 525 1169 z "},"v":{"ha":853,"x_min":10,"x_max":799,"o":"m 799 700 l 449 0 l 357 0 l 136 536 l 10 610 l 10 646 l 233 763 l 286 553 l 458 129 l 661 553 l 479 688 l 503 736 l 799 736 l 799 700 z "},"w":{"ha":1233,"x_min":11,"x_max":1181,"o":"m 1181 700 l 874 0 l 782 0 l 632 364 l 450 0 l 358 0 l 138 536 l 11 610 l 11 646 l 235 763 l 288 553 l 460 131 l 601 439 l 561 536 l 435 610 l 435 646 l 658 763 l 711 553 l 879 142 l 1050 547 l 858 688 l 883 736 l 1181 736 l 1181 700 z "},"ẃ":{"ha":1233,"x_min":11,"x_max":1181,"o":"m 1181 700 l 874 0 l 782 0 l 632 364 l 450 0 l 358 0 l 138 536 l 11 610 l 11 646 l 235 763 l 288 553 l 460 131 l 601 439 l 561 536 l 435 610 l 435 646 l 658 763 l 711 553 l 879 142 l 1050 547 l 858 688 l 883 736 l 1181 736 l 1181 700 m 888 1186 l 593 940 l 542 967 l 690 1239 l 863 1213 l 888 1186 z "},"ŵ":{"ha":1233,"x_min":11,"x_max":1181,"o":"m 1181 700 l 874 0 l 782 0 l 632 364 l 450 0 l 358 0 l 138 536 l 11 610 l 11 646 l 235 763 l 288 553 l 460 131 l 601 439 l 561 536 l 435 610 l 435 646 l 658 763 l 711 553 l 879 142 l 1050 547 l 858 688 l 883 736 l 1181 736 l 1181 700 m 896 944 l 739 918 l 565 1107 l 353 932 l 314 979 l 615 1225 l 921 971 l 896 944 z "},"ẅ":{"ha":1233,"x_min":11,"x_max":1181,"o":"m 422 963 q 365 990 388 963 q 342 1060 342 1018 q 358 1115 342 1089 q 399 1156 375 1140 q 446 1171 424 1171 q 503 1144 481 1171 q 525 1075 525 1117 q 509 1019 525 1046 q 469 978 493 993 q 422 963 444 963 m 790 963 q 733 990 756 963 q 710 1060 710 1018 q 726 1115 710 1089 q 767 1156 743 1140 q 814 1171 792 1171 q 871 1144 849 1171 q 893 1075 893 1117 q 877 1019 893 1046 q 837 978 861 993 q 790 963 813 963 m 1181 700 l 874 0 l 782 0 l 632 364 l 450 0 l 358 0 l 138 536 l 11 610 l 11 646 l 235 763 l 288 553 l 460 131 l 601 439 l 561 536 l 435 610 l 435 646 l 658 763 l 711 553 l 879 142 l 1050 547 l 858 688 l 883 736 l 1181 736 l 1181 700 z "},"ẁ":{"ha":1233,"x_min":11,"x_max":1181,"o":"m 1181 700 l 874 0 l 782 0 l 632 364 l 450 0 l 358 0 l 138 536 l 11 610 l 11 646 l 235 763 l 288 553 l 460 131 l 601 439 l 561 536 l 435 610 l 435 646 l 658 763 l 711 553 l 879 142 l 1050 547 l 858 688 l 883 736 l 1181 736 l 1181 700 m 646 940 l 350 1186 l 375 1213 l 547 1239 l 696 967 l 646 940 z "},"x":{"ha":846,"x_min":22,"x_max":825,"o":"m 800 0 l 606 0 l 382 296 l 222 146 l 351 47 l 326 -1 l 26 -1 l 26 35 l 346 343 l 142 610 l 22 688 l 46 736 l 240 736 l 458 444 l 613 590 l 483 689 l 507 738 l 808 738 l 808 701 l 494 397 l 704 125 l 825 49 l 800 0 z "},"y":{"ha":853,"x_min":10,"x_max":796,"o":"m 796 701 l 446 1 l 164 -365 l 118 -329 q 240 -181 199 -244 q 299 -51 282 -117 q 314 104 315 14 l 136 536 l 10 610 l 10 646 l 233 763 l 286 553 l 458 129 l 661 553 l 479 688 l 503 736 l 796 738 l 796 701 z "},"ý":{"ha":853,"x_min":10,"x_max":796,"o":"m 796 701 l 446 1 l 164 -365 l 118 -329 q 240 -181 199 -244 q 299 -51 282 -117 q 314 104 315 14 l 136 536 l 10 610 l 10 646 l 233 763 l 286 553 l 458 129 l 661 553 l 479 688 l 503 736 l 796 738 l 796 701 m 681 1186 l 386 940 l 335 967 l 483 1239 l 656 1213 l 681 1186 z "},"ŷ":{"ha":853,"x_min":10,"x_max":796,"o":"m 796 701 l 446 1 l 164 -365 l 118 -329 q 240 -181 199 -244 q 299 -51 282 -117 q 314 104 315 14 l 136 536 l 10 610 l 10 646 l 233 763 l 286 553 l 458 129 l 661 553 l 479 688 l 503 736 l 796 738 l 796 701 m 689 944 l 532 918 l 358 1107 l 146 932 l 107 979 l 408 1225 l 714 971 l 689 944 z "},"ÿ":{"ha":853,"x_min":10,"x_max":796,"o":"m 215 963 q 158 990 181 963 q 135 1060 135 1018 q 151 1115 135 1089 q 192 1156 168 1140 q 239 1171 217 1171 q 296 1144 274 1171 q 318 1075 318 1117 q 302 1019 318 1046 q 262 978 286 993 q 215 963 238 963 m 583 963 q 526 990 549 963 q 503 1060 503 1018 q 519 1115 503 1089 q 560 1156 536 1140 q 607 1171 585 1171 q 664 1144 642 1171 q 686 1075 686 1117 q 670 1019 686 1046 q 630 978 654 993 q 583 963 606 963 m 796 701 l 446 1 l 164 -365 l 118 -329 q 240 -181 199 -244 q 299 -51 282 -117 q 314 104 315 14 l 136 536 l 10 610 l 10 646 l 233 763 l 286 553 l 458 129 l 661 553 l 479 688 l 503 736 l 796 738 l 796 701 z "},"ỳ":{"ha":853,"x_min":10,"x_max":796,"o":"m 796 701 l 446 1 l 164 -365 l 118 -329 q 240 -181 199 -244 q 299 -51 282 -117 q 314 104 315 14 l 136 536 l 10 610 l 10 646 l 233 763 l 286 553 l 458 129 l 661 553 l 479 688 l 503 736 l 796 738 l 796 701 m 439 940 l 143 1186 l 168 1213 l 340 1239 l 489 967 l 439 940 z "},"z":{"ha":839,"x_min":99,"x_max":740,"o":"m 626 153 l 686 265 l 721 253 l 721 -25 l 651 0 l 99 0 l 99 46 l 572 583 l 208 583 l 153 485 l 118 497 l 118 761 l 188 736 l 740 736 l 740 690 l 271 153 l 626 153 z "},"ź":{"ha":839,"x_min":99,"x_max":740,"o":"m 626 153 l 686 265 l 721 253 l 721 -25 l 651 0 l 99 0 l 99 46 l 572 583 l 208 583 l 153 485 l 118 497 l 118 761 l 188 736 l 740 736 l 740 690 l 271 153 l 626 153 m 696 1186 l 401 940 l 350 967 l 499 1239 l 671 1213 l 696 1186 z "},"ž":{"ha":839,"x_min":99,"x_max":740,"o":"m 626 153 l 686 265 l 721 253 l 721 -25 l 651 0 l 99 0 l 99 46 l 572 583 l 208 583 l 153 485 l 118 497 l 118 761 l 188 736 l 740 736 l 740 690 l 271 153 l 626 153 m 429 932 l 124 1186 l 149 1213 l 306 1239 l 479 1050 l 692 1225 l 731 1178 l 429 932 z "},"ż":{"ha":839,"x_min":99,"x_max":740,"o":"m 626 153 l 686 265 l 721 253 l 721 -25 l 651 0 l 99 0 l 99 46 l 572 583 l 208 583 l 153 485 l 118 497 l 118 761 l 188 736 l 740 736 l 740 690 l 271 153 l 626 153 m 440 1178 q 503 1149 479 1178 q 528 1076 528 1119 q 510 1019 528 1046 q 466 976 493 992 q 414 960 439 960 q 351 990 376 960 q 326 1063 326 1019 q 344 1119 326 1093 q 388 1162 361 1146 q 440 1178 415 1178 z "},"ﬁ":{"ha":1068,"x_min":35,"x_max":1015,"o":"m 990 0 l 738 0 l 738 558 l 624 644 l 354 644 l 354 110 l 546 49 l 521 0 l 78 0 l 78 36 l 201 132 l 201 644 l 35 644 l 35 694 l 201 694 l 201 821 q 258 1022 201 928 q 403 1171 315 1115 q 572 1226 490 1226 q 726 1206 639 1226 q 844 1168 814 1186 q 894 1076 894 1139 q 877 1019 894 1046 q 833 976 860 992 q 781 960 806 960 q 703 1014 728 960 q 657 1081 682 1060 q 594 1110 632 1103 q 489 1118 557 1118 q 388 1058 422 1118 q 354 883 354 999 l 354 694 l 635 694 l 844 763 l 890 763 l 890 99 l 1015 49 l 990 0 z "},"ﬂ":{"ha":1068,"x_min":35,"x_max":1015,"o":"m 990 0 l 738 0 l 738 1046 q 648 1098 707 1078 q 536 1118 589 1118 q 406 1056 458 1118 q 354 883 354 993 l 354 694 l 608 694 l 608 644 l 354 644 l 354 110 l 546 49 l 521 0 l 78 0 l 78 36 l 201 132 l 201 644 l 35 644 l 35 694 l 201 694 l 201 821 q 269 1022 201 928 q 438 1171 336 1115 q 635 1226 539 1226 q 840 1213 710 1226 l 890 1213 l 890 99 l 1015 49 l 990 0 z "},"ª":{"ha":742,"x_min":86,"x_max":704,"o":"m 682 576 l 467 576 l 467 667 l 334 574 q 275 566 310 566 q 131 610 175 566 q 87 715 87 653 q 118 788 87 752 q 206 857 148 824 l 467 857 l 467 933 q 425 1031 467 1002 q 310 1059 383 1059 q 138 976 238 1059 l 102 1012 l 273 1132 q 382 1139 319 1139 q 540 1094 484 1139 q 597 963 597 1048 l 597 649 l 703 613 l 682 576 m 308 644 q 467 706 382 644 l 467 819 l 255 819 q 230 784 237 801 q 224 744 224 766 q 247 674 224 703 q 308 644 270 644 z "},"º":{"ha":817,"x_min":100,"x_max":715,"o":"m 450 1139 q 586 1103 526 1139 q 681 1006 647 1067 q 715 870 715 944 q 661 720 715 790 q 524 608 607 649 q 366 566 442 566 q 229 601 290 566 q 134 698 169 637 q 100 834 100 760 q 154 985 100 914 q 291 1097 209 1056 q 450 1139 373 1139 m 381 1058 q 241 884 241 1058 q 290 715 241 783 q 434 647 340 647 q 573 821 573 647 q 524 990 573 922 q 381 1058 474 1058 z "},"Δ":{"ha":1203,"x_min":88,"x_max":1100,"o":"m 1100 0 l 88 0 l 88 36 l 533 1047 l 658 1118 l 1100 53 l 1100 0 m 561 961 l 164 54 l 939 54 l 561 961 z "},"Ω":{"ha":1281,"x_min":101,"x_max":1179,"o":"m 1151 228 l 1151 -26 l 1082 -1 l 688 -1 l 688 351 q 851 392 778 354 q 967 495 925 431 q 1010 639 1010 560 q 966 827 1010 743 q 832 960 922 911 q 608 1010 742 1010 q 437 972 514 1010 q 315 869 360 935 q 271 722 271 803 q 352 478 271 582 q 592 351 433 375 l 592 -1 l 199 -1 l 129 -26 l 129 228 l 164 238 l 351 53 l 458 53 l 458 253 q 273 331 354 274 q 147 472 192 388 q 101 656 101 556 q 194 887 101 781 q 426 1056 288 993 q 689 1118 564 1118 q 945 1064 833 1118 q 1118 916 1057 1010 q 1179 704 1179 822 q 1129 532 1179 614 q 997 388 1079 450 q 822 290 915 326 l 822 54 l 928 54 l 1117 238 l 1151 228 z "},"μ":{"ha":965,"x_min":106,"x_max":876,"o":"m 796 251 q 818 168 796 214 q 876 82 840 122 l 689 -14 l 643 -14 l 643 150 l 461 -3 q 388 -14 432 -14 q 339 -10 363 -14 l 339 -87 q 360 -170 338 -124 q 419 -257 383 -217 l 232 -353 l 186 -353 l 186 499 q 165 581 188 535 q 106 668 142 628 l 293 764 l 339 764 l 339 263 q 364 153 339 183 q 451 122 389 122 q 540 140 496 122 q 643 208 583 157 l 643 499 q 621 582 643 536 q 563 668 599 628 l 750 764 l 796 764 l 796 251 z "},"π":{"ha":1092,"x_min":0,"x_max":1003,"o":"m 813 236 q 835 154 813 200 q 893 67 857 108 l 733 -14 l 688 -14 l 688 582 l 454 582 l 454 0 l 249 0 l 249 36 q 307 122 285 76 q 329 206 329 168 l 329 582 l 253 582 q 38 528 164 582 l 0 567 l 214 736 l 1003 736 l 1003 582 l 813 582 l 813 236 z "},"ॲ":{"ha":1389,"x_min":126,"x_max":1639,"o":"m 1289 965 l 1289 -14 l 1243 -14 l 1096 126 l 1136 172 l 1136 468 q 1042 414 1090 431 q 933 397 993 397 q 771 435 850 397 q 778 401 778 417 q 742 302 779 351 q 646 222 706 253 q 525 190 586 190 q 469 194 501 190 q 424 201 438 197 l 126 481 l 168 529 l 243 460 q 485 332 383 332 q 590 368 550 335 q 631 454 631 401 q 581 548 631 496 q 422 669 531 600 l 422 715 q 542 798 501 750 q 583 904 583 846 q 564 968 583 944 q 510 992 544 992 q 397 958 464 992 q 261 865 331 924 l 182 947 l 182 993 q 308 1077 247 1049 q 421 1106 369 1106 q 561 1061 488 1106 q 685 950 635 1017 q 735 825 735 883 q 697 712 735 767 q 596 622 660 657 q 663 572 633 597 q 761 517 717 533 q 846 500 806 500 q 985 542 919 500 q 1138 686 1050 583 l 1138 965 l 885 965 l 806 1046 l 806 1092 l 1429 1092 l 1508 1011 l 1507 965 l 1289 965 m 992 1621 q 981 1529 981 1565 q 1031 1437 981 1467 q 1185 1407 1082 1407 q 1381 1469 1306 1407 q 1474 1644 1457 1532 l 1528 1689 l 1639 1579 q 1576 1435 1628 1500 q 1443 1333 1525 1371 q 1263 1296 1361 1296 q 1050 1338 1154 1296 q 881 1446 946 1379 q 815 1582 815 1513 q 826 1692 815 1639 l 868 1738 l 992 1621 z "},"ऄ":{"ha":1389,"x_min":-199,"x_max":1508,"o":"m 1289 965 l 1289 -14 l 1243 -14 l 1096 126 l 1136 172 l 1136 468 q 1042 414 1090 431 q 933 397 993 397 q 771 435 850 397 q 778 401 778 417 q 742 302 779 351 q 646 222 706 253 q 525 190 586 190 q 469 194 501 190 q 424 201 438 197 l 126 481 l 168 529 l 243 460 q 485 332 383 332 q 590 368 550 335 q 631 454 631 401 q 581 548 631 496 q 422 669 531 600 l 422 715 q 542 798 501 750 q 583 904 583 846 q 564 968 583 944 q 510 992 544 992 q 397 958 464 992 q 261 865 331 924 l 182 947 l 182 993 q 308 1077 247 1049 q 421 1106 369 1106 q 561 1061 488 1106 q 685 950 635 1017 q 735 825 735 883 q 697 712 735 767 q 596 622 660 657 q 663 572 633 597 q 761 517 717 533 q 846 500 806 500 q 985 542 919 500 q 1138 686 1050 583 l 1138 965 l 885 965 l 806 1046 l 806 1092 l 1139 1092 l 910 1292 q 801 1360 858 1338 q 668 1382 743 1382 q 595 1378 626 1382 q 517 1365 564 1374 q 361 1347 435 1347 q 196 1378 264 1347 q 25 1497 128 1408 l -199 1688 l -158 1736 l 47 1561 q 156 1494 97 1517 q 288 1472 215 1472 q 362 1476 329 1472 q 439 1489 394 1481 q 596 1507 524 1507 q 762 1476 693 1507 q 932 1356 831 1444 l 1236 1092 l 1429 1092 l 1508 1011 l 1507 965 l 1289 965 z "},"अ":{"ha":1389,"x_min":126,"x_max":1508,"o":"m 1289 965 l 1289 -14 l 1243 -14 l 1096 126 l 1136 172 l 1136 468 q 1042 414 1090 431 q 933 397 993 397 q 771 435 850 397 q 778 401 778 417 q 742 302 779 351 q 646 222 706 253 q 525 190 586 190 q 469 194 501 190 q 424 201 438 197 l 126 481 l 168 529 l 243 460 q 485 332 383 332 q 590 368 550 335 q 631 454 631 401 q 581 548 631 496 q 422 669 531 600 l 422 715 q 542 798 501 750 q 583 904 583 846 q 564 968 583 944 q 510 992 544 992 q 397 958 464 992 q 261 865 331 924 l 182 947 l 182 993 q 308 1077 247 1049 q 421 1106 369 1106 q 561 1061 488 1106 q 685 950 635 1017 q 735 825 735 883 q 697 712 735 767 q 596 622 660 657 q 663 572 633 597 q 761 517 717 533 q 846 500 806 500 q 985 542 919 500 q 1138 686 1050 583 l 1138 965 l 885 965 l 806 1046 l 806 1092 l 1429 1092 l 1508 1011 l 1507 965 l 1289 965 z "},"आ":{"ha":1840,"x_min":126,"x_max":1958,"o":"m 1739 965 l 1739 -14 l 1693 -14 l 1546 126 l 1586 172 l 1586 965 l 1289 965 l 1289 -14 l 1243 -14 l 1096 126 l 1136 172 l 1136 468 q 1042 414 1090 431 q 933 397 993 397 q 771 435 850 397 q 778 401 778 417 q 742 302 779 351 q 646 222 706 253 q 525 190 586 190 q 469 194 501 190 q 424 201 438 197 l 126 481 l 168 529 l 243 460 q 485 332 383 332 q 590 368 550 335 q 631 454 631 401 q 581 548 631 496 q 422 669 531 600 l 422 715 q 542 798 501 750 q 583 904 583 846 q 564 968 583 944 q 510 992 544 992 q 397 958 464 992 q 261 865 331 924 l 182 947 l 182 993 q 308 1077 247 1049 q 421 1106 369 1106 q 561 1061 488 1106 q 685 950 635 1017 q 735 825 735 883 q 697 712 735 767 q 596 622 660 657 q 663 572 633 597 q 761 517 717 533 q 846 500 806 500 q 985 542 919 500 q 1138 686 1050 583 l 1138 965 l 885 965 l 806 1046 l 806 1092 l 1879 1092 l 1958 1011 l 1957 965 l 1739 965 z "},"इ":{"ha":971,"x_min":-36,"x_max":1179,"o":"m 532 711 q 407 672 458 711 q 356 576 356 633 q 376 526 356 547 q 451 476 396 506 q 622 553 561 553 q 770 503 693 553 q 898 381 847 454 q 949 239 949 307 q 883 128 949 188 q 722 28 818 68 q 543 -12 626 -12 q 433 3 490 -12 l 586 -143 q 699 -218 642 -194 q 831 -242 757 -242 q 988 -222 890 -242 l 1069 -304 l 1069 -350 q 906 -367 986 -367 q 788 -354 838 -367 q 688 -309 739 -342 q 569 -214 636 -276 l 201 135 l 203 136 q 134 228 158 181 q 110 319 110 275 q 128 388 110 367 q 171 408 146 408 q 262 355 215 408 q 361 167 308 301 q 522 126 425 126 q 653 155 586 126 q 763 227 719 183 q 806 314 806 271 q 776 373 806 344 q 717 401 747 401 q 536 340 646 401 q 397 399 475 346 q 265 522 319 451 q 211 650 211 592 q 243 744 211 701 q 330 813 275 788 q 449 838 385 838 l 672 838 l 672 965 l 43 965 l -36 1046 l -36 1092 l 1100 1092 l 1179 1011 l 1179 965 l 825 965 l 825 711 l 532 711 z "},"ई":{"ha":971,"x_min":-36,"x_max":1179,"o":"m 532 711 q 407 672 458 711 q 356 576 356 633 q 376 526 356 547 q 451 476 396 506 q 622 553 561 553 q 770 503 693 553 q 898 381 847 454 q 949 239 949 307 q 883 128 949 188 q 722 28 818 68 q 543 -12 626 -12 q 433 3 490 -12 l 586 -143 q 699 -218 642 -194 q 831 -242 757 -242 q 988 -222 890 -242 l 1069 -304 l 1069 -350 q 906 -367 986 -367 q 788 -354 838 -367 q 688 -309 739 -342 q 569 -214 636 -276 l 201 135 l 203 136 q 134 228 158 181 q 110 319 110 275 q 128 388 110 367 q 171 408 146 408 q 262 355 215 408 q 361 167 308 301 q 522 126 425 126 q 653 155 586 126 q 763 227 719 183 q 806 314 806 271 q 776 373 806 344 q 717 401 747 401 q 536 340 646 401 q 397 399 475 346 q 265 522 319 451 q 211 650 211 592 q 243 744 211 701 q 330 813 275 788 q 449 838 385 838 l 672 838 l 672 965 l 43 965 l -36 1046 l -36 1092 l 690 1092 l 447 1303 q 436 1426 436 1358 q 477 1592 436 1522 q 592 1700 518 1663 q 761 1738 665 1738 q 878 1728 821 1738 l 1092 1560 l 1050 1511 q 915 1592 975 1567 q 796 1617 856 1617 q 655 1555 708 1617 q 601 1389 601 1493 q 625 1271 601 1332 q 710 1157 649 1210 l 786 1092 l 1100 1092 l 1179 1011 l 1179 965 l 825 965 l 825 711 l 532 711 z "},"उ":{"ha":822,"x_min":-85,"x_max":919,"o":"m 583 965 q 655 869 629 921 q 681 768 681 818 q 635 641 681 696 q 511 563 589 586 q 851 201 851 361 q 806 102 851 153 q 692 19 761 51 q 557 -14 624 -14 q 440 -3 485 -14 l 49 361 l 89 410 l 251 261 q 397 158 332 189 q 539 126 461 126 q 617 147 579 126 q 680 201 656 168 q 704 271 704 235 q 668 357 704 313 q 548 459 632 401 q 311 603 464 517 l 311 649 q 405 688 357 657 q 484 760 453 719 q 515 835 515 801 q 500 915 515 882 q 457 965 485 949 l -6 965 l -85 1046 l -85 1092 l 840 1092 l 919 1011 l 919 965 l 583 965 z "},"ऊ":{"ha":1453,"x_min":-85,"x_max":1518,"o":"m 585 967 q 656 871 631 922 q 682 769 682 819 q 636 642 682 697 q 513 564 590 588 q 579 522 549 543 q 607 558 606 556 q 706 673 665 633 q 805 739 746 713 q 949 765 864 765 q 1115 721 1029 765 q 1258 602 1201 676 q 1315 444 1315 528 q 1278 335 1315 385 q 1177 257 1242 285 q 1032 231 1113 229 l 951 311 l 951 357 q 996 353 975 353 q 1110 398 1069 353 q 1150 510 1150 443 q 1120 623 1150 583 q 1031 663 1090 663 q 915 639 965 663 q 823 576 864 615 q 715 463 782 538 l 694 439 q 851 201 851 311 q 806 102 851 153 q 692 19 761 51 q 557 -14 624 -14 q 440 -3 485 -14 l 49 361 l 89 410 l 251 261 q 397 158 332 189 q 539 126 461 126 q 617 147 579 126 q 680 201 656 168 q 704 271 704 235 q 668 357 704 313 q 548 459 632 401 q 311 603 464 517 l 311 649 q 405 688 357 657 q 484 760 453 719 q 515 835 515 801 q 500 915 515 882 q 457 965 485 949 l -6 965 l -85 1046 l -85 1092 l 1440 1092 l 1518 1011 l 1518 965 l 585 967 z "},"ऋ":{"ha":1679,"x_min":-81,"x_max":1765,"o":"m 843 653 q 900 651 860 651 q 1053 674 979 651 q 1098 781 1067 733 q 1167 855 1129 829 q 1238 881 1204 881 q 1338 852 1282 881 q 1434 782 1394 824 q 1474 703 1474 740 q 1415 629 1474 656 q 1228 578 1356 603 q 1288 465 1238 525 l 1292 465 l 1372 385 l 1372 339 q 1326 342 1357 342 q 1213 298 1253 342 q 1174 189 1174 254 q 1203 78 1174 117 q 1293 39 1233 39 q 1408 90 1350 39 q 1514 224 1465 140 l 1594 143 l 1594 97 q 1506 -23 1557 18 q 1375 -64 1456 -64 q 1207 -20 1293 -64 q 1065 97 1121 24 q 1008 254 1008 171 q 1038 351 1008 306 q 1118 425 1067 396 q 1065 507 1083 468 q 1006 504 1026 504 q 843 526 929 504 l 843 -14 l 797 -14 l 650 126 l 690 172 l 690 476 q 338 240 496 328 l 258 321 l 258 367 q 567 572 396 440 l 554 583 q 496 624 521 613 q 447 635 471 635 q 360 618 403 635 q 272 569 318 601 q 135 468 226 538 l 53 550 l 53 596 q 233 713 160 676 q 358 749 306 749 q 456 731 415 749 q 567 654 497 714 l 618 611 l 692 672 l 692 965 l -1 965 l -81 1046 l -81 1092 l 1686 1092 l 1765 1011 l 1765 965 l 843 965 l 843 653 z "},"ॠ":{"ha":1679,"x_min":-81,"x_max":1765,"o":"m 843 650 q 900 649 860 649 q 1053 671 979 649 q 1098 778 1067 731 q 1167 852 1129 826 q 1238 878 1204 878 q 1338 849 1282 878 q 1434 779 1394 821 q 1474 700 1474 738 q 1415 626 1474 653 q 1228 575 1356 600 q 1279 474 1235 528 q 1328 475 1294 475 l 1407 394 l 1407 349 q 1332 358 1369 358 q 1216 323 1257 358 q 1174 238 1175 288 q 1190 190 1174 213 q 1358 213 1268 214 l 1436 142 l 1436 96 q 1253 63 1318 94 q 1188 -31 1188 31 q 1310 -89 1188 -89 q 1422 -60 1367 -87 q 1514 15 1476 -32 l 1594 -67 l 1594 -112 q 1498 -167 1551 -149 q 1396 -186 1444 -186 q 1226 -151 1311 -186 q 1088 -62 1142 -117 q 1035 46 1035 -8 q 1059 112 1035 81 q 1126 167 1083 143 q 1052 231 1079 196 q 1025 304 1025 267 q 1047 376 1025 343 q 1111 433 1069 410 q 1065 507 1083 469 q 1006 504 1026 504 q 843 526 929 504 l 843 -14 l 797 -14 l 650 126 l 690 172 l 690 476 q 338 240 496 328 l 258 321 l 258 367 q 567 572 396 440 l 554 583 q 496 624 521 613 q 447 635 471 635 q 360 618 403 635 q 272 569 318 601 q 135 468 226 538 l 53 550 l 53 596 q 233 713 160 676 q 358 749 306 749 q 456 731 415 749 q 567 654 497 714 l 618 611 l 692 672 l 692 965 l -1 965 l -81 1046 l -81 1092 l 1686 1092 l 1765 1011 l 1765 965 l 869 965 l 843 963 l 843 650 z "},"ऌ":{"ha":1260,"x_min":-65,"x_max":1325,"o":"m 900 729 q 1057 610 993 686 q 1121 458 1121 535 q 1095 395 1121 426 q 1015 317 1069 364 q 909 209 946 256 q 872 104 872 163 q 956 -11 872 -11 q 1125 153 1040 -11 l 1221 72 l 1221 26 q 1143 -79 1189 -42 q 1042 -117 1097 -117 q 886 -74 964 -117 q 758 35 808 -31 q 708 164 708 100 q 741 254 708 211 q 838 357 774 297 q 924 449 896 413 q 953 524 953 486 q 922 619 953 581 q 831 658 890 658 q 732 623 771 658 q 650 524 693 588 l 632 496 l 546 581 l 546 606 q 461 663 525 663 q 349 613 390 663 q 307 496 307 564 q 331 409 307 451 q 415 315 356 367 l 533 214 l 492 167 l 153 461 q 142 551 142 501 q 174 660 142 611 q 260 738 206 710 q 379 765 314 765 q 491 746 433 765 q 600 690 549 726 q 663 744 631 725 q 747 764 696 763 l 747 965 l 14 965 l -65 1046 l -65 1092 l 1246 1092 l 1325 1011 l 1325 965 l 900 965 l 900 729 z "},"ॡ":{"ha":1260,"x_min":-65,"x_max":1325,"o":"m 901 728 q 1058 609 994 685 q 1122 458 1122 533 q 1099 375 1122 411 q 1045 315 1076 339 q 961 257 1014 290 q 877 197 904 222 q 850 139 850 171 q 869 88 850 111 q 988 94 928 96 l 1061 29 l 1061 -17 l 1026 -15 q 870 -45 928 -15 q 813 -122 813 -75 q 843 -169 813 -153 q 932 -186 874 -186 q 1049 -158 999 -186 q 1143 -81 1100 -131 l 1224 -161 l 1224 -207 q 1014 -282 1139 -282 q 849 -247 932 -282 q 713 -159 767 -212 q 660 -56 660 -106 q 695 19 660 -14 q 794 72 731 53 q 726 136 751 101 q 701 208 701 171 q 728 274 701 249 q 811 335 754 300 q 885 383 857 361 q 933 440 914 406 q 953 522 953 475 q 922 619 953 581 q 831 658 890 658 q 733 624 771 658 q 653 526 694 589 l 632 496 l 546 581 l 546 626 q 461 663 517 663 q 349 613 390 663 q 307 496 307 564 q 331 409 307 451 q 415 315 356 367 l 533 214 l 492 167 l 153 461 q 142 551 142 501 q 174 660 142 611 q 260 738 206 710 q 379 765 314 765 q 491 746 433 765 q 600 690 549 726 q 663 744 631 725 q 747 764 696 763 l 747 965 l 14 965 l -65 1046 l -65 1092 l 1246 1092 l 1325 1011 l 1325 965 l 901 964 l 901 728 z "},"ऍ":{"ha":833,"x_min":-65,"x_max":1113,"o":"m 565 483 q 620 564 606 519 q 635 697 635 608 q 622 967 635 786 l 331 967 q 299 783 308 856 q 289 650 289 711 q 321 460 289 543 q 429 308 353 376 l 636 119 q 761 -32 718 42 q 820 -183 804 -106 q 835 -365 836 -261 l 789 -365 l 682 -311 l 683 -272 q 518 142 683 -15 l 306 336 q 197 449 233 406 q 141 538 160 492 q 122 643 122 583 q 175 965 122 732 l 24 965 l -65 1046 l -65 1092 l 874 1092 l 953 1011 l 953 965 l 754 965 q 794 756 786 818 q 803 656 803 694 q 762 458 803 529 q 646 356 721 386 l 565 436 l 565 483 m 465 1621 q 454 1529 454 1565 q 505 1437 454 1467 q 658 1407 556 1407 q 855 1469 779 1407 q 947 1644 931 1532 l 1001 1689 l 1113 1579 q 1050 1435 1101 1500 q 917 1333 999 1371 q 736 1296 835 1296 q 524 1338 628 1296 q 354 1446 419 1379 q 289 1582 289 1513 q 300 1692 289 1639 l 342 1738 l 465 1621 z "},"ऎ":{"ha":833,"x_min":-725,"x_max":953,"o":"m 565 483 q 620 564 606 519 q 635 697 635 608 q 622 967 635 786 l 331 967 q 299 783 308 856 q 289 650 289 711 q 321 460 289 543 q 429 308 353 376 l 636 119 q 761 -32 718 42 q 820 -183 804 -106 q 835 -365 836 -261 l 789 -365 l 682 -311 l 683 -272 q 518 142 683 -15 l 306 336 q 197 449 233 406 q 141 538 160 492 q 122 643 122 583 q 175 965 122 732 l 24 965 l -65 1046 l -65 1092 l 613 1092 l 383 1292 q 274 1360 332 1338 q 142 1382 217 1382 q 69 1378 100 1382 q -10 1365 38 1374 q -165 1347 -92 1347 q -331 1378 -262 1347 q -501 1497 -399 1408 l -725 1688 l -685 1736 l -479 1561 q -370 1494 -429 1517 q -239 1472 -311 1472 q -165 1476 -197 1472 q -87 1489 -132 1481 q 69 1507 -3 1507 q 235 1476 167 1507 q 406 1356 304 1444 l 710 1092 l 874 1092 l 953 1011 l 953 965 l 754 965 q 794 756 786 818 q 803 656 803 694 q 762 458 803 529 q 646 356 721 386 l 565 436 l 565 483 z "},"ए":{"ha":833,"x_min":-65,"x_max":953,"o":"m 565 483 q 620 564 606 519 q 635 697 635 608 q 622 967 635 786 l 331 967 q 299 783 308 856 q 289 650 289 711 q 321 460 289 543 q 429 308 353 376 l 636 119 q 761 -32 718 42 q 820 -183 804 -106 q 835 -365 836 -261 l 789 -365 l 682 -311 l 683 -272 q 518 142 683 -15 l 306 336 q 197 449 233 406 q 141 538 160 492 q 122 643 122 583 q 175 965 122 732 l 24 965 l -65 1046 l -65 1092 l 874 1092 l 953 1011 l 953 965 l 754 965 q 794 756 786 818 q 803 656 803 694 q 762 458 803 529 q 646 356 721 386 l 565 436 l 565 483 z "},"ऐ":{"ha":833,"x_min":-157,"x_max":953,"o":"m 565 483 q 620 564 606 519 q 635 697 635 608 q 622 967 635 786 l 331 967 q 299 783 308 856 q 289 650 289 711 q 321 460 289 543 q 429 308 353 376 l 636 119 q 761 -32 718 42 q 820 -183 804 -106 q 835 -365 836 -261 l 789 -365 l 682 -311 l 683 -272 q 518 142 683 -15 l 306 336 q 197 449 233 406 q 141 538 160 492 q 122 643 122 583 q 175 965 122 732 l 24 965 l -65 1046 l -65 1092 l 613 1092 l 314 1350 q 205 1417 263 1396 q 74 1439 147 1439 q -78 1421 8 1439 l -157 1503 l -157 1549 q 0 1565 -75 1565 q 165 1534 96 1565 q 336 1414 233 1503 l 710 1092 l 874 1092 l 953 1011 l 953 965 l 754 965 q 794 756 786 818 q 803 656 803 694 q 762 458 803 529 q 646 356 721 386 l 565 436 l 565 483 z "},"ऑ":{"ha":1840,"x_min":126,"x_max":2089,"o":"m 2089 1579 q 2026 1435 2078 1500 q 1893 1333 1975 1371 q 1713 1296 1811 1296 q 1500 1338 1604 1296 q 1331 1446 1396 1379 q 1265 1582 1265 1513 q 1276 1692 1265 1639 l 1318 1738 l 1442 1621 q 1431 1529 1431 1565 q 1481 1437 1431 1467 q 1635 1407 1532 1407 q 1831 1469 1756 1407 q 1924 1644 1907 1532 l 1978 1689 l 2089 1579 m 1957 1011 l 1957 965 l 1739 965 l 1739 -14 l 1693 -14 l 1546 126 l 1586 172 l 1586 965 l 1289 965 l 1289 -14 l 1243 -14 l 1096 126 l 1136 172 l 1136 468 q 1042 414 1090 431 q 933 397 993 397 q 771 435 850 397 q 778 401 778 417 q 742 302 779 351 q 646 222 706 253 q 525 190 586 190 q 469 194 501 190 q 424 201 438 197 l 126 481 l 168 529 l 243 460 q 485 332 383 332 q 590 368 550 335 q 631 454 631 401 q 581 548 631 496 q 422 669 531 600 l 422 715 q 542 798 501 750 q 583 904 583 846 q 564 968 583 944 q 510 992 544 992 q 397 958 464 992 q 261 865 331 924 l 182 947 l 182 993 q 308 1077 247 1049 q 421 1106 369 1106 q 561 1061 488 1106 q 685 950 635 1017 q 735 825 735 883 q 697 712 735 767 q 596 622 660 657 q 663 572 633 597 q 761 517 717 533 q 846 500 806 500 q 985 542 919 500 q 1138 686 1050 583 l 1138 965 l 885 965 l 806 1046 l 806 1092 l 1878 1092 l 1957 1011 z "},"ऒ":{"ha":1840,"x_min":126,"x_max":1958,"o":"m 1739 965 l 1739 -14 l 1693 -14 l 1546 126 l 1586 172 l 1586 965 l 1289 965 l 1289 -14 l 1243 -14 l 1096 126 l 1136 172 l 1136 468 q 1042 414 1090 431 q 933 397 993 397 q 771 435 850 397 q 778 401 778 417 q 742 302 779 351 q 646 222 706 253 q 525 190 586 190 q 469 194 501 190 q 424 201 438 197 l 126 481 l 168 529 l 243 460 q 485 332 383 332 q 590 368 550 335 q 631 454 631 401 q 581 548 631 496 q 422 669 531 600 l 422 715 q 542 798 501 750 q 583 904 583 846 q 564 968 583 944 q 510 992 544 992 q 397 958 464 992 q 261 865 331 924 l 182 947 l 182 993 q 308 1077 247 1049 q 421 1106 369 1106 q 561 1061 488 1106 q 685 950 635 1017 q 735 825 735 883 q 697 712 735 767 q 596 622 660 657 q 663 572 633 597 q 761 517 717 533 q 846 500 806 500 q 985 542 919 500 q 1138 686 1050 583 l 1138 965 l 885 965 l 806 1046 l 806 1092 l 1589 1092 l 1360 1292 q 1251 1360 1308 1338 q 1118 1382 1193 1382 q 1045 1378 1076 1382 q 967 1365 1014 1374 q 811 1347 885 1347 q 646 1378 714 1347 q 475 1497 578 1408 l 251 1688 l 293 1736 l 497 1561 q 606 1494 547 1517 q 738 1472 665 1472 q 812 1476 779 1472 q 889 1489 844 1481 q 1046 1507 974 1507 q 1212 1476 1143 1507 q 1382 1356 1281 1444 l 1686 1092 l 1879 1092 l 1958 1011 l 1957 965 l 1739 965 z "},"ओ":{"ha":1840,"x_min":126,"x_max":1958,"o":"m 1739 965 l 1739 -14 l 1693 -14 l 1546 126 l 1586 172 l 1586 965 l 1289 965 l 1289 -14 l 1243 -14 l 1096 126 l 1136 172 l 1136 468 q 1042 414 1090 431 q 933 397 993 397 q 771 435 850 397 q 778 401 778 417 q 742 302 779 351 q 646 222 706 253 q 525 190 586 190 q 469 194 501 190 q 424 201 438 197 l 126 481 l 168 529 l 243 460 q 485 332 383 332 q 590 368 550 335 q 631 454 631 401 q 581 548 631 496 q 422 669 531 600 l 422 715 q 542 798 501 750 q 583 904 583 846 q 564 968 583 944 q 510 992 544 992 q 397 958 464 992 q 261 865 331 924 l 182 947 l 182 993 q 308 1077 247 1049 q 421 1106 369 1106 q 561 1061 488 1106 q 685 950 635 1017 q 735 825 735 883 q 697 712 735 767 q 596 622 660 657 q 663 572 633 597 q 761 517 717 533 q 846 500 806 500 q 985 542 919 500 q 1138 686 1050 583 l 1138 965 l 885 965 l 806 1046 l 806 1092 l 1589 1092 l 1290 1350 q 1181 1417 1239 1396 q 1050 1439 1124 1439 q 899 1421 988 1439 l 819 1503 l 819 1549 q 976 1565 900 1565 q 1141 1534 1072 1565 q 1313 1414 1210 1503 l 1686 1092 l 1879 1092 l 1958 1011 l 1957 965 l 1739 965 z "},"औ":{"ha":1840,"x_min":126,"x_max":1958,"o":"m 1739 965 l 1739 -14 l 1693 -14 l 1546 126 l 1586 172 l 1586 965 l 1289 965 l 1289 -14 l 1243 -14 l 1096 126 l 1136 172 l 1136 468 q 1042 414 1090 431 q 933 397 993 397 q 771 435 850 397 q 778 401 778 417 q 742 302 779 351 q 646 222 706 253 q 525 190 586 190 q 469 194 501 190 q 424 201 438 197 l 126 481 l 168 529 l 243 460 q 485 332 383 332 q 590 368 550 335 q 631 454 631 401 q 581 548 631 496 q 422 669 531 600 l 422 715 q 542 798 501 750 q 583 904 583 846 q 564 968 583 944 q 510 992 544 992 q 397 958 464 992 q 261 865 331 924 l 182 947 l 182 993 q 308 1077 247 1049 q 421 1106 369 1106 q 561 1061 488 1106 q 685 950 635 1017 q 735 825 735 883 q 697 712 735 767 q 596 622 660 657 q 663 572 633 597 q 761 517 717 533 q 846 500 806 500 q 985 542 919 500 q 1138 686 1050 583 l 1138 965 l 885 965 l 806 1046 l 806 1092 l 1431 1092 l 1236 1260 q 1126 1326 1185 1304 q 994 1349 1068 1349 q 844 1331 931 1349 l 765 1411 l 765 1457 q 922 1474 846 1474 q 1087 1443 1018 1474 q 1258 1324 1156 1413 l 1528 1092 l 1717 1092 l 1236 1508 q 1127 1576 1185 1554 q 994 1597 1069 1597 q 844 1579 931 1597 l 765 1660 l 765 1706 q 922 1722 847 1722 q 1088 1692 1019 1722 q 1258 1572 1157 1661 l 1815 1092 l 1879 1092 l 1958 1011 l 1957 965 l 1739 965 z "},"ॳ":{"ha":1389,"x_min":126,"x_max":1508,"o":"m 1289 965 l 1289 -14 l 1243 -14 l 1096 126 l 1136 172 l 1136 468 q 1042 414 1090 431 q 933 397 993 397 q 771 435 850 397 q 778 401 778 417 q 742 302 779 351 q 646 222 706 253 q 525 190 586 190 q 469 194 501 190 q 424 201 438 197 l 126 481 l 168 529 l 243 460 q 485 332 383 332 q 590 368 550 335 q 631 454 631 401 q 581 548 631 496 q 422 669 531 600 l 422 715 q 542 798 501 750 q 583 904 583 846 q 564 968 583 944 q 510 992 544 992 q 397 958 464 992 q 261 865 331 924 l 182 947 l 182 993 q 308 1077 247 1049 q 421 1106 369 1106 q 561 1061 488 1106 q 685 950 635 1017 q 735 825 735 883 q 697 712 735 767 q 596 622 660 657 q 663 572 633 597 q 761 517 717 533 q 846 500 806 500 q 985 542 919 500 q 1138 686 1050 583 l 1138 965 l 885 965 l 806 1046 l 806 1092 l 1429 1092 l 1508 1011 l 1507 965 l 1289 965 m 1290 1269 l 1290 1788 l 1183 1843 l 1138 1843 l 1138 1324 l 1244 1269 l 1290 1269 z "},"ॴ":{"ha":1840,"x_min":126,"x_max":1958,"o":"m 1739 965 l 1739 -14 l 1693 -14 l 1546 126 l 1586 172 l 1586 965 l 1289 965 l 1289 -14 l 1243 -14 l 1096 126 l 1136 172 l 1136 468 q 1042 414 1090 431 q 933 397 993 397 q 771 435 850 397 q 778 401 778 417 q 742 302 779 351 q 646 222 706 253 q 525 190 586 190 q 469 194 501 190 q 424 201 438 197 l 126 481 l 168 529 l 243 460 q 485 332 383 332 q 590 368 550 335 q 631 454 631 401 q 581 548 631 496 q 422 669 531 600 l 422 715 q 542 798 501 750 q 583 904 583 846 q 564 968 583 944 q 510 992 544 992 q 397 958 464 992 q 261 865 331 924 l 182 947 l 182 993 q 308 1077 247 1049 q 421 1106 369 1106 q 561 1061 488 1106 q 685 950 635 1017 q 735 825 735 883 q 697 712 735 767 q 596 622 660 657 q 663 572 633 597 q 761 517 717 533 q 846 500 806 500 q 985 542 919 500 q 1138 686 1050 583 l 1138 965 l 885 965 l 806 1046 l 806 1092 l 1588 1092 l 1588 1565 l 1633 1565 l 1740 1510 l 1740 1092 l 1879 1092 l 1958 1011 l 1957 965 l 1739 965 z "},"ॵ":{"ha":1840,"x_min":126,"x_max":1958,"o":"m 1739 968 l 1739 -11 l 1693 -11 l 1546 129 l 1586 175 l 1586 968 l 1289 968 l 1289 -11 l 1243 -11 l 1096 129 l 1136 175 l 1136 471 q 1042 417 1090 433 q 933 400 993 400 q 771 438 850 400 q 778 404 778 419 q 742 305 779 354 q 646 224 706 256 q 525 193 586 193 q 469 197 501 193 q 424 204 438 200 l 126 483 l 168 532 l 243 463 q 485 335 383 335 q 590 371 550 338 q 631 457 631 404 q 581 551 631 499 q 422 672 531 603 l 422 718 q 542 801 501 753 q 583 907 583 849 q 564 971 583 947 q 510 994 544 994 q 397 960 464 994 q 261 868 331 926 l 182 950 l 182 996 q 308 1080 247 1051 q 421 1108 369 1108 q 561 1064 488 1108 q 685 953 635 1019 q 735 828 735 886 q 697 715 735 769 q 596 625 660 660 q 663 575 633 600 q 761 519 717 536 q 846 503 806 503 q 985 544 919 503 q 1138 689 1050 586 l 1138 968 l 885 968 l 806 1049 l 806 1094 l 1585 1094 l 1356 1294 q 1247 1363 1304 1340 q 1114 1385 1189 1385 q 1041 1381 1072 1385 q 963 1368 1010 1376 q 807 1350 881 1350 q 642 1381 710 1350 q 471 1500 574 1411 l 247 1690 l 289 1739 l 493 1564 q 602 1497 543 1519 q 733 1475 661 1475 q 808 1479 775 1475 q 885 1492 840 1483 q 1042 1510 969 1510 q 1208 1478 1139 1510 q 1378 1358 1276 1447 l 1681 1096 q 1778 1189 1778 1124 q 1747 1255 1778 1229 q 1651 1311 1715 1281 q 1568 1357 1600 1336 q 1514 1409 1536 1378 q 1492 1485 1492 1440 q 1534 1578 1492 1533 q 1642 1644 1576 1622 l 1722 1564 l 1722 1518 q 1676 1492 1696 1515 q 1657 1443 1657 1469 q 1692 1379 1657 1404 q 1794 1324 1726 1354 q 1906 1263 1869 1290 q 1943 1189 1943 1235 q 1889 1082 1943 1132 l 1958 1011 l 1957 968 l 1739 968 z "},"ॶ":{"ha":1389,"x_min":126,"x_max":1508,"o":"m 1289 965 l 1289 -14 l 1243 -14 l 1096 126 l 1136 172 l 1136 468 q 1042 414 1090 431 q 933 397 993 397 q 771 435 850 397 q 778 401 778 417 q 742 302 779 351 q 646 222 706 253 q 525 190 586 190 q 469 194 501 190 q 424 201 438 197 l 126 481 l 168 529 l 243 460 q 485 332 383 332 q 590 368 550 335 q 631 454 631 401 q 581 548 631 496 q 422 669 531 600 l 422 715 q 542 798 501 750 q 583 904 583 846 q 564 968 583 944 q 510 992 544 992 q 397 958 464 992 q 261 865 331 924 l 182 947 l 182 993 q 308 1077 247 1049 q 421 1106 369 1106 q 561 1061 488 1106 q 685 950 635 1017 q 735 825 735 883 q 697 712 735 767 q 596 622 660 657 q 663 572 633 597 q 761 517 717 533 q 846 500 806 500 q 985 542 919 500 q 1138 686 1050 583 l 1138 965 l 885 965 l 806 1046 l 806 1092 l 1429 1092 l 1508 1011 l 1507 965 l 1289 965 m 836 -219 q 1002 -194 918 -219 q 1163 -122 1086 -168 l 1240 -203 l 1240 -249 q 1074 -335 1158 -303 q 919 -367 989 -367 q 792 -357 860 -367 l 575 -187 l 617 -140 q 728 -199 671 -179 q 836 -219 785 -219 z "},"ॷ":{"ha":1389,"x_min":126,"x_max":1508,"o":"m 1289 965 l 1289 -14 l 1243 -14 l 1096 126 l 1136 172 l 1136 468 q 1042 414 1090 431 q 933 397 993 397 q 771 435 850 397 q 778 401 778 417 q 742 302 779 351 q 646 222 706 253 q 525 190 586 190 q 469 194 501 190 q 424 201 438 197 l 126 481 l 168 529 l 243 460 q 485 332 383 332 q 590 368 550 335 q 631 454 631 401 q 581 548 631 496 q 422 669 531 600 l 422 715 q 542 798 501 750 q 583 904 583 846 q 564 968 583 944 q 510 992 544 992 q 397 958 464 992 q 261 865 331 924 l 182 947 l 182 993 q 308 1077 247 1049 q 421 1106 369 1106 q 561 1061 488 1106 q 685 950 635 1017 q 735 825 735 883 q 697 712 735 767 q 596 622 660 657 q 663 572 633 597 q 761 517 717 533 q 846 500 806 500 q 985 542 919 500 q 1138 686 1050 583 l 1138 965 l 885 965 l 806 1046 l 806 1092 l 1429 1092 l 1508 1011 l 1507 965 l 1289 965 m 835 -219 q 1001 -194 917 -219 q 1161 -122 1085 -168 l 1239 -203 l 1239 -249 q 1072 -335 1157 -303 q 918 -367 988 -367 q 790 -357 858 -367 l 574 -187 l 615 -140 q 726 -199 669 -179 q 835 -219 783 -219 m 835 -504 q 1001 -478 917 -504 q 1161 -407 1085 -453 l 1239 -487 l 1239 -533 q 1072 -619 1157 -587 q 918 -651 988 -651 q 790 -642 858 -651 l 574 -472 l 615 -425 q 726 -484 669 -464 q 835 -504 783 -504 z "},"ा":{"ha":450,"x_min":17,"x_max":569,"o":"m 351 965 l 351 -14 l 306 -14 l 158 126 l 199 172 l 199 965 l 96 965 l 17 1046 l 17 1092 l 490 1092 l 569 1011 l 569 965 l 351 965 z "},"ि":{"ha":450,"x_min":17,"x_max":676,"o":"m 232 1485 q 383 1445 313 1485 q 525 1317 454 1406 q 676 1078 596 1228 l 631 1028 q 440 1282 526 1204 q 275 1360 354 1360 q 224 1341 240 1360 q 207 1289 207 1322 q 230 1197 207 1250 q 293 1092 253 1144 l 351 1092 l 351 -14 l 306 -14 l 158 126 l 199 172 l 199 965 l 107 965 l 17 1046 l 17 1092 l 194 1092 q 85 1220 121 1157 q 50 1338 50 1283 q 100 1444 50 1404 q 232 1485 150 1485 z "},"ी":{"ha":450,"x_min":-340,"x_max":569,"o":"m 351 965 l 351 -14 l 306 -14 l 158 126 l 199 172 l 199 965 l 96 965 l 17 1046 l 17 1092 l 199 1092 q 31 1297 108 1233 q -118 1360 -46 1360 q -185 1290 -185 1360 q -148 1168 -185 1239 q -50 1036 -111 1097 l -128 1036 q -288 1192 -236 1114 q -340 1338 -340 1271 q -291 1444 -340 1404 q -160 1485 -242 1485 q 59 1395 -42 1485 q 276 1092 160 1306 l 490 1092 l 569 1011 l 569 965 l 351 965 z "},"ॉ":{"ha":450,"x_min":-124,"x_max":700,"o":"m 351 965 l 351 -14 l 306 -14 l 158 126 l 199 172 l 199 965 l 96 965 l 17 1046 l 17 1092 l 490 1092 l 569 1011 l 569 965 l 351 965 m 53 1621 q 42 1529 42 1565 q 92 1437 42 1467 q 246 1407 143 1407 q 442 1469 367 1407 q 535 1644 518 1532 l 589 1689 l 700 1579 q 638 1435 689 1500 q 504 1333 586 1371 q 324 1296 422 1296 q 111 1338 215 1296 q -58 1446 7 1379 q -124 1582 -124 1513 q -112 1692 -124 1639 l -71 1738 l 53 1621 z "},"ॊ":{"ha":450,"x_min":-1137,"x_max":569,"o":"m 351 965 l 351 -14 l 306 -14 l 158 126 l 199 172 l 199 965 l 96 965 l 17 1046 l 17 1092 l 200 1092 l -29 1292 q -138 1360 -81 1338 q -271 1382 -196 1382 q -345 1378 -312 1382 q -422 1365 -378 1374 q -578 1347 -507 1347 q -743 1378 -675 1347 q -914 1497 -811 1408 l -1137 1688 l -1097 1736 l -892 1561 q -783 1494 -842 1517 q -651 1472 -724 1472 q -577 1476 -610 1472 q -500 1489 -544 1481 q -343 1507 -415 1507 q -178 1476 -246 1507 q -7 1356 -110 1446 l 297 1092 l 490 1092 l 569 1011 l 569 965 l 351 965 z "},"ो":{"ha":450,"x_min":-569,"x_max":569,"o":"m 351 965 l 351 -14 l 306 -14 l 158 126 l 199 172 l 199 965 l 96 965 l 17 1046 l 17 1092 l 200 1092 l -99 1350 q -208 1417 -150 1396 q -340 1439 -265 1439 q -490 1421 -404 1439 l -569 1503 l -569 1549 q -412 1565 -489 1565 q -248 1534 -317 1565 q -76 1414 -179 1503 l 297 1092 l 490 1092 l 569 1011 l 569 965 l 351 965 z "},"ौ":{"ha":450,"x_min":-625,"x_max":569,"o":"m 351 965 l 351 -14 l 306 -14 l 158 126 l 199 172 l 199 965 l 96 965 l 17 1046 l 17 1092 l 40 1092 l -154 1260 q -264 1326 -206 1304 q -394 1349 -322 1349 q -546 1331 -457 1349 l -625 1411 l -625 1457 q -468 1474 -544 1474 q -303 1442 -372 1474 q -132 1324 -233 1411 l 138 1092 l 328 1092 l -154 1508 q -263 1576 -206 1554 q -394 1597 -321 1597 q -546 1579 -457 1597 l -625 1660 l -625 1706 q -468 1722 -544 1722 q -302 1692 -371 1722 q -132 1572 -233 1661 l 425 1092 l 490 1092 l 569 1011 l 569 965 l 351 965 z "},"ॎ":{"ha":450,"x_min":158,"x_max":569,"o":"m 351 965 l 351 -14 l 306 -14 l 158 126 l 199 172 l 199 1092 l 490 1092 l 569 1011 l 569 965 l 351 965 z "},"ऻ":{"ha":450,"x_min":17,"x_max":569,"o":"m 351 965 l 351 -14 l 306 -14 l 158 126 l 199 172 l 199 965 l 96 965 l 17 1046 l 17 1092 l 199 1092 l 199 1565 l 244 1565 l 351 1510 l 351 1092 l 490 1092 l 569 1011 l 569 965 l 351 965 z "},"ॏ":{"ha":450,"x_min":-1142,"x_max":569,"o":"m 351 968 l 351 -11 l 306 -11 l 158 129 l 199 175 l 199 968 l 96 968 l 17 1049 l 17 1094 l 196 1094 l -33 1294 q -142 1363 -85 1340 q -275 1385 -200 1385 q -349 1381 -317 1385 q -426 1368 -382 1376 q -582 1350 -511 1350 q -747 1381 -679 1350 q -918 1500 -815 1411 l -1142 1690 l -1101 1739 l -896 1564 q -787 1497 -846 1519 q -656 1475 -728 1475 q -581 1479 -614 1475 q -504 1492 -549 1483 q -347 1510 -419 1510 q -182 1479 -250 1510 q -11 1358 -114 1449 l 292 1096 q 389 1189 389 1124 q 358 1255 389 1229 q 263 1311 326 1281 q 179 1357 211 1336 q 125 1409 147 1378 q 103 1485 103 1440 q 145 1578 103 1533 q 253 1644 188 1622 l 333 1564 l 333 1518 q 288 1492 307 1515 q 268 1443 268 1469 q 303 1379 268 1404 q 406 1324 338 1354 q 517 1263 481 1290 q 554 1189 554 1235 q 500 1082 554 1132 l 569 1011 l 569 968 l 351 968 z "},"क":{"ha":1433,"x_min":-65,"x_max":1499,"o":"m 792 722 q 928 765 849 765 q 1094 721 1008 765 q 1238 602 1181 676 q 1294 444 1294 528 q 1257 335 1294 385 q 1155 258 1219 286 q 1010 231 1090 229 l 929 311 l 929 357 q 975 353 951 353 q 1085 397 1046 353 q 1125 506 1125 442 q 1095 619 1125 579 q 1006 660 1065 660 q 928 640 961 660 q 872 594 894 621 q 817 519 849 567 l 796 488 l 792 479 l 792 -14 l 746 -14 l 599 126 l 639 172 l 639 269 q 504 226 582 226 q 336 271 422 226 q 194 390 250 315 q 138 547 138 464 q 174 657 138 607 q 276 735 211 707 q 421 761 340 763 l 501 681 l 501 635 q 456 639 478 639 q 345 594 385 639 q 306 486 306 550 q 335 372 306 413 q 425 332 365 332 q 502 351 469 332 q 558 397 535 369 q 611 469 581 424 l 636 506 l 640 510 l 640 965 l 14 965 l -65 1046 l -65 1092 l 1419 1092 l 1499 1011 l 1499 965 l 792 967 l 792 722 z "},"ख":{"ha":1463,"x_min":-140,"x_max":1581,"o":"m 1363 964 l 1363 -15 l 1317 -15 l 1169 125 l 1210 171 l 1210 275 q 1068 226 1153 226 q 902 271 988 226 q 760 389 817 315 q 704 547 704 463 q 741 657 704 607 q 843 735 778 707 q 989 761 908 763 l 1068 681 l 1068 635 q 1024 639 1047 639 q 913 594 953 639 q 874 486 874 550 q 990 332 874 332 q 1073 354 1038 332 q 1138 414 1108 376 q 1210 521 1167 451 l 1210 965 l 428 965 q 528 618 528 794 q 502 483 528 544 q 438 383 476 422 q 360 332 399 343 l 704 11 l 661 -36 l 192 403 q 122 485 150 442 q 94 558 94 528 q 196 626 94 626 q 343 600 260 626 q 351 697 351 646 q 335 843 351 771 q 290 965 318 915 l -53 965 l -140 1046 l -140 1092 l 1501 1092 l 1581 1011 l 1581 964 l 1363 964 z "},"ग":{"ha":1044,"x_min":-143,"x_max":1164,"o":"m 946 965 l 946 -14 l 900 -14 l 753 126 l 793 172 l 793 965 l 494 965 l 494 528 q 467 439 494 486 q 401 360 440 392 q 331 328 363 328 q 231 368 288 328 q 133 465 174 408 q 92 564 92 521 q 126 607 92 588 q 222 626 161 626 q 342 610 271 626 l 342 965 l -62 965 l -143 1046 l -143 1092 l 1085 1092 l 1164 1011 l 1164 965 l 946 965 z "},"घ":{"ha":1167,"x_min":-78,"x_max":1286,"o":"m 1286 965 l 1068 965 l 1068 -14 l 1022 -14 l 875 126 l 915 172 l 915 244 q 796 158 860 189 q 649 126 732 126 q 444 168 546 126 q 278 279 343 210 q 214 428 214 349 q 240 516 214 475 q 314 588 265 557 q 169 678 228 618 q 111 810 111 738 q 145 905 111 865 q 246 965 179 944 l 1 965 l -78 1046 l -78 1092 l 1207 1092 l 1286 1011 l 1286 965 m 436 964 l 493 906 l 493 860 q 419 869 456 869 q 315 833 353 868 q 276 757 276 799 q 399 626 276 679 q 565 649 475 650 l 644 568 l 644 522 q 597 524 629 524 q 434 480 489 522 q 379 364 379 438 q 424 266 379 300 q 560 232 468 232 q 676 256 624 232 q 770 317 728 279 q 881 428 813 356 l 915 464 l 915 964 l 436 964 z "},"ङ":{"ha":1133,"x_min":-142,"x_max":1368,"o":"m 1368 964 l 829 964 l 829 710 l 539 710 q 413 671 464 710 q 363 575 363 632 q 383 525 363 546 q 458 475 403 504 q 628 551 568 551 q 776 502 699 551 q 904 379 853 453 q 956 238 956 306 q 888 126 956 186 q 719 26 819 67 q 532 -14 619 -14 q 400 -3 478 -14 l 8 335 l 50 382 l 244 217 q 362 148 299 169 q 510 126 425 126 q 649 155 579 126 q 765 227 719 183 q 810 314 810 271 q 781 373 810 344 q 721 401 753 401 q 542 340 650 401 q 398 398 475 346 q 269 521 321 450 q 217 650 217 592 q 249 744 217 701 q 335 813 281 788 q 454 838 390 838 l 678 838 l 678 965 l -62 965 l -142 1046 l -142 1092 l 1290 1092 l 1368 1010 l 1368 964 m 1135 722 l 1135 538 l 1089 538 l 982 592 l 982 776 l 1028 776 l 1135 722 z "},"च":{"ha":1136,"x_min":-96,"x_max":1256,"o":"m 1036 965 l 1036 -14 l 990 -14 l 843 126 l 883 172 l 883 276 q 742 228 826 228 q 576 272 661 228 q 434 390 490 317 q 378 549 378 464 q 401 635 378 594 l 139 635 l 60 715 l 60 761 l 643 761 l 664 761 l 743 681 l 743 635 q 699 639 722 639 q 588 594 628 639 q 549 486 549 550 q 665 332 549 332 q 748 354 713 332 q 813 414 783 376 q 885 521 842 451 l 885 965 l -18 965 l -96 1046 l -96 1092 l 1176 1092 l 1256 1011 l 1254 965 l 1036 965 z "},"छ":{"ha":1356,"x_min":-78,"x_max":1526,"o":"m 1108 767 q 1215 682 1165 739 q 1296 549 1265 625 q 1326 389 1326 472 q 1244 192 1326 286 q 1023 42 1163 99 q 719 -15 883 -15 q 505 29 613 -15 q 327 147 397 74 q 257 304 257 221 q 311 454 257 388 q 177 544 231 488 q 124 663 124 600 q 160 756 124 713 q 262 826 197 800 q 406 853 326 853 l 426 851 l 506 771 l 506 725 q 431 735 468 735 q 326 699 363 735 q 289 615 289 664 q 365 506 289 542 q 575 571 453 571 q 611 569 599 571 l 689 489 l 689 443 q 644 446 675 446 q 481 388 538 446 q 424 242 424 329 q 476 129 424 168 q 638 90 529 90 q 903 141 786 90 q 1089 274 1021 192 q 970 319 1029 281 q 874 417 911 357 q 836 544 836 478 q 869 690 836 626 q 957 778 903 753 l 957 965 l 1 965 l -78 1046 l -78 1092 l 1449 1092 l 1526 1011 l 1526 965 l 1108 963 l 1108 767 m 1161 447 q 1139 624 1161 563 q 1072 686 1117 686 q 1021 628 1039 686 q 1003 478 1003 569 q 1013 401 1003 428 q 1043 374 1024 374 q 1108 393 1081 374 q 1160 447 1136 413 l 1161 447 z "},"ज":{"ha":1136,"x_min":-65,"x_max":1256,"o":"m 1038 965 l 1038 -14 l 992 -14 l 844 126 l 885 172 l 885 500 l 426 500 l 717 247 q 729 169 729 215 q 696 77 729 119 q 603 10 663 35 q 472 -14 544 -14 q 344 -4 399 -14 l 50 226 l 92 274 q 292 131 224 167 q 422 94 361 94 q 524 128 486 94 q 563 224 563 163 q 537 299 563 253 q 453 396 511 344 l 239 581 l 281 626 l 885 626 l 885 965 l 14 965 l -65 1046 l -65 1092 l 1176 1092 l 1256 1011 l 1256 965 l 1038 965 z "},"झ":{"ha":1408,"x_min":-36,"x_max":1528,"o":"m 1308 967 l 1308 -12 l 1263 -12 l 1115 128 l 1156 174 l 1156 524 q 1031 442 1083 461 q 890 424 978 424 q 863 425 872 424 q 926 332 903 381 q 949 239 949 283 q 883 128 949 188 q 722 28 818 68 q 543 -12 626 -12 q 433 3 490 -12 l 586 -143 q 699 -218 642 -194 q 831 -242 757 -242 q 988 -222 890 -242 l 1069 -304 l 1069 -350 q 906 -367 986 -367 q 788 -354 838 -367 q 688 -309 739 -342 q 569 -214 636 -276 l 201 135 l 203 136 q 134 228 158 181 q 110 319 110 275 q 128 388 110 367 q 171 408 146 408 q 262 355 215 408 q 361 167 308 301 q 522 126 425 126 q 653 155 586 126 q 763 227 719 183 q 806 314 806 271 q 776 373 806 344 q 717 401 747 401 q 536 340 646 401 q 397 399 475 346 q 265 522 319 451 q 211 650 211 592 q 243 744 211 701 q 330 813 275 788 q 449 838 385 838 l 672 838 l 672 965 l 43 965 l -36 1046 l -36 1092 l 1449 1092 l 1528 1011 l 1526 967 l 1308 967 m 807 525 q 906 536 868 525 q 996 585 943 547 q 1154 717 1049 624 l 1154 965 l 822 965 l 822 711 l 532 711 q 407 672 458 711 q 356 576 356 633 q 376 526 356 547 q 451 476 396 506 q 622 553 561 553 q 713 533 665 553 q 808 525 747 525 l 807 525 z "},"ञ":{"ha":1088,"x_min":-65,"x_max":1207,"o":"m 988 965 l 988 -14 l 942 -14 l 794 126 l 835 172 l 835 485 q 752 428 788 443 q 667 411 717 413 q 622 302 660 351 q 524 223 585 253 q 389 193 463 193 q 308 203 340 193 l 92 372 l 133 419 q 324 317 253 317 q 458 374 413 318 q 503 533 503 431 q 475 637 503 596 q 397 681 447 678 q 294 657 344 681 q 206 593 244 633 l 125 674 l 125 719 q 220 767 167 746 q 318 788 274 788 q 456 753 386 788 q 578 659 525 718 q 656 528 632 600 q 728 578 689 543 q 836 686 767 613 l 836 965 l 14 965 l -65 1046 l -65 1092 l 1128 1092 l 1207 1011 l 1206 965 l 988 965 z "},"ट":{"ha":949,"x_min":-65,"x_max":1060,"o":"m 533 608 q 374 535 433 608 q 314 336 314 463 q 372 163 314 229 q 525 97 431 97 q 681 142 607 97 q 840 289 756 186 l 921 208 l 921 163 q 596 -14 764 -14 q 387 46 492 -14 q 215 203 282 106 q 147 407 147 300 q 189 565 147 489 q 300 689 231 642 q 450 736 369 736 l 528 736 l 528 965 l 15 965 l -65 1046 l -65 1092 l 979 1092 l 1060 1011 l 1060 965 l 681 965 l 681 608 l 533 608 z "},"ठ":{"ha":1118,"x_min":-65,"x_max":1183,"o":"m 681 731 q 829 636 763 696 q 935 503 896 576 q 974 354 974 429 q 926 166 974 250 q 795 34 879 82 q 608 -14 711 -14 q 389 46 496 -14 q 215 201 282 106 q 147 396 147 297 q 188 565 147 486 q 299 690 229 643 q 450 736 368 736 l 528 736 l 528 965 l 15 965 l -65 1046 l -65 1092 l 1103 1092 l 1183 1011 l 1183 965 l 681 965 l 681 731 m 807 418 q 681 644 807 603 l 681 594 l 635 594 l 607 608 l 533 608 q 374 535 433 608 q 314 340 314 461 q 374 159 314 221 q 535 97 435 97 q 733 183 658 97 q 807 417 807 269 l 807 418 z "},"ड":{"ha":968,"x_min":-142,"x_max":1097,"o":"m 539 710 q 413 671 464 710 q 363 575 363 632 q 383 525 363 546 q 458 475 403 504 q 628 551 568 551 q 776 502 699 551 q 904 379 853 453 q 956 238 956 306 q 888 126 956 186 q 719 26 819 67 q 532 -14 619 -14 q 400 -3 478 -14 l 8 335 l 50 382 l 244 217 q 362 148 299 169 q 510 126 425 126 q 649 155 579 126 q 765 227 719 183 q 810 314 810 271 q 781 373 810 344 q 721 401 753 401 q 542 340 650 401 q 398 398 475 346 q 269 521 321 450 q 217 650 217 592 q 249 744 217 701 q 335 813 281 788 q 454 838 390 838 l 678 838 l 678 965 l -62 965 l -142 1046 l -142 1092 l 1018 1092 l 1097 1011 l 1097 965 l 831 965 l 831 711 l 540 711 l 539 710 z "},"ढ":{"ha":953,"x_min":-65,"x_max":1065,"o":"m 526 607 q 364 539 425 607 q 303 358 303 471 q 375 183 303 246 q 581 114 447 119 q 517 196 540 149 q 493 294 493 243 q 535 394 493 356 q 644 432 578 432 q 783 394 718 432 q 888 292 849 356 q 928 158 928 229 q 861 32 928 78 q 678 -14 794 -14 q 419 49 542 -14 q 223 213 297 111 q 149 429 149 315 q 189 582 149 511 q 298 694 229 653 q 446 736 367 736 l 532 736 l 532 965 l 15 965 l -65 1046 l -65 1092 l 985 1092 l 1065 1011 l 1065 965 l 685 965 l 685 608 l 526 608 l 526 607 m 724 331 q 678 298 697 331 q 658 221 658 265 q 669 170 658 186 q 704 154 681 154 q 763 176 733 154 q 775 228 775 200 q 760 301 775 271 q 724 331 744 331 z "},"ण":{"ha":1211,"x_min":-65,"x_max":1331,"o":"m 1113 965 l 1113 -14 l 1067 -14 l 919 126 l 960 172 l 960 965 l 725 965 l 725 628 q 688 497 725 560 q 589 394 650 433 q 457 354 528 354 q 304 394 382 354 q 175 502 226 435 q 124 646 124 569 l 124 965 l 14 965 l -65 1046 l -65 1092 l 1251 1092 l 1331 1011 l 1331 965 l 1113 965 m 276 965 l 276 600 q 376 458 276 458 q 468 479 424 458 q 542 543 513 500 q 572 650 572 586 l 572 965 l 276 965 z "},"त":{"ha":904,"x_min":-65,"x_max":1024,"o":"m 806 965 l 806 -14 l 760 -14 l 613 126 l 653 172 l 653 500 l 403 500 q 297 465 329 500 q 265 360 265 429 q 286 260 265 306 q 371 157 307 215 l 522 21 l 479 -26 l 111 315 q 100 399 100 351 q 163 569 100 513 q 344 626 225 626 l 653 626 l 653 965 l 21 965 l -65 1046 l -65 1092 l 944 1092 l 1024 1011 l 1024 965 l 806 965 z "},"थ":{"ha":1063,"x_min":85,"x_max":1183,"o":"m 965 965 l 965 -14 l 919 -14 l 772 126 l 813 172 l 813 324 q 714 260 768 282 q 585 239 660 239 q 373 280 483 239 q 187 383 263 321 q 108 503 111 444 l 149 549 q 181 546 163 546 q 306 574 254 546 q 383 653 357 603 q 245 692 315 654 q 130 794 175 731 q 85 929 85 857 q 116 1024 85 981 q 197 1092 147 1067 q 301 1118 247 1118 q 428 1061 364 1118 q 535 910 493 1004 q 578 713 578 817 q 540 582 578 642 q 433 483 501 522 q 276 433 365 443 q 503 344 324 344 q 608 365 563 344 q 692 420 654 386 q 786 515 729 454 l 811 542 l 811 965 l 708 965 l 629 1046 l 629 1092 l 1103 1092 l 1182 1011 l 1183 965 l 965 965 m 307 758 q 413 828 368 758 q 394 967 410 918 q 354 1017 379 1017 q 278 973 306 1017 q 250 864 250 929 q 265 785 250 813 q 307 758 279 758 z "},"द":{"ha":924,"x_min":-65,"x_max":1036,"o":"m 525 610 q 412 581 463 610 q 331 501 361 553 q 301 382 301 449 q 349 196 301 260 q 479 132 397 132 q 543 140 510 132 q 528 247 528 210 q 606 336 528 336 q 716 298 658 336 q 813 203 774 260 q 853 93 853 146 q 824 26 853 54 q 744 -11 794 -3 l 974 -226 l 931 -272 l 653 -11 q 401 65 517 0 q 217 230 285 129 q 149 444 149 331 q 190 587 149 519 q 301 695 232 654 q 446 736 369 736 l 539 736 l 539 965 l 15 965 l -65 1046 l -65 1092 l 956 1092 l 1036 1011 l 1036 965 l 692 965 l 692 608 l 526 608 l 525 610 z "},"ध":{"ha":1144,"x_min":158,"x_max":1264,"o":"m 1046 965 l 1046 -14 l 1000 -14 l 853 126 l 893 172 l 893 386 q 778 306 829 328 q 668 283 726 283 q 505 324 585 283 q 374 430 425 365 q 324 561 324 494 q 340 635 324 599 q 388 699 357 671 q 219 840 281 756 q 158 1018 158 924 q 215 1167 158 1108 q 372 1226 272 1226 q 522 1194 447 1226 q 645 1110 597 1161 q 693 1008 693 1060 q 644 920 693 956 q 532 885 596 885 q 494 888 522 885 l 401 960 l 401 1006 q 447 996 421 996 q 506 1017 483 996 q 528 1069 528 1038 q 515 1104 528 1093 q 471 1115 501 1115 q 364 1068 404 1115 q 324 942 324 1021 q 354 835 324 879 q 460 747 385 790 q 615 778 529 778 l 690 713 l 690 667 q 647 669 657 669 q 531 622 572 669 q 489 493 489 575 q 515 415 489 440 q 583 389 540 389 q 669 403 632 389 q 755 458 706 417 q 893 590 804 500 l 893 965 l 790 965 l 711 1046 l 711 1092 l 1185 1092 l 1264 1011 l 1264 965 l 1046 965 z "},"न":{"ha":904,"x_min":-143,"x_max":1024,"o":"m 804 965 l 804 -14 l 758 -14 l 611 126 l 651 172 l 651 500 l 449 500 q 413 419 439 460 q 356 353 388 379 q 300 328 325 328 q 213 373 263 328 q 126 479 163 418 q 90 581 90 540 q 136 617 90 607 q 308 626 182 626 l 653 626 l 653 965 l -56 965 l -143 1046 l -143 1092 l 944 1092 l 1024 1011 l 1022 965 l 804 965 z "},"ऩ":{"ha":904,"x_min":-143,"x_max":1024,"o":"m 804 965 l 804 -14 l 758 -14 l 611 126 l 651 172 l 651 500 l 449 500 q 413 419 439 460 q 356 353 388 379 q 300 328 325 328 q 213 373 263 328 q 126 479 163 418 q 90 581 90 540 q 136 617 90 607 q 308 626 182 626 l 653 626 l 653 965 l -56 965 l -143 1046 l -143 1092 l 944 1092 l 1024 1011 l 1022 965 l 804 965 m 400 -99 l 354 -99 l 247 -44 l 247 140 l 293 140 l 400 86 l 400 -99 z "},"प":{"ha":886,"x_min":-65,"x_max":1007,"o":"m 1007 965 l 789 965 l 789 -14 l 743 -14 l 596 126 l 636 172 l 636 406 q 489 354 576 354 q 322 399 407 354 q 180 517 236 443 q 124 674 124 590 l 124 965 l 14 965 l -65 1046 l -65 1092 l 926 1092 l 1007 1011 l 1007 965 m 278 965 l 278 628 q 408 458 278 458 q 494 481 457 458 q 560 542 531 504 q 636 649 590 579 l 636 965 l 278 965 z "},"फ":{"ha":1429,"x_min":-65,"x_max":1494,"o":"m 788 722 q 924 764 843 764 q 1090 719 1004 764 q 1233 601 1176 675 q 1290 443 1290 526 q 1253 334 1290 383 q 1151 256 1217 285 q 1007 229 1086 228 l 926 310 l 926 356 q 971 351 949 351 q 1085 397 1044 351 q 1125 508 1125 442 q 1095 622 1125 582 q 1006 661 1065 661 q 922 639 957 661 q 860 581 886 617 q 789 475 833 546 l 789 -14 l 743 -14 l 596 126 l 636 172 l 636 406 q 489 354 576 354 q 322 399 407 354 q 180 517 236 443 q 124 674 124 590 l 124 965 l 14 965 l -65 1046 l -65 1092 l 1414 1092 l 1494 1011 l 1494 965 l 788 965 l 788 722 m 407 458 q 492 481 456 458 q 559 542 529 504 q 635 649 589 579 l 635 965 l 276 965 l 276 628 q 407 458 276 458 z "},"ब":{"ha":882,"x_min":-65,"x_max":1001,"o":"m 782 965 l 782 -14 l 736 -14 l 589 126 l 629 172 l 629 276 q 488 228 572 228 q 322 272 407 228 q 180 390 236 317 q 124 549 124 464 q 160 658 124 608 q 263 736 197 708 q 408 763 328 764 l 488 682 l 488 636 q 443 640 467 640 q 342 604 382 640 l 561 419 q 631 521 583 447 l 631 965 l 14 965 l -65 1046 l -65 1092 l 922 1092 l 1001 1011 l 1000 965 l 782 965 m 410 332 q 518 374 469 332 l 306 553 q 293 486 293 522 q 410 332 293 332 z "},"भ":{"ha":1032,"x_min":78,"x_max":1151,"o":"m 933 965 l 933 -14 l 888 -14 l 740 126 l 781 172 l 781 500 l 499 500 q 435 383 482 439 q 349 328 388 328 q 256 371 308 328 q 165 474 203 414 q 128 581 128 535 q 149 608 128 599 q 219 622 169 618 q 358 626 268 626 l 360 626 l 360 740 q 228 775 294 743 q 120 859 163 807 q 78 971 78 911 q 121 1076 78 1033 q 238 1119 164 1119 q 374 1074 311 1119 q 475 951 438 1028 q 513 785 513 874 l 513 626 l 781 626 l 781 965 l 678 965 l 599 1046 l 599 1092 l 1072 1092 l 1151 1011 l 1151 965 l 933 965 m 246 906 q 286 843 246 843 q 360 875 328 843 q 315 1017 356 1017 q 263 985 282 1017 q 244 907 244 954 l 246 906 z "},"म":{"ha":1068,"x_min":-143,"x_max":1189,"o":"m 971 965 l 971 -14 l 925 -14 l 778 126 l 818 172 l 818 500 l 463 500 q 399 383 446 439 q 313 328 351 328 q 219 371 272 328 q 128 474 165 414 q 90 581 90 535 q 111 608 90 599 q 181 622 132 618 q 322 626 231 626 l 324 626 l 324 965 l -58 965 l -143 1046 l -143 1092 l 1108 1092 l 1188 1011 l 1189 965 l 971 965 m 818 965 l 478 965 l 478 626 l 814 626 l 818 622 l 818 965 z "},"य":{"ha":1008,"x_min":-100,"x_max":1126,"o":"m 1126 965 l 908 965 l 908 -14 l 863 -14 l 715 126 l 756 172 l 756 421 q 644 351 704 375 q 499 326 585 326 q 331 365 415 326 q 185 463 246 403 q 107 581 124 522 l 149 626 q 276 697 222 638 q 329 844 329 756 q 286 965 329 928 l -21 965 l -100 1046 l -100 1092 l 1047 1092 l 1126 1011 l 1126 965 m 397 967 q 467 866 442 921 q 493 751 493 811 q 431 600 493 665 q 269 521 368 535 q 418 432 304 432 q 529 452 481 432 q 617 504 578 472 q 719 600 656 536 l 756 636 l 754 967 l 397 967 z "},"र":{"ha":597,"x_min":-140,"x_max":708,"o":"m 428 965 q 528 618 528 794 q 502 483 528 544 q 438 383 476 422 q 360 332 399 343 l 704 11 l 661 -36 l 192 403 q 122 485 150 442 q 94 558 94 528 q 196 626 94 626 q 343 600 260 626 q 351 697 351 646 q 335 843 351 771 q 290 965 318 915 l -53 965 l -140 1046 l -140 1092 l 621 1092 l 708 1011 l 708 965 l 428 965 z "},"ऱ":{"ha":597,"x_min":-140,"x_max":708,"o":"m 428 965 q 528 618 528 794 q 502 483 528 544 q 438 383 476 422 q 360 332 399 343 l 704 11 l 661 -36 l 192 403 q 122 485 150 442 q 94 558 94 528 q 196 626 94 626 q 343 600 260 626 q 351 697 351 646 q 335 843 351 771 q 290 965 318 915 l -53 965 l -140 1046 l -140 1092 l 621 1092 l 708 1011 l 708 965 l 428 965 m 307 -99 l 261 -99 l 154 -44 l 154 140 l 200 140 l 307 86 l 307 -99 z "},"ल":{"ha":1183,"x_min":-65,"x_max":1303,"o":"m 1085 965 l 1085 -14 l 1039 -14 l 892 126 l 932 172 l 932 540 q 780 439 861 486 q 618 360 699 392 l 538 442 l 538 488 q 579 506 565 499 q 538 625 568 588 q 453 663 507 663 q 339 614 381 663 q 297 501 297 565 q 317 410 297 450 q 394 315 336 369 l 510 207 l 465 163 l 143 468 q 132 557 132 506 q 165 663 132 615 q 252 738 197 710 q 371 765 307 765 q 560 710 464 765 q 704 571 657 654 q 932 735 818 638 l 932 965 l 14 965 l -65 1046 l -65 1092 l 1224 1092 l 1303 1011 l 1303 965 l 1085 965 z "},"ळ":{"ha":1433,"x_min":-65,"x_max":1499,"o":"m 1049 739 q 1222 620 1150 701 q 1294 443 1294 539 q 1253 324 1294 374 q 1145 249 1211 274 q 1008 224 1079 224 q 929 233 972 224 l 840 318 l 840 375 q 982 349 903 349 q 1088 393 1050 349 q 1126 504 1126 438 q 1097 617 1126 578 q 1007 657 1067 657 q 929 638 963 657 q 872 588 896 618 q 817 507 849 558 l 785 458 q 746 400 771 439 q 681 309 710 343 q 610 252 653 275 q 504 229 567 229 q 338 274 424 229 q 194 392 251 318 q 138 549 138 465 q 180 669 138 619 q 289 742 222 718 q 426 767 356 767 q 504 758 468 767 l 593 674 l 593 617 q 451 643 531 643 q 346 598 385 643 q 307 488 307 553 q 337 374 307 414 q 426 335 367 335 q 516 360 478 335 q 576 414 554 385 q 636 503 597 443 q 660 541 647 519 q 681 574 674 563 q 743 669 717 635 q 806 729 769 704 q 894 761 843 754 l 894 965 l 14 965 l -65 1046 l -65 1092 l 1419 1092 l 1499 1011 l 1499 965 l 1049 965 l 1049 739 z "},"ऴ":{"ha":1433,"x_min":-65,"x_max":1499,"o":"m 1049 739 q 1222 620 1150 701 q 1294 443 1294 539 q 1253 324 1294 374 q 1145 249 1211 274 q 1008 224 1079 224 q 929 233 972 224 l 840 318 l 840 375 q 982 349 903 349 q 1088 393 1050 349 q 1126 504 1126 438 q 1097 617 1126 578 q 1007 657 1067 657 q 929 638 963 657 q 872 588 896 618 q 817 507 849 558 l 785 458 q 746 400 771 439 q 681 309 710 343 q 610 252 653 275 q 504 229 567 229 q 338 274 424 229 q 194 392 251 318 q 138 549 138 465 q 180 669 138 619 q 289 742 222 718 q 426 767 356 767 q 504 758 468 767 l 593 674 l 593 617 q 451 643 531 643 q 346 598 385 643 q 307 488 307 553 q 337 374 307 414 q 426 335 367 335 q 516 360 478 335 q 576 414 554 385 q 636 503 597 443 q 660 541 647 519 q 681 574 674 563 q 743 669 717 635 q 806 729 769 704 q 894 761 843 754 l 894 965 l 14 965 l -65 1046 l -65 1092 l 1419 1092 l 1499 1011 l 1499 965 l 1049 965 l 1049 739 m 801 -106 l 756 -106 l 649 -51 l 649 133 l 694 133 l 801 79 l 801 -106 z "},"व":{"ha":882,"x_min":-65,"x_max":1001,"o":"m 783 964 l 783 -15 l 738 -15 l 590 125 l 631 171 l 631 275 q 489 226 574 226 q 323 271 408 226 q 181 389 238 315 q 125 547 125 463 q 162 657 125 607 q 264 735 199 707 q 410 761 329 763 l 489 681 l 489 635 q 444 639 468 639 q 334 594 374 639 q 294 486 294 550 q 411 332 294 332 q 494 354 458 332 q 558 414 529 376 q 631 521 588 451 l 631 965 l 14 965 l -65 1046 l -65 1092 l 922 1092 l 1001 1011 l 1001 964 l 783 964 z "},"श":{"ha":1124,"x_min":167,"x_max":1244,"o":"m 608 701 q 594 570 608 636 q 556 451 581 504 l 750 285 l 707 239 l 524 396 q 414 328 474 328 q 310 368 367 328 q 215 464 254 408 q 176 560 176 519 q 202 610 176 592 q 276 628 228 628 q 424 601 340 628 q 446 662 439 629 q 453 740 453 694 q 321 774 388 742 q 210 858 254 806 q 167 971 167 911 q 209 1076 167 1033 q 325 1119 251 1119 q 466 1069 401 1119 q 569 924 531 1019 q 607 700 607 829 l 608 701 m 1026 967 l 1026 -12 l 981 -12 l 833 128 l 874 174 l 874 967 l 771 967 l 692 1047 l 692 1093 l 1165 1093 l 1244 1013 l 1244 967 l 1026 967 m 335 908 q 346 862 335 878 q 376 846 357 846 q 451 878 419 846 q 406 1018 442 1018 q 352 987 371 1018 q 333 908 333 956 l 335 908 z "},"ष":{"ha":886,"x_min":-65,"x_max":1007,"o":"m 1007 965 l 789 965 l 789 -14 l 743 -14 l 596 126 l 636 172 l 636 406 q 489 354 576 354 q 322 399 407 354 q 180 517 236 443 q 124 674 124 590 l 124 965 l 14 965 l -65 1046 l -65 1092 l 926 1092 l 1007 1011 l 1007 965 m 278 965 l 278 964 l 636 650 l 636 965 l 278 965 m 408 458 q 506 489 464 458 q 592 583 547 519 l 278 858 l 278 628 q 408 458 278 458 z "},"स":{"ha":1118,"x_min":-140,"x_max":1239,"o":"m 1239 967 l 1021 967 l 1021 -12 l 975 -12 l 828 128 l 868 174 l 868 513 q 697 464 775 464 q 626 474 658 464 l 522 556 q 459 408 507 469 q 360 332 411 347 l 704 11 l 661 -36 l 192 403 q 122 485 150 442 q 94 558 94 528 q 196 626 94 626 q 343 600 260 626 q 351 697 351 646 q 335 843 351 771 q 290 965 318 915 l -53 965 l -140 1046 l -140 1092 l 1158 1092 l 1239 1013 l 1239 967 m 429 968 q 529 639 525 808 q 676 617 606 617 q 765 636 718 617 q 868 697 811 656 l 868 968 l 429 968 z "},"ह":{"ha":785,"x_min":17,"x_max":904,"o":"m 472 669 q 368 640 406 669 q 331 558 331 611 q 339 506 331 533 q 361 456 347 478 l 382 456 q 575 414 479 456 q 733 305 671 372 q 794 167 794 238 q 752 58 794 110 q 646 -17 710 7 l 567 64 l 567 110 q 628 229 628 153 q 485 350 628 350 q 341 305 392 350 q 290 175 290 260 q 320 63 290 117 q 408 -47 350 10 l 703 -321 l 661 -367 l 135 131 q 125 208 125 165 q 165 351 125 290 q 278 439 204 413 l 174 535 q 165 569 168 547 q 163 607 163 590 q 196 700 163 657 q 283 769 229 743 q 397 794 338 794 l 485 794 l 485 965 l 97 965 l 17 1046 l 17 1092 l 824 1092 l 904 1011 l 904 965 l 638 965 l 638 668 l 469 668 l 472 669 z "},"क़":{"ha":1433,"x_min":-65,"x_max":1499,"o":"m 792 722 q 928 765 849 765 q 1094 721 1008 765 q 1238 602 1181 676 q 1294 444 1294 528 q 1257 335 1294 385 q 1155 258 1219 286 q 1010 231 1090 229 l 929 311 l 929 357 q 975 353 951 353 q 1085 397 1046 353 q 1125 506 1125 442 q 1095 619 1125 579 q 1006 660 1065 660 q 928 640 961 660 q 872 594 894 621 q 817 519 849 567 l 796 488 l 792 479 l 792 -14 l 746 -14 l 599 126 l 639 172 l 639 269 q 504 226 582 226 q 336 271 422 226 q 194 390 250 315 q 138 547 138 464 q 174 657 138 607 q 276 735 211 707 q 421 761 340 763 l 501 681 l 501 635 q 456 639 478 639 q 345 594 385 639 q 306 486 306 550 q 335 372 306 413 q 425 332 365 332 q 502 351 469 332 q 558 397 535 369 q 611 469 581 424 l 636 506 l 640 510 l 640 965 l 14 965 l -65 1046 l -65 1092 l 1419 1092 l 1499 1011 l 1499 965 l 792 967 l 792 722 m 346 -107 l 300 -107 l 193 -53 l 193 132 l 239 132 l 346 78 l 346 -107 z "},"ख़":{"ha":1463,"x_min":-140,"x_max":1581,"o":"m 1363 964 l 1363 -15 l 1317 -15 l 1169 125 l 1210 171 l 1210 275 q 1068 226 1153 226 q 902 271 988 226 q 760 389 817 315 q 704 547 704 463 q 741 657 704 607 q 843 735 778 707 q 989 761 908 763 l 1068 681 l 1068 635 q 1024 639 1047 639 q 913 594 953 639 q 874 486 874 550 q 990 332 874 332 q 1073 354 1038 332 q 1138 414 1108 376 q 1210 521 1167 451 l 1210 965 l 428 965 q 528 618 528 794 q 502 483 528 544 q 438 383 476 422 q 360 332 399 343 l 704 11 l 661 -36 l 192 403 q 122 485 150 442 q 94 558 94 528 q 196 626 94 626 q 343 600 260 626 q 351 697 351 646 q 335 843 351 771 q 290 965 318 915 l -53 965 l -140 1046 l -140 1092 l 1501 1092 l 1581 1011 l 1581 964 l 1363 964 m 228 -99 l 182 -99 l 75 -44 l 75 140 l 121 140 l 228 86 l 228 -99 z "},"ग़":{"ha":1044,"x_min":-143,"x_max":1164,"o":"m 946 965 l 946 -14 l 900 -14 l 753 126 l 793 172 l 793 965 l 494 965 l 494 528 q 467 439 494 486 q 401 360 440 392 q 331 328 363 328 q 231 368 288 328 q 133 465 174 408 q 92 564 92 521 q 126 607 92 588 q 222 626 161 626 q 342 610 271 626 l 342 965 l -62 965 l -143 1046 l -143 1092 l 1085 1092 l 1164 1011 l 1164 965 l 946 965 m 400 -99 l 354 -99 l 247 -44 l 247 140 l 293 140 l 400 86 l 400 -99 z "},"ज़":{"ha":1136,"x_min":-65,"x_max":1256,"o":"m 1038 965 l 1038 -14 l 992 -14 l 844 126 l 885 172 l 885 500 l 426 500 l 717 247 q 729 169 729 215 q 696 77 729 119 q 603 10 663 35 q 472 -14 544 -14 q 344 -4 399 -14 l 50 226 l 92 274 q 292 131 224 167 q 422 94 361 94 q 524 128 486 94 q 563 224 563 163 q 537 299 563 253 q 453 396 511 344 l 239 581 l 281 626 l 885 626 l 885 965 l 14 965 l -65 1046 l -65 1092 l 1176 1092 l 1256 1011 l 1256 965 l 1038 965 m 538 -415 l 492 -415 l 385 -361 l 385 -176 l 431 -176 l 538 -231 l 538 -415 z "},"ड़":{"ha":968,"x_min":-142,"x_max":1097,"o":"m 539 710 q 413 671 464 710 q 363 575 363 632 q 383 525 363 546 q 458 475 403 504 q 628 551 568 551 q 776 502 699 551 q 904 379 853 453 q 956 238 956 306 q 888 126 956 186 q 719 26 819 67 q 532 -14 619 -14 q 400 -3 478 -14 l 8 335 l 50 382 l 244 217 q 362 148 299 169 q 510 126 425 126 q 649 155 579 126 q 765 227 719 183 q 810 314 810 271 q 781 373 810 344 q 721 401 753 401 q 542 340 650 401 q 398 398 475 346 q 269 521 321 450 q 217 650 217 592 q 249 744 217 701 q 335 813 281 788 q 454 838 390 838 l 678 838 l 678 965 l -62 965 l -142 1046 l -142 1092 l 1018 1092 l 1097 1011 l 1097 965 l 831 965 l 831 711 l 540 711 l 539 710 m 194 -231 l 149 -231 l 42 -176 l 42 8 l 88 8 l 194 -46 l 194 -231 z "},"ढ़":{"ha":953,"x_min":-65,"x_max":1065,"o":"m 526 607 q 364 539 425 607 q 303 358 303 471 q 375 183 303 246 q 581 114 447 119 q 517 196 540 149 q 493 294 493 243 q 535 394 493 356 q 644 432 578 432 q 783 394 718 432 q 888 292 849 356 q 928 158 928 229 q 861 32 928 78 q 678 -14 794 -14 q 419 49 542 -14 q 223 213 297 111 q 149 429 149 315 q 189 582 149 511 q 298 694 229 653 q 446 736 367 736 l 532 736 l 532 965 l 15 965 l -65 1046 l -65 1092 l 985 1092 l 1065 1011 l 1065 965 l 685 965 l 685 608 l 526 608 l 526 607 m 724 331 q 678 298 697 331 q 658 221 658 265 q 669 170 658 186 q 704 154 681 154 q 763 176 733 154 q 775 228 775 200 q 760 301 775 271 q 724 331 744 331 m 335 -286 l 289 -286 l 182 -232 l 182 -47 l 228 -47 l 335 -101 l 335 -286 z "},"फ़":{"ha":1429,"x_min":-65,"x_max":1494,"o":"m 788 722 q 924 764 843 764 q 1090 719 1004 764 q 1233 601 1176 675 q 1290 443 1290 526 q 1253 334 1290 383 q 1151 256 1217 285 q 1007 229 1086 228 l 926 310 l 926 356 q 971 351 949 351 q 1085 397 1044 351 q 1125 508 1125 442 q 1095 622 1125 582 q 1006 661 1065 661 q 922 639 957 661 q 860 581 886 617 q 789 475 833 546 l 789 -14 l 743 -14 l 596 126 l 636 172 l 636 406 q 489 354 576 354 q 322 399 407 354 q 180 517 236 443 q 124 674 124 590 l 124 965 l 14 965 l -65 1046 l -65 1092 l 1414 1092 l 1494 1011 l 1494 965 l 788 965 l 788 722 m 407 458 q 492 481 456 458 q 559 542 529 504 q 635 649 589 579 l 635 965 l 276 965 l 276 628 q 407 458 276 458 m 397 -60 l 351 -60 l 244 -6 l 244 179 l 290 179 l 397 125 l 397 -60 z "},"य़":{"ha":1008,"x_min":-100,"x_max":1126,"o":"m 1126 965 l 908 965 l 908 -14 l 863 -14 l 715 126 l 756 172 l 756 421 q 644 351 704 375 q 499 326 585 326 q 331 365 415 326 q 185 463 246 403 q 107 581 124 522 l 149 626 q 276 697 222 638 q 329 844 329 756 q 286 965 329 928 l -21 965 l -100 1046 l -100 1092 l 1047 1092 l 1126 1011 l 1126 965 m 397 967 q 467 866 442 921 q 493 751 493 811 q 431 600 493 665 q 269 521 368 535 q 418 432 304 432 q 529 452 481 432 q 617 504 578 472 q 719 600 656 536 l 756 636 l 754 967 l 397 967 m 397 -83 l 351 -83 l 244 -29 l 244 156 l 290 156 l 397 101 l 397 -83 z "},"ॹ":{"ha":1074,"x_min":-65,"x_max":1256,"o":"m 1038 965 l 1038 -14 l 992 -14 l 844 126 l 885 172 l 885 500 l 426 500 l 717 247 q 729 169 729 215 q 696 77 729 119 q 603 10 663 35 q 472 -14 544 -14 q 344 -4 399 -14 l 50 226 l 92 274 q 292 131 224 167 q 422 94 361 94 q 524 128 486 94 q 563 224 563 163 q 537 299 563 253 q 453 396 511 344 l 239 581 l 281 626 l 885 626 l 885 965 l 14 965 l -65 1046 l -65 1092 l 1176 1092 l 1256 1011 l 1256 965 l 1038 965 m 236 -306 l 190 -306 l 83 -251 l 83 -67 l 129 -67 l 236 -121 l 236 -306 m 489 -507 l 443 -507 l 336 -453 l 336 -268 l 382 -268 l 489 -322 l 489 -507 m 699 -306 l 653 -306 l 546 -251 l 546 -67 l 592 -67 l 699 -121 l 699 -306 z "},"ॻ":{"ha":1006,"x_min":-143,"x_max":1125,"o":"m 907 965 l 907 -219 l 146 -219 l 47 -137 l 47 -92 l 754 -92 l 754 965 l 494 965 l 494 528 q 467 439 494 486 q 401 360 440 392 q 331 328 363 328 q 231 368 288 328 q 133 465 174 408 q 92 564 92 521 q 126 607 92 588 q 222 626 161 626 q 342 610 271 626 l 342 965 l -62 965 l -143 1046 l -143 1092 l 1046 1092 l 1125 1011 l 1125 965 l 907 965 z "},"ॼ":{"ha":1164,"x_min":-65,"x_max":1283,"o":"m 1065 965 l 1065 -219 l 189 -219 l 90 -137 l 90 -92 l 913 -92 l 913 500 l 426 500 l 717 247 q 729 169 729 215 q 696 77 729 119 q 603 10 663 35 q 472 -14 544 -14 q 344 -4 399 -14 l 50 226 l 92 274 q 292 131 224 167 q 422 94 361 94 q 524 128 486 94 q 563 224 563 163 q 537 299 563 253 q 453 396 511 344 l 239 581 l 281 626 l 913 626 l 913 965 l 14 965 l -65 1046 l -65 1092 l 1204 1092 l 1283 1011 l 1283 965 l 1065 965 z "},"ॾ":{"ha":968,"x_min":-142,"x_max":1097,"o":"m 539 710 q 413 671 464 710 q 363 575 363 632 q 383 525 363 546 q 458 475 403 504 q 628 551 568 551 q 776 502 699 551 q 904 379 853 453 q 956 238 956 306 q 888 126 956 186 q 719 26 819 67 q 532 -14 619 -14 q 400 -3 478 -14 l 8 335 l 50 382 l 244 217 q 362 148 299 169 q 510 126 425 126 q 649 155 579 126 q 765 227 719 183 q 810 314 810 271 q 781 373 810 344 q 721 401 753 401 q 542 340 650 401 q 398 398 475 346 q 269 521 321 450 q 217 650 217 592 q 249 744 217 701 q 335 813 281 788 q 454 838 390 838 l 678 838 l 678 965 l -62 965 l -142 1046 l -142 1092 l 1018 1092 l 1097 1011 l 1097 965 l 831 965 l 831 711 l 540 711 l 539 710 m 1028 -219 l 265 -219 l 167 -137 l 167 -92 l 929 -92 l 1028 -174 l 1028 -219 z "},"ॿ":{"ha":879,"x_min":-65,"x_max":999,"o":"m 999 967 l 781 967 l 781 -218 l 231 -218 l 132 -136 l 132 -90 l 628 -90 l 628 275 q 489 228 569 228 q 323 272 408 228 q 181 390 238 317 q 125 549 125 464 q 162 658 125 608 q 264 736 199 708 q 410 763 329 764 l 489 682 l 489 636 q 444 640 468 640 q 343 604 383 640 l 563 419 q 628 517 576 438 l 628 965 l 14 965 l -65 1046 l -65 1092 l 919 1092 l 999 1013 l 999 967 m 411 333 q 519 375 471 333 l 307 554 q 294 488 294 524 q 411 333 294 333 z "},"ꣻ":{"ha":1108,"x_min":181,"x_max":928,"o":"m 928 965 l 260 965 l 181 1046 l 181 1092 l 850 1092 l 928 1011 l 928 965 z "},"⁄":{"ha":314,"x_min":-299,"x_max":613,"o":"m -251 -265 l -299 -242 l 564 1382 l 613 1360 l -251 -265 z "},"½":{"ha":1549,"x_min":118,"x_max":1474,"o":"m 456 576 l 128 576 l 128 617 l 236 690 l 236 1046 l 118 1083 l 138 1131 l 465 1131 l 465 1092 l 358 1018 l 358 661 l 475 625 l 456 576 m 342 -265 l 294 -242 l 1157 1382 l 1206 1360 l 342 -265 m 1474 -126 l 1411 -108 l 940 -108 l 940 -72 q 1158 88 1082 28 q 1263 188 1233 149 q 1292 258 1292 226 q 1249 336 1292 306 q 1139 367 1207 367 q 976 293 1072 367 l 943 338 l 1104 449 q 1169 456 1133 456 q 1351 416 1282 456 q 1419 314 1419 376 q 1144 -1 1419 218 l 1404 -1 l 1440 79 l 1474 68 l 1474 -126 z "},"⅓":{"ha":1557,"x_min":118,"x_max":1451,"o":"m 456 576 l 128 576 l 128 617 l 236 690 l 236 1046 l 118 1083 l 138 1131 l 465 1131 l 465 1092 l 358 1018 l 358 661 l 475 625 l 456 576 m 342 -265 l 294 -242 l 1157 1382 l 1206 1360 l 342 -265 m 1292 147 q 1417 53 1383 92 q 1451 -28 1451 15 q 1338 -212 1451 -132 q 972 -367 1224 -293 l 957 -311 q 1182 -231 1106 -265 q 1289 -161 1258 -197 q 1319 -74 1319 -125 q 1290 -12 1319 -39 q 1171 61 1260 15 l 1171 96 q 1252 194 1232 163 q 1272 257 1272 226 q 1238 333 1272 304 q 1147 363 1203 363 q 979 288 1075 363 l 946 335 l 1106 446 q 1149 454 1124 454 q 1277 435 1218 454 q 1370 383 1336 415 q 1404 313 1404 350 q 1377 242 1401 279 q 1294 147 1353 204 l 1292 147 z "},"⅔":{"ha":1632,"x_min":60,"x_max":1526,"o":"m 593 560 l 531 578 l 60 578 l 60 614 q 277 774 201 714 q 382 874 353 835 q 411 944 411 913 q 369 1022 411 992 q 258 1053 326 1053 q 96 979 192 1053 l 63 1024 l 224 1135 q 289 1142 253 1142 q 470 1102 401 1142 q 539 1000 539 1063 q 264 685 539 904 l 524 685 l 560 765 l 593 754 l 593 560 m 418 -265 l 371 -242 l 1233 1382 l 1282 1360 l 418 -265 m 1367 147 q 1492 53 1458 92 q 1526 -28 1526 15 q 1413 -212 1526 -132 q 1047 -367 1299 -293 l 1032 -311 q 1257 -231 1181 -265 q 1364 -161 1333 -197 q 1394 -74 1394 -125 q 1365 -12 1394 -39 q 1246 61 1335 15 l 1246 96 q 1327 194 1307 163 q 1347 257 1347 226 q 1313 333 1347 304 q 1222 363 1278 363 q 1054 288 1150 363 l 1021 335 l 1181 446 q 1224 454 1199 454 q 1352 435 1293 454 q 1445 383 1411 415 q 1479 313 1479 350 q 1452 242 1476 279 q 1369 147 1428 204 l 1367 147 z "},"¼":{"ha":1446,"x_min":118,"x_max":1404,"o":"m 456 576 l 128 576 l 128 617 l 236 690 l 236 1046 l 118 1083 l 138 1131 l 465 1131 l 465 1092 l 358 1018 l 358 661 l 475 625 l 456 576 m 342 -265 l 294 -242 l 1157 1382 l 1206 1360 l 342 -265 m 1235 -61 l 1235 -260 l 1113 -318 l 1113 -61 l 701 -61 l 701 -24 l 1113 415 l 1235 472 l 1235 15 l 1404 15 l 1365 -61 l 1235 -61 m 1113 313 l 842 15 l 1113 15 l 1113 313 z "},"¾":{"ha":1503,"x_min":39,"x_max":1461,"o":"m 385 833 q 510 740 476 778 q 544 658 544 701 q 431 474 544 554 q 65 319 317 393 l 50 376 q 275 455 199 421 q 382 525 351 489 q 413 613 413 561 q 383 675 413 649 q 264 747 354 701 l 264 782 q 345 881 325 849 q 365 943 365 913 q 331 1019 365 990 q 240 1049 296 1049 q 72 974 168 1049 l 39 1021 l 199 1132 q 242 1140 217 1140 q 370 1121 311 1140 q 463 1069 429 1101 q 497 999 497 1036 q 470 928 494 965 q 388 833 446 890 l 385 833 m 399 -265 l 351 -242 l 1214 1382 l 1263 1360 l 399 -265 m 1292 -61 l 1292 -260 l 1169 -318 l 1169 -61 l 758 -61 l 758 -24 l 1169 415 l 1292 472 l 1292 15 l 1461 15 l 1422 -61 l 1292 -61 m 1169 313 l 899 15 l 1169 15 l 1169 313 z "},"⅛":{"ha":1761,"x_min":118,"x_max":1658,"o":"m 456 576 l 128 576 l 128 617 l 236 690 l 236 1046 l 118 1083 l 138 1131 l 465 1131 l 465 1092 l 358 1018 l 358 661 l 475 625 l 456 576 m 342 -265 l 294 -242 l 1157 1382 l 1206 1360 l 342 -265 m 1453 351 q 1605 251 1551 300 q 1658 138 1658 203 q 1610 24 1658 85 q 1491 -78 1561 -36 q 1363 -119 1421 -119 q 1183 -89 1263 -119 q 1058 -5 1103 -58 q 1014 113 1014 49 q 1058 216 1014 164 q 1204 344 1103 268 q 1106 426 1140 385 q 1071 521 1071 468 q 1116 622 1071 568 q 1227 712 1161 675 q 1349 749 1293 749 q 1475 724 1419 749 q 1562 660 1531 700 q 1593 572 1593 619 q 1560 480 1589 528 q 1451 353 1531 432 l 1453 351 m 1322 669 q 1238 639 1272 669 q 1203 563 1203 608 q 1251 469 1203 510 q 1392 382 1299 429 q 1457 464 1443 436 q 1471 525 1471 492 q 1428 629 1471 588 q 1322 671 1386 671 l 1322 669 m 1368 -43 q 1484 -3 1440 -43 q 1528 93 1528 38 q 1500 162 1528 131 q 1432 218 1472 193 q 1318 282 1392 243 q 1267 308 1275 303 q 1169 225 1193 257 q 1146 156 1146 193 q 1177 56 1146 103 q 1260 -18 1208 10 q 1368 -46 1311 -46 l 1368 -43 z "},"⅜":{"ha":1818,"x_min":39,"x_max":1715,"o":"m 385 833 q 510 740 476 778 q 544 658 544 701 q 431 474 544 554 q 65 319 317 393 l 50 376 q 275 455 199 421 q 382 525 351 489 q 413 613 413 561 q 383 675 413 649 q 264 747 354 701 l 264 782 q 345 881 325 849 q 365 943 365 913 q 331 1019 365 990 q 240 1049 296 1049 q 72 974 168 1049 l 39 1021 l 199 1132 q 242 1140 217 1140 q 370 1121 311 1140 q 463 1069 429 1101 q 497 999 497 1036 q 470 928 494 965 q 388 833 446 890 l 385 833 m 399 -265 l 351 -242 l 1214 1382 l 1263 1360 l 399 -265 m 1510 351 q 1662 251 1608 300 q 1715 138 1715 203 q 1667 24 1715 85 q 1548 -78 1618 -36 q 1419 -119 1478 -119 q 1240 -89 1319 -119 q 1115 -5 1160 -58 q 1071 113 1071 49 q 1115 216 1071 164 q 1261 344 1160 268 q 1163 426 1197 385 q 1128 521 1128 468 q 1173 622 1128 568 q 1284 712 1218 675 q 1406 749 1350 749 q 1532 724 1476 749 q 1619 660 1588 700 q 1650 572 1650 619 q 1617 480 1646 528 q 1508 353 1588 432 l 1510 351 m 1379 669 q 1294 639 1329 669 q 1260 563 1260 608 q 1308 469 1260 510 q 1449 382 1356 429 q 1514 464 1500 436 q 1528 525 1528 492 q 1485 629 1528 588 q 1379 671 1443 671 l 1379 669 m 1425 -43 q 1541 -3 1497 -43 q 1585 93 1585 38 q 1557 162 1585 131 q 1489 218 1529 193 q 1375 282 1449 243 q 1324 308 1332 303 q 1226 225 1250 257 q 1203 156 1203 193 q 1234 56 1203 103 q 1317 -18 1265 10 q 1425 -46 1368 -46 l 1425 -43 z "},"⅝":{"ha":1915,"x_min":69,"x_max":1813,"o":"m 168 933 q 411 822 326 868 q 528 740 496 776 q 561 661 561 703 q 492 509 561 574 q 323 402 424 444 q 85 319 222 360 l 69 376 q 299 460 222 424 q 403 531 376 496 q 429 615 429 565 q 403 688 429 656 q 306 758 378 719 q 94 851 235 796 l 163 1131 l 478 1131 l 514 1211 l 549 1199 l 549 1004 l 486 1022 l 190 1022 l 168 933 m 496 -265 l 449 -242 l 1311 1382 l 1360 1360 l 496 -265 m 1607 351 q 1759 251 1706 300 q 1813 138 1813 203 q 1764 24 1813 85 q 1645 -78 1715 -36 q 1517 -119 1575 -119 q 1337 -89 1417 -119 q 1213 -5 1257 -58 q 1168 113 1168 49 q 1213 216 1168 164 q 1358 344 1257 268 q 1260 426 1294 385 q 1225 521 1225 468 q 1270 622 1225 568 q 1381 712 1315 675 q 1503 749 1447 749 q 1629 724 1574 749 q 1716 660 1685 700 q 1747 572 1747 619 q 1714 480 1743 528 q 1606 353 1685 432 l 1607 351 m 1476 669 q 1392 639 1426 669 q 1357 563 1357 608 q 1405 469 1357 510 q 1546 382 1453 429 q 1611 464 1597 436 q 1625 525 1625 492 q 1583 629 1625 588 q 1476 671 1540 671 l 1476 669 m 1522 -43 q 1638 -3 1594 -43 q 1682 93 1682 38 q 1654 162 1682 131 q 1586 218 1626 193 q 1472 282 1546 243 q 1421 308 1429 303 q 1324 225 1347 257 q 1300 156 1300 193 q 1331 56 1300 103 q 1414 -18 1363 10 q 1522 -46 1465 -46 l 1522 -43 z "},"⅞":{"ha":1842,"x_min":99,"x_max":1738,"o":"m 678 1085 l 238 319 l 176 340 l 574 1022 l 168 1022 l 133 951 l 99 964 l 99 1147 l 161 1131 l 678 1131 l 678 1085 m 422 -265 l 375 -242 l 1238 1382 l 1286 1360 l 422 -265 m 1532 351 q 1684 251 1631 300 q 1738 138 1738 203 q 1689 24 1738 85 q 1570 -78 1640 -36 q 1442 -119 1500 -119 q 1262 -89 1342 -119 q 1138 -5 1182 -58 q 1093 113 1093 49 q 1138 216 1093 164 q 1283 344 1182 268 q 1185 426 1219 385 q 1150 521 1150 468 q 1195 622 1150 568 q 1306 712 1240 675 q 1428 749 1372 749 q 1554 724 1499 749 q 1641 660 1610 700 q 1672 572 1672 619 q 1639 480 1668 528 q 1531 353 1610 432 l 1532 351 m 1401 669 q 1317 639 1351 669 q 1282 563 1282 608 q 1330 469 1282 510 q 1471 382 1378 429 q 1536 464 1522 436 q 1550 525 1550 492 q 1508 629 1550 588 q 1401 671 1465 671 l 1401 669 m 1447 -43 q 1563 -3 1519 -43 q 1607 93 1607 38 q 1579 162 1607 131 q 1511 218 1551 193 q 1397 282 1471 243 q 1346 308 1354 303 q 1249 225 1272 257 q 1225 156 1225 193 q 1256 56 1225 103 q 1339 -18 1288 10 q 1447 -46 1390 -46 l 1447 -43 z "},"₀":{"ha":868,"x_min":101,"x_max":768,"o":"m 474 454 q 626 418 558 454 q 731 321 693 382 q 768 185 768 260 q 710 34 768 104 q 564 -78 651 -36 q 394 -119 476 -119 q 244 -84 311 -119 q 139 14 176 -49 q 101 151 101 76 q 160 301 101 231 q 305 413 218 371 q 474 454 392 454 m 408 364 q 233 197 233 364 q 291 36 233 101 q 458 -29 349 -29 q 636 139 636 -29 q 577 299 636 235 q 408 364 518 364 z "},"₁":{"ha":546,"x_min":67,"x_max":424,"o":"m 404 -110 l 76 -110 l 76 -71 l 185 4 l 185 360 l 67 397 l 86 444 l 414 444 l 414 406 l 307 332 l 307 -25 l 424 -62 l 404 -110 z "},"₂":{"ha":669,"x_min":60,"x_max":593,"o":"m 593 -126 l 531 -108 l 60 -108 l 60 -72 q 277 88 201 28 q 382 188 353 149 q 411 258 411 226 q 369 336 411 306 q 258 367 326 367 q 96 293 192 367 l 63 338 l 224 449 q 289 456 253 456 q 470 416 401 456 q 539 314 539 376 q 264 -1 539 218 l 524 -1 l 560 79 l 593 68 l 593 -126 z "},"₃":{"ha":650,"x_min":39,"x_max":544,"o":"m 385 147 q 510 53 476 92 q 544 -28 544 15 q 431 -212 544 -132 q 65 -367 317 -293 l 50 -311 q 275 -231 199 -265 q 382 -161 351 -197 q 413 -74 413 -125 q 383 -12 413 -39 q 264 61 353 15 l 264 96 q 345 194 325 163 q 365 257 365 226 q 331 333 365 304 q 240 363 296 363 q 72 288 168 363 l 39 335 l 199 446 q 242 454 217 454 q 370 435 311 454 q 463 383 429 415 q 497 313 497 350 q 470 242 494 279 q 388 147 446 204 l 385 147 z "},"₄":{"ha":786,"x_min":42,"x_max":744,"o":"m 575 -61 l 575 -260 l 453 -318 l 453 -61 l 42 -61 l 42 -24 l 453 415 l 575 472 l 575 15 l 744 15 l 706 -61 l 575 -61 m 453 313 l 182 15 l 453 15 l 453 313 z "},"₅":{"ha":747,"x_min":69,"x_max":561,"o":"m 168 247 q 411 136 326 182 q 528 53 496 90 q 561 -25 561 17 q 492 -177 561 -112 q 323 -284 424 -242 q 85 -367 222 -326 l 69 -311 q 299 -226 222 -262 q 403 -156 376 -190 q 429 -71 429 -121 q 403 1 429 -31 q 306 72 378 33 q 94 165 235 110 l 163 444 l 478 444 l 514 525 l 549 513 l 549 318 l 486 336 l 190 336 l 168 247 z "},"₆":{"ha":860,"x_min":133,"x_max":756,"o":"m 672 700 q 361 461 457 576 q 265 224 265 346 q 320 44 265 117 q 479 -29 375 -29 q 586 8 550 -29 q 622 119 622 46 q 555 271 622 208 q 382 363 488 333 l 411 414 q 588 381 508 414 q 711 292 667 349 q 756 165 756 235 q 706 31 756 97 q 576 -78 656 -36 q 415 -119 497 -119 q 270 -80 335 -119 q 169 28 206 -40 q 133 181 133 97 q 177 378 133 288 q 333 561 221 469 q 649 749 446 653 l 672 700 z "},"₇":{"ha":769,"x_min":99,"x_max":678,"o":"m 678 399 l 238 -367 l 176 -346 l 574 336 l 168 336 l 133 265 l 99 278 l 99 461 l 161 444 l 678 444 l 678 399 z "},"₈":{"ha":854,"x_min":107,"x_max":751,"o":"m 546 351 q 698 251 644 300 q 751 138 751 203 q 703 24 751 85 q 584 -78 654 -36 q 456 -119 514 -119 q 276 -89 356 -119 q 151 -5 196 -58 q 107 113 107 49 q 151 216 107 164 q 297 344 196 268 q 199 426 233 385 q 164 521 164 468 q 209 622 164 568 q 320 712 254 675 q 442 749 386 749 q 568 724 513 749 q 655 660 624 700 q 686 572 686 619 q 653 480 682 528 q 544 353 624 432 l 546 351 m 415 669 q 331 639 365 669 q 296 563 296 608 q 344 469 296 510 q 485 382 392 429 q 550 464 536 436 q 564 525 564 492 q 522 629 564 588 q 415 671 479 671 l 415 669 m 461 -43 q 577 -3 533 -43 q 621 93 621 38 q 593 162 621 131 q 525 218 565 193 q 411 282 485 243 q 360 308 368 303 q 263 225 286 257 q 239 156 239 193 q 270 56 239 103 q 353 -18 301 10 q 461 -46 404 -46 l 461 -43 z "},"₉":{"ha":846,"x_min":101,"x_max":724,"o":"m 442 454 q 587 419 522 454 q 688 322 651 383 q 724 188 724 261 q 680 -8 724 81 q 523 -186 636 -97 q 207 -367 410 -275 l 183 -318 q 495 -86 399 -199 q 592 142 592 26 q 536 300 592 236 q 376 364 481 364 q 271 326 307 364 q 235 214 235 288 q 298 65 235 126 q 463 -28 361 3 l 435 -81 q 264 -49 340 -82 q 144 42 188 -17 q 101 171 101 100 q 151 304 101 238 q 281 413 201 371 q 442 454 360 454 z "},"⁰":{"ha":868,"x_min":101,"x_max":768,"o":"m 474 1140 q 626 1104 558 1140 q 731 1007 693 1068 q 768 871 768 946 q 710 720 768 790 q 564 608 651 650 q 394 567 476 567 q 244 602 311 567 q 139 700 176 638 q 101 838 101 763 q 160 987 101 917 q 305 1099 218 1057 q 474 1140 392 1140 m 408 1050 q 233 883 233 1050 q 291 723 233 788 q 458 658 349 658 q 636 825 636 658 q 577 985 636 921 q 408 1050 518 1050 z "},"¹":{"ha":593,"x_min":118,"x_max":475,"o":"m 456 576 l 128 576 l 128 617 l 236 690 l 236 1046 l 118 1083 l 138 1131 l 465 1131 l 465 1092 l 358 1018 l 358 661 l 475 625 l 456 576 z "},"²":{"ha":669,"x_min":60,"x_max":593,"o":"m 593 560 l 531 578 l 60 578 l 60 614 q 277 774 201 714 q 382 874 353 835 q 411 944 411 913 q 369 1022 411 992 q 258 1053 326 1053 q 96 979 192 1053 l 63 1024 l 224 1135 q 289 1142 253 1142 q 470 1102 401 1142 q 539 1000 539 1063 q 264 685 539 904 l 524 685 l 560 765 l 593 754 l 593 560 z "},"³":{"ha":650,"x_min":39,"x_max":544,"o":"m 385 833 q 510 740 476 778 q 544 658 544 701 q 431 474 544 554 q 65 319 317 393 l 50 376 q 275 455 199 421 q 382 525 351 489 q 413 613 413 561 q 383 675 413 649 q 264 747 354 701 l 264 782 q 345 881 325 849 q 365 943 365 913 q 331 1019 365 990 q 240 1049 296 1049 q 72 974 168 1049 l 39 1021 l 199 1132 q 242 1140 217 1140 q 370 1121 311 1140 q 463 1069 429 1101 q 497 999 497 1036 q 470 928 494 965 q 388 833 446 890 l 385 833 z "},"⁴":{"ha":786,"x_min":42,"x_max":744,"o":"m 575 625 l 575 426 l 453 368 l 453 625 l 42 625 l 42 663 l 453 1101 l 575 1158 l 575 701 l 744 701 l 706 625 l 575 625 m 453 999 l 182 701 l 453 701 l 453 999 z "},"⁵":{"ha":747,"x_min":69,"x_max":561,"o":"m 168 933 q 411 822 326 868 q 528 740 496 776 q 561 661 561 703 q 492 509 561 574 q 323 402 424 444 q 85 319 222 360 l 69 376 q 299 460 222 424 q 403 531 376 496 q 429 615 429 565 q 403 688 429 656 q 306 758 378 719 q 94 851 235 796 l 163 1131 l 478 1131 l 514 1211 l 549 1199 l 549 1004 l 486 1022 l 190 1022 l 168 933 z "},"⁶":{"ha":860,"x_min":133,"x_max":756,"o":"m 672 1386 q 361 1147 457 1263 q 265 910 265 1032 q 320 731 265 803 q 479 658 375 658 q 622 806 622 658 q 555 957 622 894 q 382 1049 488 1019 l 411 1100 q 588 1067 508 1100 q 711 978 667 1035 q 756 851 756 921 q 706 717 756 783 q 576 608 656 650 q 415 567 497 567 q 270 606 335 567 q 169 715 206 646 q 133 867 133 783 q 177 1065 133 974 q 333 1247 221 1156 q 649 1435 446 1339 l 672 1386 z "},"⁷":{"ha":769,"x_min":99,"x_max":678,"o":"m 678 1085 l 238 319 l 176 340 l 574 1022 l 168 1022 l 133 951 l 99 964 l 99 1147 l 161 1131 l 678 1131 l 678 1085 z "},"⁸":{"ha":854,"x_min":107,"x_max":751,"o":"m 546 1038 q 698 938 644 986 q 751 824 751 889 q 703 710 751 771 q 584 608 654 650 q 456 567 514 567 q 276 597 356 567 q 151 681 196 628 q 107 799 107 735 q 151 902 107 850 q 297 1031 196 954 q 199 1113 233 1071 q 164 1207 164 1154 q 209 1308 164 1254 q 320 1398 254 1361 q 442 1435 386 1435 q 568 1410 513 1435 q 655 1346 624 1386 q 686 1258 686 1306 q 653 1166 682 1214 q 544 1039 624 1118 l 546 1038 m 415 1356 q 331 1325 365 1356 q 296 1249 296 1294 q 344 1156 296 1196 q 485 1068 392 1115 q 550 1150 536 1122 q 564 1211 564 1178 q 522 1315 564 1274 q 415 1357 479 1357 l 415 1356 m 461 644 q 577 684 533 644 q 621 779 621 724 q 593 848 621 817 q 525 904 565 879 q 411 968 485 929 q 360 994 368 989 q 263 911 286 943 q 239 842 239 879 q 270 743 239 789 q 353 669 301 697 q 461 642 404 642 l 461 644 z "},"⁹":{"ha":846,"x_min":101,"x_max":724,"o":"m 442 1140 q 587 1105 522 1140 q 688 1008 651 1069 q 724 874 724 947 q 680 679 724 768 q 523 501 636 590 q 207 319 410 411 l 183 369 q 495 601 399 489 q 592 828 592 713 q 536 986 592 922 q 376 1050 481 1050 q 271 1012 307 1050 q 235 900 235 974 q 298 751 235 813 q 463 658 361 689 l 435 606 q 264 638 340 606 q 144 728 188 671 q 101 857 101 786 q 151 990 101 924 q 281 1099 201 1057 q 442 1140 360 1140 z "},"०":{"ha":883,"x_min":124,"x_max":760,"o":"m 397 815 q 562 768 476 815 q 703 644 647 721 q 760 486 760 568 q 724 360 760 417 q 626 271 689 303 q 485 239 564 239 q 322 286 407 239 q 180 410 236 333 q 124 568 124 486 q 159 694 124 638 q 257 783 194 751 q 397 815 319 815 m 468 711 q 383 688 424 711 q 315 617 342 665 q 289 494 289 568 q 319 381 289 418 q 415 343 350 343 q 501 365 460 343 q 568 436 542 388 q 594 560 594 485 q 564 674 594 636 q 468 711 533 711 z "},"१":{"ha":749,"x_min":53,"x_max":535,"o":"m 260 1106 q 401 1045 338 1106 q 499 879 464 985 q 535 642 535 774 q 506 314 535 517 q 449 -14 476 111 l 403 -14 l 296 40 q 382 644 364 378 q 349 640 367 640 q 211 681 281 640 q 97 787 142 722 q 53 917 53 851 q 81 1009 53 965 q 158 1079 110 1053 q 258 1106 206 1106 l 260 1106 m 285 744 q 335 763 311 744 q 385 822 360 781 q 310 1003 375 1003 q 247 956 272 1003 q 221 842 221 908 q 285 744 221 744 z "},"२":{"ha":869,"x_min":126,"x_max":950,"o":"m 515 388 q 383 322 442 322 q 281 362 339 322 q 181 457 222 401 q 139 554 139 513 q 269 613 139 613 q 431 585 347 613 q 527 726 497 657 q 557 854 557 796 q 528 931 557 903 q 450 960 499 960 q 337 933 406 960 q 206 865 268 907 l 126 947 l 126 993 q 251 1076 190 1047 q 364 1106 313 1106 q 522 1050 438 1106 q 665 913 607 994 q 722 761 722 832 q 675 597 722 690 q 560 431 628 504 l 950 101 l 910 56 l 515 388 z "},"३":{"ha":988,"x_min":125,"x_max":861,"o":"m 861 203 q 816 103 861 154 q 701 20 771 53 q 564 -12 632 -12 q 485 -4 525 -12 l 765 -242 l 724 -289 l 271 93 q 165 203 204 143 q 125 321 125 264 q 143 389 125 368 q 188 410 161 410 q 280 354 242 410 q 346 154 318 299 q 475 117 407 117 q 599 138 544 117 q 684 196 654 160 q 714 272 714 232 q 685 358 714 314 q 588 460 656 403 q 399 604 521 517 l 399 650 q 492 691 444 658 q 570 767 539 724 q 601 849 601 810 q 576 928 601 896 q 501 961 551 961 q 380 934 442 961 q 250 867 318 907 l 171 949 l 171 994 q 293 1076 232 1046 q 404 1107 354 1107 q 571 1051 486 1107 q 711 911 656 994 q 767 757 767 828 q 724 640 767 693 q 606 564 681 588 q 797 374 732 465 q 861 201 861 282 l 861 203 z "},"४":{"ha":963,"x_min":153,"x_max":808,"o":"m 808 1086 q 763 947 808 1018 q 594 736 717 875 l 513 638 l 536 608 q 715 404 664 467 q 781 304 765 342 q 796 215 796 267 q 759 101 796 154 q 660 17 722 49 q 528 -14 599 -14 q 349 34 436 -14 q 208 158 263 82 q 154 315 154 235 q 182 424 154 369 q 278 560 210 479 l 383 683 l 278 811 q 182 953 211 892 q 153 1078 153 1015 q 164 1181 153 1132 l 206 1226 l 331 1110 q 318 1010 318 1032 q 428 742 318 868 l 431 739 l 515 838 q 622 998 596 931 q 647 1151 647 1065 q 643 1182 647 1169 l 697 1226 l 808 1117 l 808 1086 m 628 261 q 467 583 628 393 l 404 507 q 342 393 364 458 q 319 253 319 328 q 351 128 319 167 q 450 89 382 89 q 579 137 529 89 q 629 261 629 185 l 628 261 z "},"५":{"ha":1018,"x_min":186,"x_max":1114,"o":"m 703 88 q 656 11 681 38 q 606 -15 631 -15 q 482 25 551 -15 q 363 122 413 65 q 313 224 313 179 q 349 259 313 244 q 447 274 385 274 q 601 256 513 274 q 625 467 617 368 q 635 711 633 565 q 519 685 579 685 q 367 725 444 685 q 238 833 289 765 q 186 978 186 901 l 186 1106 l 232 1106 l 339 1051 l 339 931 q 438 789 339 789 q 572 830 514 789 q 631 951 631 871 l 631 1106 l 676 1106 l 767 1060 l 783 1063 l 783 658 q 725 151 783 340 l 1114 -178 l 1074 -225 l 703 88 z "},"६":{"ha":1067,"x_min":104,"x_max":1251,"o":"m 797 365 q 649 284 726 315 q 511 253 572 253 q 341 298 429 253 q 194 417 253 343 q 135 574 135 492 q 169 677 135 628 q 264 760 203 726 q 148 843 192 794 q 104 944 104 892 q 141 1031 104 990 q 243 1095 178 1071 q 388 1119 308 1119 l 408 1118 l 488 1038 l 488 992 q 413 1001 450 1001 q 308 970 344 1001 q 271 897 271 939 q 311 835 271 858 q 469 807 351 811 l 486 807 l 565 726 l 565 681 q 521 682 551 682 q 356 635 413 682 q 300 511 300 588 q 429 390 300 390 q 583 419 515 390 q 693 493 650 449 q 661 672 661 585 q 718 804 661 804 q 815 763 760 804 q 910 663 871 721 q 950 560 950 604 q 922 488 950 528 q 847 406 894 447 l 1251 64 l 1210 17 l 797 365 z "},"७":{"ha":1283,"x_min":125,"x_max":1118,"o":"m 828 978 q 973 919 906 978 q 1079 762 1040 861 q 1118 546 1118 663 q 1058 263 1118 392 q 895 60 999 135 q 667 -14 792 -14 q 394 79 519 -14 q 197 327 269 172 q 125 658 125 482 q 158 919 125 790 q 256 1181 192 1047 l 296 1226 l 421 1110 q 317 804 344 940 q 290 540 290 668 q 367 217 290 339 q 588 94 443 94 q 826 204 733 94 q 944 514 919 314 q 918 511 928 511 q 781 552 850 511 q 668 657 713 593 q 624 785 624 721 q 652 879 624 835 q 728 951 681 924 q 828 978 775 978 m 854 615 q 903 633 881 615 q 953 693 926 651 q 882 874 946 874 q 816 828 843 874 q 789 717 789 782 q 853 615 789 615 l 854 615 z "},"८":{"ha":974,"x_min":-86,"x_max":938,"o":"m 511 965 q 351 890 411 965 q 290 692 290 815 q 327 578 290 622 q 419 508 364 533 q 567 453 474 483 q 734 388 671 418 q 842 299 797 357 q 886 149 886 242 q 842 40 886 88 q 742 -26 797 -7 l 661 54 l 661 100 q 721 214 721 140 q 689 299 721 265 q 609 356 657 333 q 476 408 561 378 q 294 483 365 447 q 174 584 224 518 q 125 753 125 650 q 143 866 125 811 q 193 965 161 921 l 1 965 l -86 1046 l -86 1092 l 850 1092 l 938 1011 l 938 965 l 511 965 z "},"९":{"ha":944,"x_min":132,"x_max":843,"o":"m 843 151 q 688 36 785 88 q 510 -15 590 -15 q 339 41 428 -15 q 191 189 250 97 q 132 379 132 281 q 193 521 132 454 q 354 622 254 588 q 226 749 275 676 q 178 904 178 822 q 206 1006 178 960 q 284 1078 233 1051 q 400 1106 335 1106 q 549 1074 476 1106 q 667 990 622 1042 q 713 883 713 938 q 663 799 713 833 q 542 764 613 764 l 514 767 l 421 839 l 421 885 q 469 875 440 875 q 526 896 504 875 q 547 951 547 917 q 492 994 547 994 q 385 952 426 994 q 343 850 343 910 q 372 740 343 793 q 457 646 400 688 q 518 650 486 650 q 551 649 540 650 l 629 568 l 629 522 q 603 524 618 525 q 585 524 589 524 q 363 460 444 524 q 281 286 281 397 q 323 165 281 214 q 428 115 365 115 q 624 163 544 115 q 764 281 703 210 l 843 197 l 843 151 z "},"Ⅰ":{"ha":683,"x_min":118,"x_max":565,"o":"m 540 0 l 131 0 l 131 36 l 265 142 l 265 690 l 118 743 l 143 792 l 553 792 l 553 756 l 418 650 l 418 101 l 565 49 l 540 0 z "},"Ⅱ":{"ha":1367,"x_min":118,"x_max":1249,"o":"m 540 0 l 131 0 l 131 36 l 265 142 l 265 690 l 118 743 l 143 792 l 553 792 l 553 756 l 418 650 l 418 101 l 565 49 l 540 0 m 1224 0 l 814 0 l 814 36 l 949 142 l 949 690 l 801 743 l 826 792 l 1236 792 l 1236 756 l 1101 650 l 1101 101 l 1249 49 l 1224 0 z "},"Ⅲ":{"ha":2050,"x_min":118,"x_max":1932,"o":"m 540 0 l 131 0 l 131 36 l 265 142 l 265 690 l 118 743 l 143 792 l 553 792 l 553 756 l 418 650 l 418 101 l 565 49 l 540 0 m 1224 0 l 814 0 l 814 36 l 949 142 l 949 690 l 801 743 l 826 792 l 1236 792 l 1236 756 l 1101 650 l 1101 101 l 1249 49 l 1224 0 m 1907 0 l 1497 0 l 1497 36 l 1632 142 l 1632 690 l 1485 743 l 1510 792 l 1919 792 l 1919 756 l 1785 650 l 1785 101 l 1932 49 l 1907 0 z "},"Ⅳ":{"ha":1736,"x_min":118,"x_max":1736,"o":"m 540 0 l 131 0 l 131 36 l 265 142 l 265 690 l 118 743 l 143 792 l 553 792 l 553 756 l 418 650 l 418 101 l 565 49 l 540 0 m 1619 663 l 1286 44 l 1160 -26 l 817 660 l 685 743 l 710 792 l 1097 792 l 1097 756 l 989 658 l 1260 115 l 1557 661 l 1311 743 l 1335 792 l 1736 792 l 1736 756 l 1619 663 z "},"Ⅴ":{"ha":1053,"x_min":1,"x_max":1053,"o":"m 936 663 l 603 44 l 476 -26 l 133 660 l 1 743 l 26 792 l 414 792 l 414 756 l 306 658 l 576 115 l 874 661 l 628 743 l 651 792 l 1053 792 l 1053 756 l 936 663 z "},"Ⅵ":{"ha":1736,"x_min":1,"x_max":1618,"o":"m 936 663 l 603 44 l 476 -26 l 133 660 l 1 743 l 26 792 l 414 792 l 414 756 l 306 658 l 576 115 l 874 661 l 628 743 l 651 792 l 1053 792 l 1053 756 l 936 663 m 1593 0 l 1183 0 l 1183 36 l 1318 142 l 1318 690 l 1171 743 l 1196 792 l 1606 792 l 1606 756 l 1471 650 l 1471 101 l 1618 49 l 1593 0 z "}}}
